<?xml version="1.0" encoding="UTF-8" standalone="no"?>
<!DOCTYPE svg PUBLIC "-//W3C//DTD SVG 1.1//EN"
 "http://www.w3.org/Graphics/SVG/1.1/DTD/svg11.dtd">
<!-- Generated by graphviz version 2.42.3 (20191010.1750)
 -->
<!-- Title: G Pages: 1 -->
<svg width="4949pt" height="659pt"
 viewBox="0.00 0.00 4949.00 659.50" xmlns="http://www.w3.org/2000/svg" xmlns:xlink="http://www.w3.org/1999/xlink">
<g id="graph0" class="graph" transform="scale(1 1) rotate(0) translate(4 655.5)">
<title>G</title>
<polygon fill="white" stroke="transparent" points="-4,4 -4,-655.5 4945,-655.5 4945,4 -4,4"/>
<!-- R=0,E=0,S=0 -->
<g id="node1" class="node">
<title>R=0,E=0,S=0</title>
<ellipse fill="none" stroke="black" cx="2665" cy="-633.5" rx="77.19" ry="18"/>
<text text-anchor="middle" x="2665" y="-629.8" font-family="Times,serif" font-size="14.00">R=0,E=0,S=0</text>
</g>
<!-- R=0,E=0,S=0&#45;&gt;R=0,E=0,S=0 -->
<g id="edge1" class="edge">
<title>R=0,E=0,S=0&#45;&gt;R=0,E=0,S=0</title>
<path fill="none" stroke="black" d="M2742.06,-635.27C2753,-634.98 2760.34,-634.39 2760.34,-633.5 2760.34,-632.93 2757.33,-632.48 2752.29,-632.16"/>
<polygon fill="black" stroke="black" points="2752.2,-628.65 2742.06,-631.73 2751.91,-635.65 2752.2,-628.65"/>
<text text-anchor="middle" x="2792.34" y="-629.8" font-family="Times,serif" font-size="14.00">setuid(0)</text>
</g>
<!-- R=0,E=0,S=0&#45;&gt;R=0,E=0,S=0 -->
<g id="edge2" class="edge">
<title>R=0,E=0,S=0&#45;&gt;R=0,E=0,S=0</title>
<path fill="none" stroke="black" d="M2740.87,-637.33C2782.89,-637.84 2824.34,-636.57 2824.34,-633.5 2824.34,-630.69 2789.41,-629.38 2751.17,-629.58"/>
<polygon fill="black" stroke="black" points="2750.84,-626.09 2740.87,-629.67 2750.9,-633.09 2750.84,-626.09"/>
<text text-anchor="middle" x="2860.84" y="-629.8" font-family="Times,serif" font-size="14.00">seteuid(0)</text>
</g>
<!-- R=0,E=0,S=0&#45;&gt;R=0,E=0,S=0 -->
<g id="edge3" class="edge">
<title>R=0,E=0,S=0&#45;&gt;R=0,E=0,S=0</title>
<path fill="none" stroke="black" d="M2739.18,-638.6C2808.98,-640.59 2897.34,-638.89 2897.34,-633.5 2897.34,-628.37 2817.39,-626.58 2749.53,-628.13"/>
<polygon fill="black" stroke="black" points="2749.09,-624.64 2739.18,-628.4 2749.27,-631.64 2749.09,-624.64"/>
<text text-anchor="middle" x="2943.84" y="-629.8" font-family="Times,serif" font-size="14.00">setreuid(0,0)</text>
</g>
<!-- R=0,E=0,S=0&#45;&gt;R=0,E=0,S=0 -->
<g id="edge4" class="edge">
<title>R=0,E=0,S=0&#45;&gt;R=0,E=0,S=0</title>
<path fill="none" stroke="black" d="M2737.99,-639.45C2836.55,-643.33 2990.34,-641.34 2990.34,-633.5 2990.34,-625.92 2846.88,-623.81 2748.28,-627.17"/>
<polygon fill="black" stroke="black" points="2747.86,-623.68 2737.99,-627.55 2748.11,-630.68 2747.86,-623.68"/>
<text text-anchor="middle" x="3047.34" y="-629.8" font-family="Times,serif" font-size="14.00">setresuid(0,0,0)</text>
</g>
<!-- R=0,E=0,S=1000 -->
<g id="node2" class="node">
<title>R=0,E=0,S=1000</title>
<ellipse fill="none" stroke="black" cx="1569" cy="-546.5" rx="94.78" ry="18"/>
<text text-anchor="middle" x="1569" y="-542.8" font-family="Times,serif" font-size="14.00">R=0,E=0,S=1000</text>
</g>
<!-- R=0,E=0,S=0&#45;&gt;R=0,E=0,S=1000 -->
<g id="edge5" class="edge">
<title>R=0,E=0,S=0&#45;&gt;R=0,E=0,S=1000</title>
<path fill="none" stroke="black" d="M2587.98,-631.41C2401.85,-628.46 1937.95,-619.02 1871,-597.5 1859.38,-593.77 1859.46,-586.7 1848,-582.5 1792.45,-562.14 1726.97,-553.21 1673.41,-549.46"/>
<polygon fill="black" stroke="black" points="1673.42,-545.95 1663.21,-548.79 1672.96,-552.93 1673.42,-545.95"/>
<text text-anchor="middle" x="1941.5" y="-586.3" font-family="Times,serif" font-size="14.00">setresuid(0,0,1000)</text>
</g>
<!-- R=0,E=1000,S=0 -->
<g id="node3" class="node">
<title>R=0,E=1000,S=0</title>
<ellipse fill="none" stroke="black" cx="3495" cy="-111.5" rx="94.78" ry="18"/>
<text text-anchor="middle" x="3495" y="-107.8" font-family="Times,serif" font-size="14.00">R=0,E=1000,S=0</text>
</g>
<!-- R=0,E=0,S=0&#45;&gt;R=0,E=1000,S=0 -->
<g id="edge6" class="edge">
<title>R=0,E=0,S=0&#45;&gt;R=0,E=1000,S=0</title>
<path fill="none" stroke="black" d="M2742.03,-631.51C2977.97,-628.29 3680.82,-617.15 3782,-597.5 3845.22,-585.22 3918,-611.9 3918,-547.5 3918,-547.5 3918,-547.5 3918,-415 3918,-379.48 3929.65,-371.86 3933,-336.5 3940.92,-252.87 3989.98,-209.22 3933,-147.5 3910.82,-123.48 3721.93,-115.93 3599.56,-113.57"/>
<polygon fill="black" stroke="black" points="3599.46,-110.07 3589.4,-113.38 3599.33,-117.07 3599.46,-110.07"/>
<text text-anchor="middle" x="3990" y="-368.8" font-family="Times,serif" font-size="14.00">setreuid(0,1000)</text>
</g>
<!-- R=0,E=0,S=0&#45;&gt;R=0,E=1000,S=0 -->
<g id="edge7" class="edge">
<title>R=0,E=0,S=0&#45;&gt;R=0,E=1000,S=0</title>
<path fill="none" stroke="black" d="M2742.33,-632.64C3069.86,-632.73 4326,-627.85 4326,-547.5 4326,-547.5 4326,-547.5 4326,-415 4326,-387.4 4325.35,-377.89 4340,-354.5 4381.73,-287.85 4520.79,-294.53 4470,-234.5 4414.06,-168.38 3833.29,-130.39 3595.59,-117.51"/>
<polygon fill="black" stroke="black" points="3595.73,-114.01 3585.56,-116.97 3595.35,-121 3595.73,-114.01"/>
<text text-anchor="middle" x="4410.5" y="-368.8" font-family="Times,serif" font-size="14.00">setresuid(0,1000,0)</text>
</g>
<!-- R=0,E=0,S=0&#45;&gt;R=0,E=1000,S=0 -->
<g id="edge10" class="edge">
<title>R=0,E=0,S=0&#45;&gt;R=0,E=1000,S=0</title>
<path fill="none" stroke="black" d="M2742.28,-632.05C3009.93,-630.28 3896.48,-622.61 4180,-597.5 4324.7,-584.68 4503,-692.76 4503,-547.5 4503,-547.5 4503,-547.5 4503,-415 4503,-334.5 4533.37,-301 4488,-234.5 4457.31,-189.51 4430.23,-195.93 4378,-180.5 4234.61,-138.14 3799.43,-120.89 3598.59,-115.05"/>
<polygon fill="black" stroke="black" points="3598.42,-111.55 3588.33,-114.76 3598.22,-118.54 3598.42,-111.55"/>
<text text-anchor="middle" x="4557" y="-368.8" font-family="Times,serif" font-size="14.00">seteuid(1000)</text>
</g>
<!-- R=0,E=1000,S=1000 -->
<g id="node4" class="node">
<title>R=0,E=1000,S=1000</title>
<ellipse fill="none" stroke="black" cx="1451" cy="-198.5" rx="112.38" ry="18"/>
<text text-anchor="middle" x="1451" y="-194.8" font-family="Times,serif" font-size="14.00">R=0,E=1000,S=1000</text>
</g>
<!-- R=0,E=0,S=0&#45;&gt;R=0,E=1000,S=1000 -->
<g id="edge8" class="edge">
<title>R=0,E=0,S=0&#45;&gt;R=0,E=1000,S=1000</title>
<path fill="none" stroke="black" d="M2587.79,-632.29C2248.31,-631.22 896.79,-625.23 709,-597.5 628.13,-585.56 532,-629.24 532,-547.5 532,-547.5 532,-547.5 532,-328 532,-299.07 532.7,-284.65 556,-267.5 616.87,-222.7 1099.42,-206.75 1329.62,-201.65"/>
<polygon fill="black" stroke="black" points="1329.79,-205.15 1339.72,-201.43 1329.64,-198.15 1329.79,-205.15"/>
<text text-anchor="middle" x="616" y="-412.3" font-family="Times,serif" font-size="14.00">setresuid(0,1000,1000)</text>
</g>
<!-- R=1000,E=1000,S=1000 -->
<g id="node5" class="node">
<title>R=1000,E=1000,S=1000</title>
<ellipse fill="none" stroke="black" cx="1924" cy="-24.5" rx="129.98" ry="18"/>
<text text-anchor="middle" x="1924" y="-20.8" font-family="Times,serif" font-size="14.00">R=1000,E=1000,S=1000</text>
</g>
<!-- R=0,E=0,S=0&#45;&gt;R=1000,E=1000,S=1000 -->
<g id="edge9" class="edge">
<title>R=0,E=0,S=0&#45;&gt;R=1000,E=1000,S=1000</title>
<path fill="none" stroke="black" d="M2587.52,-632.42C2172.21,-631.85 223.67,-627.59 100,-597.5 51.72,-585.75 0,-597.19 0,-547.5 0,-547.5 0,-547.5 0,-110.5 0,-60.81 51.75,-72.38 100,-60.5 181.25,-40.49 1371.63,-29.66 1784.34,-26.5"/>
<polygon fill="black" stroke="black" points="1784.57,-29.99 1794.54,-26.42 1784.52,-23 1784.57,-29.99"/>
<text text-anchor="middle" x="45.5" y="-325.3" font-family="Times,serif" font-size="14.00">setuid(1000)</text>
</g>
<!-- R=0,E=0,S=0&#45;&gt;R=1000,E=1000,S=1000 -->
<g id="edge14" class="edge">
<title>R=0,E=0,S=0&#45;&gt;R=1000,E=1000,S=1000</title>
<path fill="none" stroke="black" d="M2587.46,-632.73C2202.13,-633.67 502.63,-635.61 270,-597.5 198.15,-585.73 114,-620.31 114,-547.5 114,-547.5 114,-547.5 114,-110.5 114,-37.69 198.19,-72.51 270,-60.5 416.99,-35.92 1412.77,-28.19 1784.46,-26.15"/>
<polygon fill="black" stroke="black" points="1784.49,-29.65 1794.47,-26.09 1784.45,-22.65 1784.49,-29.65"/>
<text text-anchor="middle" x="187.5" y="-325.3" font-family="Times,serif" font-size="14.00">setreuid(1000,1000)</text>
</g>
<!-- R=0,E=0,S=0&#45;&gt;R=1000,E=1000,S=1000 -->
<g id="edge16" class="edge">
<title>R=0,E=0,S=0&#45;&gt;R=1000,E=1000,S=1000</title>
<path fill="none" stroke="black" d="M2587.84,-632.18C2227.21,-630.58 716.47,-622.42 507,-597.5 406.14,-585.5 284,-649.07 284,-547.5 284,-547.5 284,-547.5 284,-110.5 284,-35.68 1386.95,-26.41 1783.84,-25.5"/>
<polygon fill="black" stroke="black" points="1783.95,-29 1793.94,-25.48 1783.93,-22 1783.95,-29"/>
<text text-anchor="middle" x="381.5" y="-325.3" font-family="Times,serif" font-size="14.00">setresuid(1000,1000,1000)</text>
</g>
<!-- R=1000,E=0,S=1000 -->
<g id="node6" class="node">
<title>R=1000,E=0,S=1000</title>
<ellipse fill="none" stroke="black" cx="2076" cy="-285.5" rx="112.38" ry="18"/>
<text text-anchor="middle" x="2076" y="-281.8" font-family="Times,serif" font-size="14.00">R=1000,E=0,S=1000</text>
</g>
<!-- R=0,E=0,S=0&#45;&gt;R=1000,E=0,S=1000 -->
<g id="edge11" class="edge">
<title>R=0,E=0,S=0&#45;&gt;R=1000,E=0,S=1000</title>
<path fill="none" stroke="black" d="M2592.58,-627.12C2544.46,-622.18 2486.78,-613.15 2468,-597.5 2430.84,-566.52 2467.39,-526.2 2430,-495.5 2391.37,-463.78 2355.47,-511.67 2319,-477.5 2278.58,-439.63 2273.3,-403.56 2299,-354.5 2305.52,-342.05 2318.48,-348.95 2325,-336.5 2328.09,-330.59 2329.37,-326.53 2325,-321.5 2307.81,-301.73 2252,-292.8 2197.57,-288.9"/>
<polygon fill="black" stroke="black" points="2197.64,-285.4 2187.43,-288.23 2197.18,-292.38 2197.64,-285.4"/>
<text text-anchor="middle" x="2379" y="-455.8" font-family="Times,serif" font-size="14.00">setreuid(1000,0)</text>
</g>
<!-- R=0,E=0,S=0&#45;&gt;R=1000,E=0,S=1000 -->
<g id="edge13" class="edge">
<title>R=0,E=0,S=0&#45;&gt;R=1000,E=0,S=1000</title>
<path fill="none" stroke="black" d="M2643.62,-616.2C2607.82,-588.67 2533.9,-530.73 2475,-477.5 2458.21,-462.33 2458.53,-452.93 2439,-441.5 2413.5,-426.57 2396.47,-443.8 2375,-423.5 2340.17,-390.58 2377.09,-351.86 2340,-321.5 2317.72,-303.26 2254.64,-294.48 2195.72,-290.28"/>
<polygon fill="black" stroke="black" points="2195.76,-286.78 2185.55,-289.6 2195.29,-293.76 2195.76,-286.78"/>
<text text-anchor="middle" x="2559" y="-455.8" font-family="Times,serif" font-size="14.00">setresuid(1000,0,1000)</text>
</g>
<!-- R=1000,E=0,S=0 -->
<g id="node7" class="node">
<title>R=1000,E=0,S=0</title>
<ellipse fill="none" stroke="black" cx="2921" cy="-372.5" rx="94.78" ry="18"/>
<text text-anchor="middle" x="2921" y="-368.8" font-family="Times,serif" font-size="14.00">R=1000,E=0,S=0</text>
</g>
<!-- R=0,E=0,S=0&#45;&gt;R=1000,E=0,S=0 -->
<g id="edge12" class="edge">
<title>R=0,E=0,S=0&#45;&gt;R=1000,E=0,S=0</title>
<path fill="none" stroke="black" d="M2699.4,-617.33C2742.69,-595.67 2809.93,-552.17 2797,-495.5 2791.07,-469.53 2792.48,-457.25 2771,-441.5 2724.66,-407.53 2607.88,-451.5 2646,-408.5 2668.12,-383.54 2761.92,-394.73 2795,-390.5 2808.39,-388.79 2822.57,-386.92 2836.41,-385.08"/>
<polygon fill="black" stroke="black" points="2836.95,-388.54 2846.4,-383.74 2836.03,-381.6 2836.95,-388.54"/>
<text text-anchor="middle" x="2868.5" y="-499.3" font-family="Times,serif" font-size="14.00">setresuid(1000,0,0)</text>
</g>
<!-- R=1000,E=1000,S=0 -->
<g id="node8" class="node">
<title>R=1000,E=1000,S=0</title>
<ellipse fill="none" stroke="black" cx="3054" cy="-459.5" rx="112.38" ry="18"/>
<text text-anchor="middle" x="3054" y="-455.8" font-family="Times,serif" font-size="14.00">R=1000,E=1000,S=0</text>
</g>
<!-- R=0,E=0,S=0&#45;&gt;R=1000,E=1000,S=0 -->
<g id="edge15" class="edge">
<title>R=0,E=0,S=0&#45;&gt;R=1000,E=1000,S=0</title>
<path fill="none" stroke="black" d="M2742.03,-631.66C2830.43,-629.49 2979.41,-622.09 3105,-597.5 3152.59,-588.18 3180.36,-603.63 3209,-564.5 3238.38,-524.35 3176.77,-494.95 3122.74,-477.85"/>
<polygon fill="black" stroke="black" points="3123.7,-474.48 3113.11,-474.9 3121.65,-481.18 3123.7,-474.48"/>
<text text-anchor="middle" x="3300" y="-542.8" font-family="Times,serif" font-size="14.00">setresuid(1000,1000,0)</text>
</g>
<!-- R=0,E=0,S=1000&#45;&gt;R=0,E=0,S=0 -->
<g id="edge17" class="edge">
<title>R=0,E=0,S=1000&#45;&gt;R=0,E=0,S=0</title>
<path fill="none" stroke="black" d="M1543.84,-564.06C1531.4,-574.2 1520.98,-587.17 1531,-597.5 1567.24,-634.87 2317.1,-634.39 2577.13,-633.08"/>
<polygon fill="black" stroke="black" points="2577.3,-636.58 2587.28,-633.03 2577.27,-629.58 2577.3,-636.58"/>
<text text-anchor="middle" x="1563" y="-586.3" font-family="Times,serif" font-size="14.00">setuid(0)</text>
</g>
<!-- R=0,E=0,S=1000&#45;&gt;R=0,E=0,S=0 -->
<g id="edge19" class="edge">
<title>R=0,E=0,S=1000&#45;&gt;R=0,E=0,S=0</title>
<path fill="none" stroke="black" d="M1580.47,-564.77C1589.23,-576.34 1602.43,-590.65 1618,-597.5 1661.57,-616.67 2334.18,-627.89 2577.77,-631.35"/>
<polygon fill="black" stroke="black" points="2577.95,-634.85 2588,-631.49 2578.05,-627.85 2577.95,-634.85"/>
<text text-anchor="middle" x="1664.5" y="-586.3" font-family="Times,serif" font-size="14.00">setreuid(0,0)</text>
</g>
<!-- R=0,E=0,S=1000&#45;&gt;R=0,E=0,S=0 -->
<g id="edge20" class="edge">
<title>R=0,E=0,S=1000&#45;&gt;R=0,E=0,S=0</title>
<path fill="none" stroke="black" d="M1639.32,-558.63C1662.87,-563.95 1688.76,-571.62 1711,-582.5 1720.66,-587.23 1719.9,-593.78 1730,-597.5 1808.07,-626.25 2360.01,-631.4 2577.36,-632.31"/>
<polygon fill="black" stroke="black" points="2577.44,-635.81 2587.45,-632.35 2577.47,-628.81 2577.44,-635.81"/>
<text text-anchor="middle" x="1787" y="-586.3" font-family="Times,serif" font-size="14.00">setresuid(0,0,0)</text>
</g>
<!-- R=0,E=0,S=1000&#45;&gt;R=0,E=0,S=1000 -->
<g id="edge18" class="edge">
<title>R=0,E=0,S=1000&#45;&gt;R=0,E=0,S=1000</title>
<path fill="none" stroke="black" d="M1662.44,-549.93C1674.17,-549.32 1681.89,-548.18 1681.89,-546.5 1681.89,-545.37 1678.41,-544.48 1672.56,-543.84"/>
<polygon fill="black" stroke="black" points="1672.67,-540.34 1662.44,-543.07 1672.14,-547.32 1672.67,-540.34"/>
<text text-anchor="middle" x="1718.39" y="-542.8" font-family="Times,serif" font-size="14.00">seteuid(0)</text>
</g>
<!-- R=0,E=0,S=1000&#45;&gt;R=0,E=0,S=1000 -->
<g id="edge21" class="edge">
<title>R=0,E=0,S=1000&#45;&gt;R=0,E=0,S=1000</title>
<path fill="none" stroke="black" d="M1655.35,-554.11C1705.07,-555.25 1754.89,-552.71 1754.89,-546.5 1754.89,-540.71 1711.65,-538.11 1665.53,-538.71"/>
<polygon fill="black" stroke="black" points="1665.29,-535.21 1655.35,-538.89 1665.41,-542.21 1665.29,-535.21"/>
<text text-anchor="middle" x="1825.39" y="-542.8" font-family="Times,serif" font-size="14.00">setresuid(0,0,1000)</text>
</g>
<!-- R=0,E=0,S=1000&#45;&gt;R=0,E=1000,S=0 -->
<g id="edge23" class="edge">
<title>R=0,E=0,S=1000&#45;&gt;R=0,E=1000,S=0</title>
<path fill="none" stroke="black" d="M1663.28,-544.33C1895.29,-541.22 2512.49,-531.49 3027,-510.5 3058.86,-509.2 3570.74,-490.18 3600,-477.5 3646.15,-457.5 3719.29,-344.54 3764,-321.5 3801.42,-302.22 3830.21,-335.97 3857,-303.5 3901.12,-250.02 3903.61,-198.83 3857,-147.5 3839.79,-128.55 3699.1,-119.56 3598.29,-115.52"/>
<polygon fill="black" stroke="black" points="3598.18,-112.01 3588.05,-115.12 3597.91,-119.01 3598.18,-112.01"/>
<text text-anchor="middle" x="3834.5" y="-325.3" font-family="Times,serif" font-size="14.00">setresuid(0,1000,0)</text>
</g>
<!-- R=0,E=0,S=1000&#45;&gt;R=0,E=1000,S=1000 -->
<g id="edge22" class="edge">
<title>R=0,E=0,S=1000&#45;&gt;R=0,E=1000,S=1000</title>
<path fill="none" stroke="black" d="M1495.39,-535.13C1421.32,-522.57 1318,-498.28 1318,-460.5 1318,-460.5 1318,-460.5 1318,-284.5 1318,-250.83 1348.64,-229.9 1380.51,-217.24"/>
<polygon fill="black" stroke="black" points="1381.8,-220.49 1389.95,-213.72 1379.36,-213.93 1381.8,-220.49"/>
<text text-anchor="middle" x="1378" y="-368.8" font-family="Times,serif" font-size="14.00">setreuid(0,1000)</text>
</g>
<!-- R=0,E=0,S=1000&#45;&gt;R=0,E=1000,S=1000 -->
<g id="edge24" class="edge">
<title>R=0,E=0,S=1000&#45;&gt;R=0,E=1000,S=1000</title>
<path fill="none" stroke="black" d="M1522.57,-530.62C1513.16,-525.61 1504.25,-519.04 1498,-510.5 1434.26,-423.33 1440.95,-285.25 1447.29,-226.93"/>
<polygon fill="black" stroke="black" points="1450.81,-227.03 1448.5,-216.69 1443.85,-226.21 1450.81,-227.03"/>
<text text-anchor="middle" x="1535" y="-368.8" font-family="Times,serif" font-size="14.00">setresuid(0,1000,1000)</text>
</g>
<!-- R=0,E=0,S=1000&#45;&gt;R=0,E=1000,S=1000 -->
<g id="edge26" class="edge">
<title>R=0,E=0,S=1000&#45;&gt;R=0,E=1000,S=1000</title>
<path fill="none" stroke="black" d="M1551.73,-528.78C1546.79,-523.31 1541.73,-516.97 1538,-510.5 1515.31,-471.17 1500.62,-441.32 1532,-408.5 1560.49,-378.7 1596.83,-422.36 1623,-390.5 1633.16,-378.14 1629.98,-368.9 1623,-354.5 1590.16,-286.73 1543.1,-302.91 1490,-249.5 1482.51,-241.97 1475.13,-233.01 1468.83,-224.77"/>
<polygon fill="black" stroke="black" points="1471.49,-222.47 1462.71,-216.54 1465.87,-226.65 1471.49,-222.47"/>
<text text-anchor="middle" x="1679" y="-368.8" font-family="Times,serif" font-size="14.00">seteuid(1000)</text>
</g>
<!-- R=0,E=0,S=1000&#45;&gt;R=1000,E=1000,S=1000 -->
<g id="edge25" class="edge">
<title>R=0,E=0,S=1000&#45;&gt;R=1000,E=1000,S=1000</title>
<path fill="none" stroke="black" d="M1474.78,-543.93C1283.58,-540.35 866.01,-530.29 842,-510.5 805.98,-480.82 846.61,-444.58 817,-408.5 746.99,-323.2 661.46,-389.25 592,-303.5 574.63,-282.05 578,-270.6 578,-243 578,-243 578,-243 578,-110.5 578,-55.58 637.43,-72.62 691,-60.5 795.04,-36.96 1483.97,-28.86 1784.37,-26.43"/>
<polygon fill="black" stroke="black" points="1784.48,-29.93 1794.45,-26.35 1784.42,-22.93 1784.48,-29.93"/>
<text text-anchor="middle" x="637.5" y="-281.8" font-family="Times,serif" font-size="14.00">setuid(1000)</text>
</g>
<!-- R=0,E=0,S=1000&#45;&gt;R=1000,E=1000,S=1000 -->
<g id="edge30" class="edge">
<title>R=0,E=0,S=1000&#45;&gt;R=1000,E=1000,S=1000</title>
<path fill="none" stroke="black" d="M1474.01,-546.17C1296.4,-546.63 927.55,-543.53 880,-510.5 839.45,-482.33 864.82,-448.59 836,-408.5 795.21,-351.77 754.53,-363.66 719,-303.5 704.97,-279.73 705,-270.6 705,-243 705,-243 705,-243 705,-110.5 705,-32.17 796.68,-73.02 874,-60.5 1044.93,-32.83 1539.89,-26.95 1784.21,-25.76"/>
<polygon fill="black" stroke="black" points="1784.24,-29.26 1794.23,-25.71 1784.21,-22.26 1784.24,-29.26"/>
<text text-anchor="middle" x="792.5" y="-281.8" font-family="Times,serif" font-size="14.00">setreuid(1000,1000)</text>
</g>
<!-- R=0,E=0,S=1000&#45;&gt;R=1000,E=1000,S=1000 -->
<g id="edge32" class="edge">
<title>R=0,E=0,S=1000&#45;&gt;R=1000,E=1000,S=1000</title>
<path fill="none" stroke="black" d="M1475.75,-542.91C1325.68,-538.28 1042.96,-527.44 1000,-510.5 880.1,-463.22 888,-371.89 888,-243 888,-243 888,-243 888,-110.5 888,9.79 1034.51,-74.38 1154,-60.5 1373.17,-35.05 1629.43,-27.86 1784.09,-25.97"/>
<polygon fill="black" stroke="black" points="1784.17,-29.47 1794.13,-25.85 1784.09,-22.47 1784.17,-29.47"/>
<text text-anchor="middle" x="985.5" y="-281.8" font-family="Times,serif" font-size="14.00">setresuid(1000,1000,1000)</text>
</g>
<!-- R=0,E=0,S=1000&#45;&gt;R=1000,E=0,S=1000 -->
<g id="edge27" class="edge">
<title>R=0,E=0,S=1000&#45;&gt;R=1000,E=0,S=1000</title>
<path fill="none" stroke="black" d="M1558.21,-528.22C1541.75,-499.43 1515.35,-441.58 1546,-408.5 1581.75,-369.92 1736.34,-416.61 1782,-390.5 1814.43,-371.95 1798.19,-341.09 1830,-321.5 1852.43,-307.68 1909.44,-299.08 1962.94,-293.87"/>
<polygon fill="black" stroke="black" points="1963.6,-297.32 1973.23,-292.9 1962.95,-290.35 1963.6,-297.32"/>
<text text-anchor="middle" x="1606" y="-412.3" font-family="Times,serif" font-size="14.00">setreuid(1000,0)</text>
</g>
<!-- R=0,E=0,S=1000&#45;&gt;R=1000,E=0,S=1000 -->
<g id="edge29" class="edge">
<title>R=0,E=0,S=1000&#45;&gt;R=1000,E=0,S=1000</title>
<path fill="none" stroke="black" d="M1585.43,-528.7C1590.83,-523.02 1596.77,-516.58 1602,-510.5 1627.38,-480.97 1621.92,-460.34 1656,-441.5 1724.04,-403.89 1761.22,-459.75 1830,-423.5 1877.77,-398.32 1852.36,-353.3 1896,-321.5 1909.64,-311.56 1942.86,-303.85 1977.1,-298.23"/>
<polygon fill="black" stroke="black" points="1977.92,-301.64 1987.25,-296.62 1976.83,-294.73 1977.92,-301.64"/>
<text text-anchor="middle" x="1932" y="-412.3" font-family="Times,serif" font-size="14.00">setresuid(1000,0,1000)</text>
</g>
<!-- R=0,E=0,S=1000&#45;&gt;R=1000,E=0,S=0 -->
<g id="edge28" class="edge">
<title>R=0,E=0,S=1000&#45;&gt;R=1000,E=0,S=0</title>
<path fill="none" stroke="black" d="M1609.23,-530.19C1619.94,-524.96 1631.01,-518.39 1640,-510.5 1667.7,-486.19 1653.98,-459.75 1686,-441.5 1718.67,-422.88 1986.53,-426.74 2024,-423.5 2079.75,-418.68 2093.2,-412.62 2149,-408.5 2435.44,-387.37 2508.72,-413.73 2795,-390.5 2809.48,-389.32 2824.84,-387.63 2839.68,-385.76"/>
<polygon fill="black" stroke="black" points="2840.38,-389.2 2849.84,-384.44 2839.48,-382.26 2840.38,-389.2"/>
<text text-anchor="middle" x="1756.5" y="-455.8" font-family="Times,serif" font-size="14.00">setresuid(1000,0,0)</text>
</g>
<!-- R=0,E=0,S=1000&#45;&gt;R=1000,E=1000,S=0 -->
<g id="edge31" class="edge">
<title>R=0,E=0,S=1000&#45;&gt;R=1000,E=1000,S=0</title>
<path fill="none" stroke="black" d="M1659.5,-541.03C1788.26,-534.62 2031.71,-522.27 2239,-510.5 2490.01,-496.24 2784.4,-477.74 2941.58,-467.72"/>
<polygon fill="black" stroke="black" points="2941.98,-471.2 2951.73,-467.07 2941.53,-464.22 2941.98,-471.2"/>
<text text-anchor="middle" x="2569" y="-499.3" font-family="Times,serif" font-size="14.00">setresuid(1000,1000,0)</text>
</g>
<!-- R=0,E=1000,S=0&#45;&gt;R=0,E=0,S=0 -->
<g id="edge33" class="edge">
<title>R=0,E=1000,S=0&#45;&gt;R=0,E=0,S=0</title>
<path fill="none" stroke="black" d="M3588.62,-114.59C3861.84,-121.29 4639,-144.97 4639,-197.5 4639,-547.5 4639,-547.5 4639,-547.5 4639,-676.98 4480.87,-585.01 4352,-597.5 4037.18,-628.01 3053.15,-631.95 2752.88,-632.44"/>
<polygon fill="black" stroke="black" points="2752.48,-628.94 2742.49,-632.45 2752.49,-635.94 2752.48,-628.94"/>
<text text-anchor="middle" x="4671" y="-368.8" font-family="Times,serif" font-size="14.00">setuid(0)</text>
</g>
<!-- R=0,E=1000,S=0&#45;&gt;R=0,E=0,S=0 -->
<g id="edge34" class="edge">
<title>R=0,E=1000,S=0&#45;&gt;R=0,E=0,S=0</title>
<path fill="none" stroke="black" d="M3589.01,-114.02C3878.82,-119.32 4739,-139.9 4739,-197.5 4739,-547.5 4739,-547.5 4739,-547.5 4739,-653.41 4611.21,-585.33 4506,-597.5 4331.13,-617.73 3094.19,-629.06 2752.34,-631.83"/>
<polygon fill="black" stroke="black" points="2752.22,-628.33 2742.25,-631.91 2752.28,-635.33 2752.22,-628.33"/>
<text text-anchor="middle" x="4775.5" y="-368.8" font-family="Times,serif" font-size="14.00">seteuid(0)</text>
</g>
<!-- R=0,E=1000,S=0&#45;&gt;R=0,E=0,S=0 -->
<g id="edge35" class="edge">
<title>R=0,E=1000,S=0&#45;&gt;R=0,E=0,S=0</title>
<path fill="none" stroke="black" d="M3589.33,-113.49C3896.45,-117.33 4848,-134.34 4848,-197.5 4848,-547.5 4848,-547.5 4848,-547.5 4848,-646.47 4729.23,-585.44 4631,-597.5 4443.38,-620.53 3108.67,-629.91 2752.29,-632.02"/>
<polygon fill="black" stroke="black" points="2752.27,-628.52 2742.29,-632.08 2752.31,-635.52 2752.27,-628.52"/>
<text text-anchor="middle" x="4894.5" y="-368.8" font-family="Times,serif" font-size="14.00">setreuid(0,0)</text>
</g>
<!-- R=0,E=1000,S=0&#45;&gt;R=0,E=0,S=0 -->
<g id="edge36" class="edge">
<title>R=0,E=1000,S=0&#45;&gt;R=0,E=0,S=0</title>
<path fill="none" stroke="black" d="M3589.9,-112.21C3686.67,-113.49 3829.06,-120.2 3876,-147.5 3912.73,-168.87 3932.34,-303.97 3905,-336.5 3875.1,-372.08 3839.93,-327.65 3802,-354.5 3776.82,-372.32 3768,-384.16 3768,-415 3768,-547.5 3768,-547.5 3768,-547.5 3768,-598.38 3012.15,-623.27 2751.85,-630.33"/>
<polygon fill="black" stroke="black" points="2751.59,-626.84 2741.69,-630.61 2751.78,-633.84 2751.59,-626.84"/>
<text text-anchor="middle" x="3859" y="-368.8" font-family="Times,serif" font-size="14.00">setresuid(0,0,0)</text>
</g>
<!-- R=0,E=1000,S=0&#45;&gt;R=0,E=0,S=1000 -->
<g id="edge37" class="edge">
<title>R=0,E=1000,S=0&#45;&gt;R=0,E=0,S=1000</title>
<path fill="none" stroke="black" d="M3564.95,-123.68C3588.85,-129.03 3615.26,-136.7 3638,-147.5 3854.55,-250.31 3876.76,-216.2 3797,-303.5 3767.05,-336.28 3635.81,-298.22 3598,-321.5 3567.23,-340.44 3576.51,-361.47 3555,-390.5 3524.44,-431.75 3525.31,-455.33 3479,-477.5 3433.96,-499.06 3079.65,-490.25 3030,-495.5 2990.98,-499.63 2982.05,-506.66 2943,-510.5 2697.28,-534.68 1950.97,-542.64 1673.96,-544.8"/>
<polygon fill="black" stroke="black" points="1673.88,-541.3 1663.91,-544.88 1673.94,-548.3 1673.88,-541.3"/>
<text text-anchor="middle" x="3668.5" y="-325.3" font-family="Times,serif" font-size="14.00">setresuid(0,0,1000)</text>
</g>
<!-- R=0,E=1000,S=0&#45;&gt;R=0,E=1000,S=0 -->
<g id="edge38" class="edge">
<title>R=0,E=1000,S=0&#45;&gt;R=0,E=1000,S=0</title>
<path fill="none" stroke="black" d="M3589.29,-113.76C3600.54,-113.35 3607.89,-112.59 3607.89,-111.5 3607.89,-110.78 3604.73,-110.21 3599.37,-109.79"/>
<polygon fill="black" stroke="black" points="3599.46,-106.29 3589.29,-109.24 3599.08,-113.28 3599.46,-106.29"/>
<text text-anchor="middle" x="3667.89" y="-107.8" font-family="Times,serif" font-size="14.00">setreuid(0,1000)</text>
</g>
<!-- R=0,E=1000,S=0&#45;&gt;R=0,E=1000,S=0 -->
<g id="edge39" class="edge">
<title>R=0,E=1000,S=0&#45;&gt;R=0,E=1000,S=0</title>
<path fill="none" stroke="black" d="M3586.62,-116.4C3653.03,-117.54 3727.89,-115.9 3727.89,-111.5 3727.89,-107.32 3660.44,-105.64 3596.8,-106.45"/>
<polygon fill="black" stroke="black" points="3596.57,-102.95 3586.62,-106.6 3596.67,-109.95 3596.57,-102.95"/>
<text text-anchor="middle" x="3798.39" y="-107.8" font-family="Times,serif" font-size="14.00">setresuid(0,1000,0)</text>
</g>
<!-- R=0,E=1000,S=0&#45;&gt;R=0,E=1000,S=0 -->
<g id="edge42" class="edge">
<title>R=0,E=1000,S=0&#45;&gt;R=0,E=1000,S=0</title>
<path fill="none" stroke="black" d="M3584.16,-117.73C3696.79,-121.23 3868.89,-119.15 3868.89,-111.5 3868.89,-104.07 3706.73,-101.9 3594.21,-104.98"/>
<polygon fill="black" stroke="black" points="3594.06,-101.48 3584.16,-105.27 3594.26,-108.48 3594.06,-101.48"/>
<text text-anchor="middle" x="3918.89" y="-107.8" font-family="Times,serif" font-size="14.00">seteuid(1000)</text>
</g>
<!-- R=0,E=1000,S=0&#45;&gt;R=0,E=1000,S=1000 -->
<g id="edge40" class="edge">
<title>R=0,E=1000,S=0&#45;&gt;R=0,E=1000,S=1000</title>
<path fill="none" stroke="black" d="M3400.29,-113.02C3055.22,-115.1 1881.48,-123.9 1805,-147.5 1793.34,-151.1 1793.5,-158.41 1782,-162.5 1743.23,-176.28 1645.17,-185.56 1565.77,-191.08"/>
<polygon fill="black" stroke="black" points="1565.43,-187.6 1555.7,-191.77 1565.91,-194.58 1565.43,-187.6"/>
<text text-anchor="middle" x="1889" y="-151.3" font-family="Times,serif" font-size="14.00">setresuid(0,1000,1000)</text>
</g>
<!-- R=0,E=1000,S=0&#45;&gt;R=1000,E=1000,S=1000 -->
<g id="edge41" class="edge">
<title>R=0,E=1000,S=0&#45;&gt;R=1000,E=1000,S=1000</title>
<path fill="none" stroke="black" d="M3488.99,-93.36C3483.97,-81.86 3475.58,-67.57 3463,-60.5 3402.68,-26.59 2432.54,-24.64 2064.28,-25.13"/>
<polygon fill="black" stroke="black" points="2064.09,-21.63 2054.1,-25.15 2064.1,-28.63 2064.09,-21.63"/>
<text text-anchor="middle" x="3523.5" y="-64.3" font-family="Times,serif" font-size="14.00">setuid(1000)</text>
</g>
<!-- R=0,E=1000,S=0&#45;&gt;R=1000,E=1000,S=1000 -->
<g id="edge46" class="edge">
<title>R=0,E=1000,S=0&#45;&gt;R=1000,E=1000,S=1000</title>
<path fill="none" stroke="black" d="M3545.61,-96.22C3568.36,-87.42 3587.23,-75.04 3573,-60.5 3546.75,-33.68 2457.11,-27.31 2063.77,-25.89"/>
<polygon fill="black" stroke="black" points="2063.77,-22.39 2053.76,-25.85 2063.74,-29.39 2063.77,-22.39"/>
<text text-anchor="middle" x="3650.5" y="-64.3" font-family="Times,serif" font-size="14.00">setreuid(1000,1000)</text>
</g>
<!-- R=0,E=1000,S=0&#45;&gt;R=1000,E=1000,S=1000 -->
<g id="edge48" class="edge">
<title>R=0,E=1000,S=0&#45;&gt;R=1000,E=1000,S=1000</title>
<path fill="none" stroke="black" d="M3402.59,-107.4C3359.08,-103.24 3307.35,-94.31 3264,-75.5 3254.13,-71.22 3255.12,-64.16 3245,-60.5 3190.26,-40.68 2391.52,-30.28 2063.27,-26.83"/>
<polygon fill="black" stroke="black" points="2063.26,-23.33 2053.22,-26.72 2063.19,-30.33 2063.26,-23.33"/>
<text text-anchor="middle" x="3361.5" y="-64.3" font-family="Times,serif" font-size="14.00">setresuid(1000,1000,1000)</text>
</g>
<!-- R=0,E=1000,S=0&#45;&gt;R=1000,E=0,S=1000 -->
<g id="edge43" class="edge">
<title>R=0,E=1000,S=0&#45;&gt;R=1000,E=0,S=1000</title>
<path fill="none" stroke="black" d="M3400.52,-113.42C3194.83,-115.83 2711.95,-123.91 2550,-147.5 2491.86,-155.97 2474.69,-154.51 2422,-180.5 2398.72,-191.98 2399.32,-205.08 2376,-216.5 2313.89,-246.92 2237.84,-263.96 2177.86,-273.38"/>
<polygon fill="black" stroke="black" points="2176.97,-269.98 2167.61,-274.94 2178.02,-276.9 2176.97,-269.98"/>
<text text-anchor="middle" x="2482" y="-194.8" font-family="Times,serif" font-size="14.00">setreuid(1000,0)</text>
</g>
<!-- R=0,E=1000,S=0&#45;&gt;R=1000,E=0,S=1000 -->
<g id="edge45" class="edge">
<title>R=0,E=1000,S=0&#45;&gt;R=1000,E=0,S=1000</title>
<path fill="none" stroke="black" d="M3400.2,-112.8C3258.95,-114.18 2985.05,-120.51 2754,-147.5 2674.95,-156.73 2648.39,-143.37 2578,-180.5 2557.99,-191.06 2562.2,-206.3 2542,-216.5 2454.54,-260.69 2420.96,-235.32 2324,-249.5 2272.49,-257.03 2214.92,-265.17 2168.23,-271.71"/>
<polygon fill="black" stroke="black" points="2167.55,-268.27 2158.13,-273.12 2168.52,-275.2 2167.55,-268.27"/>
<text text-anchor="middle" x="2662" y="-194.8" font-family="Times,serif" font-size="14.00">setresuid(1000,0,1000)</text>
</g>
<!-- R=0,E=1000,S=0&#45;&gt;R=1000,E=0,S=0 -->
<g id="edge44" class="edge">
<title>R=0,E=1000,S=0&#45;&gt;R=1000,E=0,S=0</title>
<path fill="none" stroke="black" d="M3504.3,-129.67C3515.06,-152.15 3528.92,-191.6 3509,-216.5 3486.23,-244.96 3462.57,-220.32 3429,-234.5 3417.76,-239.25 3417.39,-245.12 3406,-249.5 3358.13,-267.92 3335.46,-240.26 3292,-267.5 3260.34,-287.34 3276.13,-317.44 3244,-336.5 3208.01,-357.85 3105.2,-366.21 3025.14,-369.47"/>
<polygon fill="black" stroke="black" points="3024.85,-365.97 3015,-369.86 3025.12,-372.97 3024.85,-365.97"/>
<text text-anchor="middle" x="3499.5" y="-238.3" font-family="Times,serif" font-size="14.00">setresuid(1000,0,0)</text>
</g>
<!-- R=0,E=1000,S=0&#45;&gt;R=1000,E=1000,S=0 -->
<g id="edge47" class="edge">
<title>R=0,E=1000,S=0&#45;&gt;R=1000,E=1000,S=0</title>
<path fill="none" stroke="black" d="M3564.56,-123.76C3590.37,-129.48 3615.28,-137.38 3623,-147.5 3628.42,-154.6 3635.21,-276.23 3615,-303.5 3603.87,-318.51 3591.49,-309.7 3577,-321.5 3532.95,-357.36 3549.81,-396.21 3500,-423.5 3471.93,-438.88 3295.04,-448.97 3172.65,-454.2"/>
<polygon fill="black" stroke="black" points="3172.31,-450.71 3162.46,-454.63 3172.6,-457.7 3172.31,-450.71"/>
<text text-anchor="middle" x="3709" y="-281.8" font-family="Times,serif" font-size="14.00">setresuid(1000,1000,0)</text>
</g>
<!-- R=0,E=1000,S=1000&#45;&gt;R=0,E=0,S=0 -->
<g id="edge51" class="edge">
<title>R=0,E=1000,S=1000&#45;&gt;R=0,E=0,S=0</title>
<path fill="none" stroke="black" d="M1344.52,-204.43C1272.93,-209.17 1185.87,-218.12 1153,-234.5 1115.02,-253.43 1124.74,-284.1 1087,-303.5 1036.69,-329.36 1015.85,-307.68 961,-321.5 506.49,-436.03 677.85,-305.13 724,-423.5 743.08,-472.44 757.26,-486.53 804,-510.5 1090.02,-657.2 1201.47,-573.22 1522,-597.5 1915.1,-627.27 2386.07,-631.92 2577.59,-632.5"/>
<polygon fill="black" stroke="black" points="2577.6,-636 2587.6,-632.53 2577.61,-629 2577.6,-636"/>
<text text-anchor="middle" x="770.5" y="-412.3" font-family="Times,serif" font-size="14.00">setreuid(0,0)</text>
</g>
<!-- R=0,E=1000,S=1000&#45;&gt;R=0,E=0,S=0 -->
<g id="edge52" class="edge">
<title>R=0,E=1000,S=1000&#45;&gt;R=0,E=0,S=0</title>
<path fill="none" stroke="black" d="M1338.33,-199.13C1141.44,-199.33 742.78,-203.69 607,-234.5 570.69,-242.74 559.08,-244.25 530,-267.5 500.42,-291.15 505.67,-308.65 480,-336.5 458.58,-359.74 377.22,-371.08 396,-423.5 429.75,-517.74 448.85,-553.99 539,-597.5 585.61,-620 2182.96,-629.94 2577.54,-632.06"/>
<polygon fill="black" stroke="black" points="2577.74,-635.56 2587.76,-632.11 2577.77,-628.56 2577.74,-635.56"/>
<text text-anchor="middle" x="453" y="-412.3" font-family="Times,serif" font-size="14.00">setresuid(0,0,0)</text>
</g>
<!-- R=0,E=1000,S=1000&#45;&gt;R=0,E=0,S=1000 -->
<g id="edge49" class="edge">
<title>R=0,E=1000,S=1000&#45;&gt;R=0,E=0,S=1000</title>
<path fill="none" stroke="black" d="M1378.15,-212.25C1360.79,-217.39 1342.98,-224.54 1328,-234.5 1260.2,-279.57 1201.96,-314.83 1232,-390.5 1240.08,-410.84 1316.97,-494.32 1351,-510.5 1386.67,-527.46 1428.95,-536.43 1466.73,-541.11"/>
<polygon fill="black" stroke="black" points="1466.41,-544.59 1476.74,-542.26 1467.21,-537.64 1466.41,-544.59"/>
<text text-anchor="middle" x="1264" y="-368.8" font-family="Times,serif" font-size="14.00">setuid(0)</text>
</g>
<!-- R=0,E=1000,S=1000&#45;&gt;R=0,E=0,S=1000 -->
<g id="edge50" class="edge">
<title>R=0,E=1000,S=1000&#45;&gt;R=0,E=0,S=1000</title>
<path fill="none" stroke="black" d="M1344.03,-204.05C1278.27,-208.54 1201.35,-217.34 1173,-234.5 1141.04,-253.84 1155.4,-281.79 1125,-303.5 1057.69,-351.58 995.84,-288.48 946,-354.5 936.36,-367.27 941.32,-375.2 946,-390.5 964.82,-452.03 971.18,-478.48 1027,-510.5 1063.87,-531.65 1317.65,-540.37 1464.52,-543.68"/>
<polygon fill="black" stroke="black" points="1464.83,-547.18 1474.9,-543.9 1464.98,-540.18 1464.83,-547.18"/>
<text text-anchor="middle" x="982.5" y="-368.8" font-family="Times,serif" font-size="14.00">seteuid(0)</text>
</g>
<!-- R=0,E=1000,S=1000&#45;&gt;R=0,E=0,S=1000 -->
<g id="edge53" class="edge">
<title>R=0,E=1000,S=1000&#45;&gt;R=0,E=0,S=1000</title>
<path fill="none" stroke="black" d="M1379.84,-212.49C1354.84,-218.02 1326.81,-225.35 1302,-234.5 1275.6,-244.24 1093.35,-330.29 1079,-354.5 1070.84,-368.26 1070.52,-376.93 1079,-390.5 1143.46,-493.66 1208.72,-474.76 1325,-510.5 1371.97,-524.93 1425.89,-533.46 1471.07,-538.48"/>
<polygon fill="black" stroke="black" points="1470.85,-541.97 1481.17,-539.55 1471.6,-535.01 1470.85,-541.97"/>
<text text-anchor="middle" x="1149.5" y="-368.8" font-family="Times,serif" font-size="14.00">setresuid(0,0,1000)</text>
</g>
<!-- R=0,E=1000,S=1000&#45;&gt;R=0,E=1000,S=0 -->
<g id="edge55" class="edge">
<title>R=0,E=1000,S=1000&#45;&gt;R=0,E=1000,S=0</title>
<path fill="none" stroke="black" d="M1563.07,-196.59C1693.31,-194.38 1899.72,-186.98 1973,-162.5 1984.58,-158.63 1984.34,-151.11 1996,-147.5 2062.37,-126.92 3060.98,-116.32 3390.44,-113.37"/>
<polygon fill="black" stroke="black" points="3390.49,-116.87 3400.46,-113.28 3390.43,-109.87 3390.49,-116.87"/>
<text text-anchor="middle" x="2066.5" y="-151.3" font-family="Times,serif" font-size="14.00">setresuid(0,1000,0)</text>
</g>
<!-- R=0,E=1000,S=1000&#45;&gt;R=0,E=1000,S=1000 -->
<g id="edge54" class="edge">
<title>R=0,E=1000,S=1000&#45;&gt;R=0,E=1000,S=1000</title>
<path fill="none" stroke="black" d="M1562.79,-200.66C1574.17,-200.23 1581.44,-199.51 1581.44,-198.5 1581.44,-197.84 1578.31,-197.3 1572.94,-196.89"/>
<polygon fill="black" stroke="black" points="1572.97,-193.38 1562.79,-196.34 1572.59,-200.37 1572.97,-193.38"/>
<text text-anchor="middle" x="1641.44" y="-194.8" font-family="Times,serif" font-size="14.00">setreuid(0,1000)</text>
</g>
<!-- R=0,E=1000,S=1000&#45;&gt;R=0,E=1000,S=1000 -->
<g id="edge56" class="edge">
<title>R=0,E=1000,S=1000&#45;&gt;R=0,E=1000,S=1000</title>
<path fill="none" stroke="black" d="M1558.99,-203.52C1628.01,-204.4 1701.44,-202.73 1701.44,-198.5 1701.44,-194.47 1635,-192.76 1569.12,-193.37"/>
<polygon fill="black" stroke="black" points="1568.95,-189.87 1558.99,-193.48 1569.03,-196.87 1568.95,-189.87"/>
<text text-anchor="middle" x="1785.44" y="-194.8" font-family="Times,serif" font-size="14.00">setresuid(0,1000,1000)</text>
</g>
<!-- R=0,E=1000,S=1000&#45;&gt;R=0,E=1000,S=1000 -->
<g id="edge58" class="edge">
<title>R=0,E=1000,S=1000&#45;&gt;R=0,E=1000,S=1000</title>
<path fill="none" stroke="black" d="M1556.38,-204.88C1682.44,-208.16 1869.44,-206.04 1869.44,-198.5 1869.44,-191.16 1692.17,-188.95 1566.47,-191.87"/>
<polygon fill="black" stroke="black" points="1566.29,-188.37 1556.38,-192.12 1566.46,-195.37 1566.29,-188.37"/>
<text text-anchor="middle" x="1919.44" y="-194.8" font-family="Times,serif" font-size="14.00">seteuid(1000)</text>
</g>
<!-- R=0,E=1000,S=1000&#45;&gt;R=1000,E=1000,S=1000 -->
<g id="edge57" class="edge">
<title>R=0,E=1000,S=1000&#45;&gt;R=1000,E=1000,S=1000</title>
<path fill="none" stroke="black" d="M1404.94,-181.91C1358.93,-163.76 1298.68,-131.4 1326,-93.5 1353.12,-55.87 1379.51,-69.53 1425,-60.5 1544.62,-36.76 1683.16,-28.54 1783.86,-25.95"/>
<polygon fill="black" stroke="black" points="1784.19,-29.44 1794.1,-25.7 1784.02,-22.44 1784.19,-29.44"/>
<text text-anchor="middle" x="1371.5" y="-107.8" font-family="Times,serif" font-size="14.00">setuid(1000)</text>
</g>
<!-- R=0,E=1000,S=1000&#45;&gt;R=1000,E=1000,S=1000 -->
<g id="edge62" class="edge">
<title>R=0,E=1000,S=1000&#45;&gt;R=1000,E=1000,S=1000</title>
<path fill="none" stroke="black" d="M1445.47,-180.21C1439.42,-157.59 1433.02,-117.98 1453,-93.5 1493.81,-43.5 1660.23,-29.2 1783.75,-25.65"/>
<polygon fill="black" stroke="black" points="1784.16,-29.14 1794.06,-25.38 1783.97,-22.15 1784.16,-29.14"/>
<text text-anchor="middle" x="1526.5" y="-107.8" font-family="Times,serif" font-size="14.00">setreuid(1000,1000)</text>
</g>
<!-- R=0,E=1000,S=1000&#45;&gt;R=1000,E=1000,S=1000 -->
<g id="edge64" class="edge">
<title>R=0,E=1000,S=1000&#45;&gt;R=1000,E=1000,S=1000</title>
<path fill="none" stroke="black" d="M1339.35,-196.27C1219.55,-191.08 1054.8,-170.37 1121,-93.5 1163.35,-44.32 1566.18,-30.71 1784.67,-26.94"/>
<polygon fill="black" stroke="black" points="1784.99,-30.44 1794.93,-26.77 1784.88,-23.44 1784.99,-30.44"/>
<text text-anchor="middle" x="1218.5" y="-107.8" font-family="Times,serif" font-size="14.00">setresuid(1000,1000,1000)</text>
</g>
<!-- R=0,E=1000,S=1000&#45;&gt;R=1000,E=0,S=1000 -->
<g id="edge59" class="edge">
<title>R=0,E=1000,S=1000&#45;&gt;R=1000,E=0,S=1000</title>
<path fill="none" stroke="black" d="M1561.56,-202.07C1613.39,-206.12 1675.22,-215.12 1728,-234.5 1739.46,-238.7 1739.51,-245.4 1751,-249.5 1771.31,-256.74 1882.05,-267.72 1968.69,-275.45"/>
<polygon fill="black" stroke="black" points="1968.6,-278.95 1978.87,-276.35 1969.21,-271.98 1968.6,-278.95"/>
<text text-anchor="middle" x="1811" y="-238.3" font-family="Times,serif" font-size="14.00">setreuid(1000,0)</text>
</g>
<!-- R=0,E=1000,S=1000&#45;&gt;R=1000,E=0,S=1000 -->
<g id="edge61" class="edge">
<title>R=0,E=1000,S=1000&#45;&gt;R=1000,E=0,S=1000</title>
<path fill="none" stroke="black" d="M1561.02,-202.58C1665.88,-206.61 1815.72,-215.53 1871,-234.5 1882.54,-238.46 1882.68,-244.93 1894,-249.5 1920.04,-260.02 1949.48,-267.43 1976.97,-272.64"/>
<polygon fill="black" stroke="black" points="1976.54,-276.12 1987,-274.46 1977.79,-269.23 1976.54,-276.12"/>
<text text-anchor="middle" x="1978" y="-238.3" font-family="Times,serif" font-size="14.00">setresuid(1000,0,1000)</text>
</g>
<!-- R=0,E=1000,S=1000&#45;&gt;R=1000,E=0,S=0 -->
<g id="edge60" class="edge">
<title>R=0,E=1000,S=1000&#45;&gt;R=1000,E=0,S=0</title>
<path fill="none" stroke="black" d="M1560.31,-202.9C1873.24,-212.91 2753.86,-243.1 2811,-267.5 2831.55,-276.27 2873.32,-319.26 2899.06,-347.15"/>
<polygon fill="black" stroke="black" points="2896.53,-349.57 2905.87,-354.58 2901.69,-344.84 2896.53,-349.57"/>
<text text-anchor="middle" x="2926.5" y="-281.8" font-family="Times,serif" font-size="14.00">setresuid(1000,0,0)</text>
</g>
<!-- R=0,E=1000,S=1000&#45;&gt;R=1000,E=1000,S=0 -->
<g id="edge63" class="edge">
<title>R=0,E=1000,S=1000&#45;&gt;R=1000,E=1000,S=0</title>
<path fill="none" stroke="black" d="M1479.62,-215.95C1504.38,-230.11 1536.71,-248.45 1540,-249.5 1613.67,-272.92 1636.31,-257.81 1713,-267.5 1820.88,-281.13 1847.1,-290.06 1955,-303.5 2034.34,-313.38 2055.48,-306.4 2134,-321.5 2295.21,-352.5 2327.23,-395.59 2489,-423.5 2510.78,-427.26 2781.04,-443.02 2939.74,-452.06"/>
<polygon fill="black" stroke="black" points="2939.85,-455.57 2950.03,-452.64 2940.24,-448.58 2939.85,-455.57"/>
<text text-anchor="middle" x="2281" y="-325.3" font-family="Times,serif" font-size="14.00">setresuid(1000,1000,0)</text>
</g>
<!-- R=1000,E=1000,S=1000&#45;&gt;R=1000,E=1000,S=1000 -->
<g id="edge113" class="edge">
<title>R=1000,E=1000,S=1000&#45;&gt;R=1000,E=1000,S=1000</title>
<path fill="none" stroke="black" d="M2053.88,-25.67C2065.03,-25.42 2071.99,-25.03 2071.99,-24.5 2071.99,-24.16 2069.13,-23.88 2064.15,-23.65"/>
<polygon fill="black" stroke="black" points="2063.98,-20.15 2053.88,-23.33 2063.76,-27.14 2063.98,-20.15"/>
<text text-anchor="middle" x="2103.99" y="-20.8" font-family="Times,serif" font-size="14.00">setuid(0)</text>
</g>
<!-- R=1000,E=1000,S=1000&#45;&gt;R=1000,E=1000,S=1000 -->
<g id="edge114" class="edge">
<title>R=1000,E=1000,S=1000&#45;&gt;R=1000,E=1000,S=1000</title>
<path fill="none" stroke="black" d="M2052.36,-27.5C2097.74,-27.48 2135.99,-26.48 2135.99,-24.5 2135.99,-22.67 2103.34,-21.68 2062.59,-21.52"/>
<polygon fill="black" stroke="black" points="2062.37,-18.02 2052.36,-21.5 2062.35,-25.02 2062.37,-18.02"/>
<text text-anchor="middle" x="2172.49" y="-20.8" font-family="Times,serif" font-size="14.00">seteuid(0)</text>
</g>
<!-- R=1000,E=1000,S=1000&#45;&gt;R=1000,E=1000,S=1000 -->
<g id="edge115" class="edge">
<title>R=1000,E=1000,S=1000&#45;&gt;R=1000,E=1000,S=1000</title>
<path fill="none" stroke="black" d="M2050.2,-28.81C2128.05,-29.55 2208.99,-28.11 2208.99,-24.5 2208.99,-21.05 2134.86,-19.58 2060.25,-20.1"/>
<polygon fill="black" stroke="black" points="2060.17,-16.6 2050.2,-20.19 2060.23,-23.6 2060.17,-16.6"/>
<text text-anchor="middle" x="2255.49" y="-20.8" font-family="Times,serif" font-size="14.00">setreuid(0,0)</text>
</g>
<!-- R=1000,E=1000,S=1000&#45;&gt;R=1000,E=1000,S=1000 -->
<g id="edge116" class="edge">
<title>R=1000,E=1000,S=1000&#45;&gt;R=1000,E=1000,S=1000</title>
<path fill="none" stroke="black" d="M2048.32,-29.77C2160.94,-31.65 2301.99,-29.89 2301.99,-24.5 2301.99,-19.27 2169.35,-17.46 2058.62,-19.06"/>
<polygon fill="black" stroke="black" points="2058.27,-15.57 2048.32,-19.22 2058.37,-22.57 2058.27,-15.57"/>
<text text-anchor="middle" x="2358.99" y="-20.8" font-family="Times,serif" font-size="14.00">setresuid(0,0,0)</text>
</g>
<!-- R=1000,E=1000,S=1000&#45;&gt;R=1000,E=1000,S=1000 -->
<g id="edge117" class="edge">
<title>R=1000,E=1000,S=1000&#45;&gt;R=1000,E=1000,S=1000</title>
<path fill="none" stroke="black" d="M2046.89,-30.48C2195.87,-33.74 2415.99,-31.75 2415.99,-24.5 2415.99,-17.41 2205.65,-15.35 2057.04,-18.31"/>
<polygon fill="black" stroke="black" points="2056.82,-14.81 2046.89,-18.52 2056.97,-21.81 2056.82,-14.81"/>
<text text-anchor="middle" x="2486.49" y="-20.8" font-family="Times,serif" font-size="14.00">setresuid(0,0,1000)</text>
</g>
<!-- R=1000,E=1000,S=1000&#45;&gt;R=1000,E=1000,S=1000 -->
<g id="edge118" class="edge">
<title>R=1000,E=1000,S=1000&#45;&gt;R=1000,E=1000,S=1000</title>
<path fill="none" stroke="black" d="M2045.43,-30.98C2233.27,-35.83 2556.99,-33.68 2556.99,-24.5 2556.99,-15.49 2244.55,-13.24 2055.46,-17.77"/>
<polygon fill="black" stroke="black" points="2055.34,-14.27 2045.43,-18.02 2055.51,-21.27 2055.34,-14.27"/>
<text text-anchor="middle" x="2616.99" y="-20.8" font-family="Times,serif" font-size="14.00">setreuid(0,1000)</text>
</g>
<!-- R=1000,E=1000,S=1000&#45;&gt;R=1000,E=1000,S=1000 -->
<g id="edge119" class="edge">
<title>R=1000,E=1000,S=1000&#45;&gt;R=1000,E=1000,S=1000</title>
<path fill="none" stroke="black" d="M2044,-31.49C2261.29,-37.88 2676.99,-35.55 2676.99,-24.5 2676.99,-13.62 2273.78,-11.19 2054,-17.22"/>
<polygon fill="black" stroke="black" points="2053.89,-13.73 2044,-17.51 2054.09,-20.72 2053.89,-13.73"/>
<text text-anchor="middle" x="2747.49" y="-20.8" font-family="Times,serif" font-size="14.00">setresuid(0,1000,0)</text>
</g>
<!-- R=1000,E=1000,S=1000&#45;&gt;R=1000,E=1000,S=1000 -->
<g id="edge120" class="edge">
<title>R=1000,E=1000,S=1000&#45;&gt;R=1000,E=1000,S=1000</title>
<path fill="none" stroke="black" d="M2042.66,-31.88C2291.29,-39.92 2817.99,-37.46 2817.99,-24.5 2817.99,-11.72 2305.59,-9.15 2053.01,-16.79"/>
<polygon fill="black" stroke="black" points="2052.54,-13.3 2042.66,-17.11 2052.76,-20.3 2052.54,-13.3"/>
<text text-anchor="middle" x="2901.99" y="-20.8" font-family="Times,serif" font-size="14.00">setresuid(0,1000,1000)</text>
</g>
<!-- R=1000,E=1000,S=1000&#45;&gt;R=1000,E=1000,S=1000 -->
<g id="edge121" class="edge">
<title>R=1000,E=1000,S=1000&#45;&gt;R=1000,E=1000,S=1000</title>
<path fill="none" stroke="black" d="M2041.75,-32.19C2324.43,-41.97 2985.99,-39.41 2985.99,-24.5 2985.99,-9.77 2339.85,-7.09 2051.84,-16.47"/>
<polygon fill="black" stroke="black" points="2051.63,-12.98 2041.75,-16.81 2051.86,-19.98 2051.63,-12.98"/>
<text text-anchor="middle" x="3031.49" y="-20.8" font-family="Times,serif" font-size="14.00">setuid(1000)</text>
</g>
<!-- R=1000,E=1000,S=1000&#45;&gt;R=1000,E=1000,S=1000 -->
<g id="edge122" class="edge">
<title>R=1000,E=1000,S=1000&#45;&gt;R=1000,E=1000,S=1000</title>
<path fill="none" stroke="black" d="M2040.09,-32.64C2339.63,-43.98 3076.99,-41.26 3076.99,-24.5 3076.99,-7.93 2356.1,-5.09 2050.35,-15.98"/>
<polygon fill="black" stroke="black" points="2049.96,-12.49 2040.09,-16.36 2050.22,-19.49 2049.96,-12.49"/>
<text text-anchor="middle" x="3126.99" y="-20.8" font-family="Times,serif" font-size="14.00">seteuid(1000)</text>
</g>
<!-- R=1000,E=1000,S=1000&#45;&gt;R=1000,E=1000,S=1000 -->
<g id="edge123" class="edge">
<title>R=1000,E=1000,S=1000&#45;&gt;R=1000,E=1000,S=1000</title>
<path fill="none" stroke="black" d="M2038.56,-33.03C2355.72,-45.99 3176.99,-43.14 3176.99,-24.5 3176.99,-6.06 2373.27,-3.07 2048.95,-15.55"/>
<polygon fill="black" stroke="black" points="2048.41,-12.07 2038.56,-15.97 2048.69,-19.07 2048.41,-12.07"/>
<text text-anchor="middle" x="3236.99" y="-20.8" font-family="Times,serif" font-size="14.00">setreuid(1000,0)</text>
</g>
<!-- R=1000,E=1000,S=1000&#45;&gt;R=1000,E=1000,S=1000 -->
<g id="edge124" class="edge">
<title>R=1000,E=1000,S=1000&#45;&gt;R=1000,E=1000,S=1000</title>
<path fill="none" stroke="black" d="M2037.19,-33.35C2374.5,-48 3296.99,-45.05 3296.99,-24.5 3296.99,-4.15 2392.43,-1.05 2047.24,-15.22"/>
<polygon fill="black" stroke="black" points="2047.03,-11.73 2037.19,-15.65 2047.33,-18.72 2047.03,-11.73"/>
<text text-anchor="middle" x="3367.49" y="-20.8" font-family="Times,serif" font-size="14.00">setresuid(1000,0,0)</text>
</g>
<!-- R=1000,E=1000,S=1000&#45;&gt;R=1000,E=1000,S=1000 -->
<g id="edge125" class="edge">
<title>R=1000,E=1000,S=1000&#45;&gt;R=1000,E=1000,S=1000</title>
<path fill="none" stroke="black" d="M2036.41,-33.62C2396.58,-50.02 3437.99,-46.98 3437.99,-24.5 3437.99,-2.22 2415.81,0.97 2046.61,-14.93"/>
<polygon fill="black" stroke="black" points="2046.25,-11.44 2036.41,-15.38 2046.56,-18.43 2046.25,-11.44"/>
<text text-anchor="middle" x="3521.99" y="-20.8" font-family="Times,serif" font-size="14.00">setresuid(1000,0,1000)</text>
</g>
<!-- R=1000,E=1000,S=1000&#45;&gt;R=1000,E=1000,S=1000 -->
<g id="edge126" class="edge">
<title>R=1000,E=1000,S=1000&#45;&gt;R=1000,E=1000,S=1000</title>
<path fill="none" stroke="black" d="M2035.41,-33.81C2421.01,-52.05 3605.99,-48.94 3605.99,-24.5 3605.99,-0.26 2441.18,2.99 2045.47,-14.73"/>
<polygon fill="black" stroke="black" points="2045.23,-11.23 2035.41,-15.19 2045.56,-18.23 2045.23,-11.23"/>
<text text-anchor="middle" x="3679.49" y="-20.8" font-family="Times,serif" font-size="14.00">setreuid(1000,1000)</text>
</g>
<!-- R=1000,E=1000,S=1000&#45;&gt;R=1000,E=1000,S=1000 -->
<g id="edge127" class="edge">
<title>R=1000,E=1000,S=1000&#45;&gt;R=1000,E=1000,S=1000</title>
<path fill="none" stroke="black" d="M2034.36,-34.03C2440.95,-54.06 3752.99,-50.89 3752.99,-24.5 3752.99,1.68 2462,5.01 2044.36,-14.49"/>
<polygon fill="black" stroke="black" points="2044.18,-11 2034.36,-14.97 2044.52,-17.99 2044.18,-11"/>
<text text-anchor="middle" x="3836.99" y="-20.8" font-family="Times,serif" font-size="14.00">setresuid(1000,1000,0)</text>
</g>
<!-- R=1000,E=1000,S=1000&#45;&gt;R=1000,E=1000,S=1000 -->
<g id="edge128" class="edge">
<title>R=1000,E=1000,S=1000&#45;&gt;R=1000,E=1000,S=1000</title>
<path fill="none" stroke="black" d="M2033.72,-34.22C2463.58,-56.08 3920.99,-52.84 3920.99,-24.5 3920.99,3.62 2486.27,7.03 2043.98,-14.28"/>
<polygon fill="black" stroke="black" points="2043.54,-10.79 2033.72,-14.78 2043.88,-17.79 2043.54,-10.79"/>
<text text-anchor="middle" x="4018.49" y="-20.8" font-family="Times,serif" font-size="14.00">setresuid(1000,1000,1000)</text>
</g>
<!-- R=1000,E=0,S=1000&#45;&gt;R=0,E=0,S=0 -->
<g id="edge81" class="edge">
<title>R=1000,E=0,S=1000&#45;&gt;R=0,E=0,S=0</title>
<path fill="none" stroke="black" d="M2182.69,-291.31C2250.19,-295.93 2330.14,-304.79 2360,-321.5 2394.22,-340.65 2383.99,-366.5 2415,-390.5 2443.48,-412.54 2454.27,-413.97 2489,-423.5 2522.23,-432.62 2618.66,-417.12 2643,-441.5 2665.37,-463.91 2666.67,-558.01 2665.84,-605.23"/>
<polygon fill="black" stroke="black" points="2662.34,-605.28 2665.61,-615.35 2669.33,-605.43 2662.34,-605.28"/>
<text text-anchor="middle" x="2689" y="-455.8" font-family="Times,serif" font-size="14.00">setuid(0)</text>
</g>
<!-- R=1000,E=0,S=1000&#45;&gt;R=0,E=0,S=0 -->
<g id="edge83" class="edge">
<title>R=1000,E=0,S=1000&#45;&gt;R=0,E=0,S=0</title>
<path fill="none" stroke="black" d="M1987.7,-296.78C1958.01,-302.19 1930.09,-310.13 1921,-321.5 1884.43,-367.25 1989.4,-358.55 2020,-408.5 2064.43,-481.02 1986.91,-540.46 2050,-597.5 2069.27,-614.92 2413.59,-626.06 2578.42,-630.42"/>
<polygon fill="black" stroke="black" points="2578.45,-633.92 2588.53,-630.68 2578.63,-626.92 2578.45,-633.92"/>
<text text-anchor="middle" x="2080.5" y="-455.8" font-family="Times,serif" font-size="14.00">setreuid(0,0)</text>
</g>
<!-- R=1000,E=0,S=1000&#45;&gt;R=0,E=0,S=0 -->
<g id="edge84" class="edge">
<title>R=1000,E=0,S=1000&#45;&gt;R=0,E=0,S=0</title>
<path fill="none" stroke="black" d="M2000.05,-298.82C1975.8,-304.41 1953.32,-311.95 1946,-321.5 1941.94,-326.79 1942.63,-330.74 1946,-336.5 1954.24,-350.59 1963.8,-346.47 1978,-354.5 2046.09,-393.01 2091.67,-373.88 2131,-441.5 2139.05,-455.33 2140.32,-464.49 2131,-477.5 2114.31,-500.79 2052.9,-478.87 2078,-510.5 2139.45,-587.93 2432.86,-617.62 2580.19,-627.79"/>
<polygon fill="black" stroke="black" points="2580.33,-631.31 2590.54,-628.49 2580.8,-624.32 2580.33,-631.31"/>
<text text-anchor="middle" x="2194" y="-455.8" font-family="Times,serif" font-size="14.00">setresuid(0,0,0)</text>
</g>
<!-- R=1000,E=0,S=1000&#45;&gt;R=0,E=0,S=1000 -->
<g id="edge85" class="edge">
<title>R=1000,E=0,S=1000&#45;&gt;R=0,E=0,S=1000</title>
<path fill="none" stroke="black" d="M1971.83,-292.4C1939.74,-297.4 1905.19,-306.19 1876,-321.5 1837.87,-341.5 1846.41,-371.04 1808,-390.5 1758.72,-415.47 1735.74,-386.64 1685,-408.5 1675.12,-412.76 1675.37,-418.21 1666,-423.5 1646.15,-434.69 1634.75,-426.06 1618,-441.5 1595.6,-462.14 1582.49,-495.14 1575.56,-518.42"/>
<polygon fill="black" stroke="black" points="1572.1,-517.78 1572.8,-528.35 1578.85,-519.66 1572.1,-517.78"/>
<text text-anchor="middle" x="1755.5" y="-412.3" font-family="Times,serif" font-size="14.00">setresuid(0,0,1000)</text>
</g>
<!-- R=1000,E=0,S=1000&#45;&gt;R=0,E=1000,S=0 -->
<g id="edge86" class="edge">
<title>R=1000,E=0,S=1000&#45;&gt;R=0,E=1000,S=0</title>
<path fill="none" stroke="black" d="M2168.69,-275.23C2238.81,-268.2 2337.46,-258.29 2424,-249.5 2567.12,-234.97 2616.07,-278.26 2746,-216.5 2766.44,-206.78 2761.53,-190.14 2782,-180.5 2887.19,-130.95 3219.23,-117.5 3390.52,-113.86"/>
<polygon fill="black" stroke="black" points="3390.64,-117.36 3400.56,-113.65 3390.49,-110.36 3390.64,-117.36"/>
<text text-anchor="middle" x="2842" y="-194.8" font-family="Times,serif" font-size="14.00">setreuid(0,1000)</text>
</g>
<!-- R=1000,E=0,S=1000&#45;&gt;R=0,E=1000,S=0 -->
<g id="edge87" class="edge">
<title>R=1000,E=0,S=1000&#45;&gt;R=0,E=1000,S=0</title>
<path fill="none" stroke="black" d="M2153.35,-272.31C2180.1,-266.6 2205.72,-258.96 2215,-249.5 2237.05,-227.03 2207.26,-201.18 2231,-180.5 2264.48,-151.34 2387.21,-174.36 2430,-162.5 2444.75,-158.41 2446.14,-151.17 2461,-147.5 2549.32,-125.68 3145.41,-116.47 3390.29,-113.58"/>
<polygon fill="black" stroke="black" points="3390.66,-117.08 3400.62,-113.46 3390.58,-110.08 3390.66,-117.08"/>
<text text-anchor="middle" x="2301.5" y="-194.8" font-family="Times,serif" font-size="14.00">setresuid(0,1000,0)</text>
</g>
<!-- R=1000,E=0,S=1000&#45;&gt;R=0,E=1000,S=1000 -->
<g id="edge88" class="edge">
<title>R=1000,E=0,S=1000&#45;&gt;R=0,E=1000,S=1000</title>
<path fill="none" stroke="black" d="M1981.81,-275.53C1950.69,-272.73 1915.88,-269.78 1884,-267.5 1811.19,-262.28 1624.28,-275.32 1556,-249.5 1545.94,-245.69 1546.3,-239.91 1537,-234.5 1527.2,-228.79 1516.28,-223.57 1505.61,-219.01"/>
<polygon fill="black" stroke="black" points="1506.91,-215.76 1496.33,-215.18 1504.23,-222.23 1506.91,-215.76"/>
<text text-anchor="middle" x="1640" y="-238.3" font-family="Times,serif" font-size="14.00">setresuid(0,1000,1000)</text>
</g>
<!-- R=1000,E=0,S=1000&#45;&gt;R=1000,E=1000,S=1000 -->
<g id="edge89" class="edge">
<title>R=1000,E=0,S=1000&#45;&gt;R=1000,E=1000,S=1000</title>
<path fill="none" stroke="black" d="M2085.54,-267.37C2089.73,-257.72 2093.08,-245.43 2090,-234.5 2082.38,-207.42 2081.19,-194.85 2057,-180.5 2021.6,-159.5 1715.39,-192.3 1687,-162.5 1631.39,-104.12 1753.55,-62.95 1842.3,-41.82"/>
<polygon fill="black" stroke="black" points="1843.19,-45.21 1852.13,-39.53 1841.6,-38.39 1843.19,-45.21"/>
<text text-anchor="middle" x="1732.5" y="-151.3" font-family="Times,serif" font-size="14.00">setuid(1000)</text>
</g>
<!-- R=1000,E=0,S=1000&#45;&gt;R=1000,E=1000,S=1000 -->
<g id="edge90" class="edge">
<title>R=1000,E=0,S=1000&#45;&gt;R=1000,E=1000,S=1000</title>
<path fill="none" stroke="black" d="M2093.88,-267.49C2119.46,-241.02 2160.89,-188.72 2137,-147.5 2105.88,-93.81 2041.25,-61.73 1991.3,-44.04"/>
<polygon fill="black" stroke="black" points="1992.43,-40.73 1981.83,-40.8 1990.16,-47.35 1992.43,-40.73"/>
<text text-anchor="middle" x="2192" y="-151.3" font-family="Times,serif" font-size="14.00">seteuid(1000)</text>
</g>
<!-- R=1000,E=0,S=1000&#45;&gt;R=1000,E=1000,S=1000 -->
<g id="edge94" class="edge">
<title>R=1000,E=0,S=1000&#45;&gt;R=1000,E=1000,S=1000</title>
<path fill="none" stroke="black" d="M2102.17,-267.82C2110.81,-262.16 2120.41,-255.69 2129,-249.5 2169.33,-220.45 2176.27,-208.98 2217,-180.5 2229.43,-171.81 2238.63,-175.76 2246,-162.5 2249.24,-156.67 2249.59,-153.12 2246,-147.5 2202.72,-79.79 2116.11,-49.55 2043.6,-36.1"/>
<polygon fill="black" stroke="black" points="2043.93,-32.6 2033.47,-34.31 2042.71,-39.49 2043.93,-32.6"/>
<text text-anchor="middle" x="2321.5" y="-151.3" font-family="Times,serif" font-size="14.00">setreuid(1000,1000)</text>
</g>
<!-- R=1000,E=0,S=1000&#45;&gt;R=1000,E=1000,S=1000 -->
<g id="edge96" class="edge">
<title>R=1000,E=0,S=1000&#45;&gt;R=1000,E=1000,S=1000</title>
<path fill="none" stroke="black" d="M2073.15,-267.09C2071.03,-257.13 2067.53,-244.63 2062,-234.5 2046.61,-206.32 2043.07,-194.14 2014,-180.5 1986.98,-167.82 1497.75,-183.96 1477,-162.5 1472.37,-157.71 1472.64,-152.54 1477,-147.5 1495.06,-126.6 1573.72,-138.01 1600,-129.5 1632.91,-118.85 1638.29,-109.43 1669,-93.5 1697.41,-78.76 1702.71,-70.83 1733,-60.5 1760.69,-51.06 1791.55,-44 1820.25,-38.78"/>
<polygon fill="black" stroke="black" points="1821.06,-42.2 1830.3,-37.02 1819.85,-35.3 1821.06,-42.2"/>
<text text-anchor="middle" x="1574.5" y="-151.3" font-family="Times,serif" font-size="14.00">setresuid(1000,1000,1000)</text>
</g>
<!-- R=1000,E=0,S=1000&#45;&gt;R=1000,E=0,S=1000 -->
<g id="edge82" class="edge">
<title>R=1000,E=0,S=1000&#45;&gt;R=1000,E=0,S=1000</title>
<path fill="none" stroke="black" d="M2187.79,-287.66C2199.17,-287.23 2206.44,-286.51 2206.44,-285.5 2206.44,-284.84 2203.31,-284.3 2197.94,-283.89"/>
<polygon fill="black" stroke="black" points="2197.97,-280.38 2187.79,-283.34 2197.59,-287.37 2197.97,-280.38"/>
<text text-anchor="middle" x="2242.94" y="-281.8" font-family="Times,serif" font-size="14.00">seteuid(0)</text>
</g>
<!-- R=1000,E=0,S=1000&#45;&gt;R=1000,E=0,S=1000 -->
<g id="edge91" class="edge">
<title>R=1000,E=0,S=1000&#45;&gt;R=1000,E=0,S=1000</title>
<path fill="none" stroke="black" d="M2183.84,-290.71C2233.56,-291.06 2279.44,-289.32 2279.44,-285.5 2279.44,-281.94 2239.62,-280.19 2193.97,-280.25"/>
<polygon fill="black" stroke="black" points="2193.83,-276.75 2183.84,-280.29 2193.86,-283.75 2193.83,-276.75"/>
<text text-anchor="middle" x="2339.44" y="-281.8" font-family="Times,serif" font-size="14.00">setreuid(1000,0)</text>
</g>
<!-- R=1000,E=0,S=1000&#45;&gt;R=1000,E=0,S=1000 -->
<g id="edge93" class="edge">
<title>R=1000,E=0,S=1000&#45;&gt;R=1000,E=0,S=1000</title>
<path fill="none" stroke="black" d="M2180.18,-292.39C2276.71,-294.9 2399.44,-292.61 2399.44,-285.5 2399.44,-278.64 2285.19,-276.26 2190.45,-278.36"/>
<polygon fill="black" stroke="black" points="2190.09,-274.87 2180.18,-278.61 2190.26,-281.87 2190.09,-274.87"/>
<text text-anchor="middle" x="2483.44" y="-281.8" font-family="Times,serif" font-size="14.00">setresuid(1000,0,1000)</text>
</g>
<!-- R=1000,E=0,S=1000&#45;&gt;R=1000,E=0,S=0 -->
<g id="edge92" class="edge">
<title>R=1000,E=0,S=1000&#45;&gt;R=1000,E=0,S=0</title>
<path fill="none" stroke="black" d="M2188.42,-286.54C2331.19,-287.76 2568.95,-294.04 2652,-321.5 2663.59,-325.33 2663.56,-332.26 2675,-336.5 2732.18,-357.68 2750.65,-345.84 2811,-354.5 2820.61,-355.88 2830.69,-357.37 2840.68,-358.88"/>
<polygon fill="black" stroke="black" points="2840.2,-362.35 2850.62,-360.39 2841.26,-355.43 2840.2,-362.35"/>
<text text-anchor="middle" x="2745.5" y="-325.3" font-family="Times,serif" font-size="14.00">setresuid(1000,0,0)</text>
</g>
<!-- R=1000,E=0,S=1000&#45;&gt;R=1000,E=1000,S=0 -->
<g id="edge95" class="edge">
<title>R=1000,E=0,S=1000&#45;&gt;R=1000,E=1000,S=0</title>
<path fill="none" stroke="black" d="M2180.74,-292.11C2269.64,-297.72 2389.88,-307.52 2436,-321.5 2449.51,-325.6 2450.55,-332.21 2464,-336.5 2525.03,-355.95 2554.83,-317.33 2607,-354.5 2634.84,-374.34 2612.76,-404.23 2641,-423.5 2664.91,-439.81 2821.9,-449.45 2935.25,-454.35"/>
<polygon fill="black" stroke="black" points="2935.25,-457.85 2945.39,-454.78 2935.54,-450.86 2935.25,-457.85"/>
<text text-anchor="middle" x="2707" y="-368.8" font-family="Times,serif" font-size="14.00">setresuid(1000,1000,0)</text>
</g>
<!-- R=1000,E=0,S=0&#45;&gt;R=0,E=0,S=0 -->
<g id="edge65" class="edge">
<title>R=1000,E=0,S=0&#45;&gt;R=0,E=0,S=0</title>
<path fill="none" stroke="black" d="M3014.7,-375.56C3136.75,-379.03 3343.12,-387.81 3416,-408.5 3446.41,-417.13 3462.64,-414.46 3479,-441.5 3487.28,-455.19 3486.78,-463.52 3479,-477.5 3471.63,-490.76 3461.63,-485.76 3450,-495.5 3418.39,-521.97 3424.35,-545.04 3388,-564.5 3280.1,-622.27 2919.99,-631.53 2752.3,-632.63"/>
<polygon fill="black" stroke="black" points="2752.25,-629.13 2742.27,-632.68 2752.29,-636.13 2752.25,-629.13"/>
<text text-anchor="middle" x="3482" y="-499.3" font-family="Times,serif" font-size="14.00">setuid(0)</text>
</g>
<!-- R=1000,E=0,S=0&#45;&gt;R=0,E=0,S=0 -->
<g id="edge67" class="edge">
<title>R=1000,E=0,S=0&#45;&gt;R=0,E=0,S=0</title>
<path fill="none" stroke="black" d="M2846.75,-383.8C2829.75,-386.08 2811.76,-388.43 2795,-390.5 2759.27,-394.91 2658,-381.67 2634,-408.5 2603.08,-443.07 2703.28,-405.89 2733,-441.5 2743.25,-453.78 2741.17,-463.74 2733,-477.5 2724.47,-491.87 2709.94,-482.07 2700,-495.5 2672.46,-532.7 2692.31,-553.17 2679,-597.5 2678.17,-600.26 2677.21,-603.11 2676.19,-605.93"/>
<polygon fill="black" stroke="black" points="2672.92,-604.68 2672.6,-615.27 2679.46,-607.19 2672.92,-604.68"/>
<text text-anchor="middle" x="2746.5" y="-499.3" font-family="Times,serif" font-size="14.00">setreuid(0,0)</text>
</g>
<!-- R=1000,E=0,S=0&#45;&gt;R=0,E=0,S=0 -->
<g id="edge68" class="edge">
<title>R=1000,E=0,S=0&#45;&gt;R=0,E=0,S=0</title>
<path fill="none" stroke="black" d="M3015.94,-373.17C3146.9,-373.84 3375.58,-379.35 3453,-408.5 3502.43,-427.11 3540.56,-464.84 3514,-510.5 3467.29,-590.78 3415.14,-579.62 3324,-597.5 3217.12,-618.46 2905.49,-627.59 2752.21,-630.9"/>
<polygon fill="black" stroke="black" points="2751.82,-627.41 2741.89,-631.12 2751.97,-634.41 2751.82,-627.41"/>
<text text-anchor="middle" x="3577" y="-499.3" font-family="Times,serif" font-size="14.00">setresuid(0,0,0)</text>
</g>
<!-- R=1000,E=0,S=0&#45;&gt;R=0,E=0,S=1000 -->
<g id="edge69" class="edge">
<title>R=1000,E=0,S=0&#45;&gt;R=0,E=0,S=1000</title>
<path fill="none" stroke="black" d="M2848.82,-384.24C2831.24,-386.58 2812.47,-388.85 2795,-390.5 2769.19,-392.94 1886.67,-430.93 1863,-441.5 1842.34,-450.73 1846.62,-466.23 1827,-477.5 1774.55,-507.64 1708.48,-524.72 1656.33,-534.23"/>
<polygon fill="black" stroke="black" points="1655.67,-530.79 1646.43,-535.97 1656.89,-537.68 1655.67,-530.79"/>
<text text-anchor="middle" x="1933.5" y="-455.8" font-family="Times,serif" font-size="14.00">setresuid(0,0,1000)</text>
</g>
<!-- R=1000,E=0,S=0&#45;&gt;R=0,E=1000,S=0 -->
<g id="edge70" class="edge">
<title>R=1000,E=0,S=0&#45;&gt;R=0,E=1000,S=0</title>
<path fill="none" stroke="black" d="M3010.61,-366.46C3051.27,-361.86 3099.26,-353.1 3140,-336.5 3202.01,-311.23 3209.37,-289.59 3263,-249.5 3271.62,-243.06 3272.02,-238.51 3282,-234.5 3321.15,-218.79 3439.27,-244.3 3471,-216.5 3492.51,-197.65 3496.81,-163.72 3496.83,-139.75"/>
<polygon fill="black" stroke="black" points="3500.32,-139.44 3496.58,-129.53 3493.32,-139.61 3500.32,-139.44"/>
<text text-anchor="middle" x="3342" y="-238.3" font-family="Times,serif" font-size="14.00">setreuid(0,1000)</text>
</g>
<!-- R=1000,E=0,S=0&#45;&gt;R=0,E=1000,S=0 -->
<g id="edge71" class="edge">
<title>R=1000,E=0,S=0&#45;&gt;R=0,E=1000,S=0</title>
<path fill="none" stroke="black" d="M3006.22,-364.38C3046.36,-359.22 3088.39,-350.6 3102,-336.5 3133.87,-303.48 3083.99,-265.31 3118,-234.5 3169.96,-187.42 3373.05,-252.86 3433,-216.5 3461.28,-199.35 3478.21,-164 3487.07,-139.3"/>
<polygon fill="black" stroke="black" points="3490.4,-140.36 3490.28,-129.77 3483.77,-138.13 3490.4,-140.36"/>
<text text-anchor="middle" x="3188.5" y="-238.3" font-family="Times,serif" font-size="14.00">setresuid(0,1000,0)</text>
</g>
<!-- R=1000,E=0,S=0&#45;&gt;R=0,E=1000,S=1000 -->
<g id="edge72" class="edge">
<title>R=1000,E=0,S=0&#45;&gt;R=0,E=1000,S=1000</title>
<path fill="none" stroke="black" d="M2893.5,-355.18C2872.9,-343.77 2843.61,-329.23 2816,-321.5 2739.85,-300.19 2707.84,-342.4 2639,-303.5 2621.59,-293.66 2629.61,-276.98 2612,-267.5 2598.62,-260.3 2081.17,-235.39 2066,-234.5 1891.42,-224.26 1688.93,-212.82 1565.42,-205.89"/>
<polygon fill="black" stroke="black" points="1565.38,-202.38 1555.2,-205.32 1564.99,-209.37 1565.38,-202.38"/>
<text text-anchor="middle" x="2723" y="-281.8" font-family="Times,serif" font-size="14.00">setresuid(0,1000,1000)</text>
</g>
<!-- R=1000,E=0,S=0&#45;&gt;R=1000,E=1000,S=1000 -->
<g id="edge73" class="edge">
<title>R=1000,E=0,S=0&#45;&gt;R=1000,E=1000,S=1000</title>
<path fill="none" stroke="black" d="M2949.32,-355.26C2966.92,-343.42 2988.03,-325.61 2998,-303.5 3004.58,-288.91 3004.72,-282.02 2998,-267.5 2983.31,-235.73 2963.73,-240.23 2938,-216.5 2921.37,-201.16 2922.14,-190.81 2902,-180.5 2753.92,-104.71 2270.82,-54.93 2043.85,-35.15"/>
<polygon fill="black" stroke="black" points="2043.83,-31.63 2033.57,-34.25 2043.23,-38.61 2043.83,-31.63"/>
<text text-anchor="middle" x="2983.5" y="-194.8" font-family="Times,serif" font-size="14.00">setuid(1000)</text>
</g>
<!-- R=1000,E=0,S=0&#45;&gt;R=1000,E=1000,S=1000 -->
<g id="edge78" class="edge">
<title>R=1000,E=0,S=0&#45;&gt;R=1000,E=1000,S=1000</title>
<path fill="none" stroke="black" d="M2963.35,-356.25C2974.13,-351.08 2985.15,-344.52 2994,-336.5 3046.64,-288.77 3073.14,-236.19 3029,-180.5 2968.73,-104.47 2326.08,-52.51 2049.46,-33.51"/>
<polygon fill="black" stroke="black" points="2049.59,-30.01 2039.37,-32.82 2049.11,-37 2049.59,-30.01"/>
<text text-anchor="middle" x="3121.5" y="-194.8" font-family="Times,serif" font-size="14.00">setreuid(1000,1000)</text>
</g>
<!-- R=1000,E=0,S=0&#45;&gt;R=1000,E=1000,S=1000 -->
<g id="edge80" class="edge">
<title>R=1000,E=0,S=0&#45;&gt;R=1000,E=1000,S=1000</title>
<path fill="none" stroke="black" d="M2971.12,-357.17C2985.85,-351.83 3001.6,-344.96 3015,-336.5 3032.8,-325.25 3034.92,-319.16 3049,-303.5 3075.03,-274.54 3069.72,-254.72 3103,-234.5 3140.1,-211.96 3171.28,-249.9 3199,-216.5 3209.22,-204.19 3209.03,-192.97 3199,-180.5 3128.08,-92.31 2367.87,-46.52 2056.17,-31.34"/>
<polygon fill="black" stroke="black" points="2055.88,-27.82 2045.72,-30.83 2055.54,-34.81 2055.88,-27.82"/>
<text text-anchor="middle" x="3303.5" y="-194.8" font-family="Times,serif" font-size="14.00">setresuid(1000,1000,1000)</text>
</g>
<!-- R=1000,E=0,S=0&#45;&gt;R=1000,E=0,S=1000 -->
<g id="edge77" class="edge">
<title>R=1000,E=0,S=0&#45;&gt;R=1000,E=0,S=1000</title>
<path fill="none" stroke="black" d="M2852.78,-359.89C2838.98,-357.84 2824.55,-355.92 2811,-354.5 2738.62,-346.93 2553.16,-359.15 2484,-336.5 2472.4,-332.7 2472.53,-325.5 2461,-321.5 2413.36,-304.95 2288.99,-295.77 2194.38,-291.01"/>
<polygon fill="black" stroke="black" points="2194.33,-287.5 2184.17,-290.51 2193.98,-294.5 2194.33,-287.5"/>
<text text-anchor="middle" x="2568" y="-325.3" font-family="Times,serif" font-size="14.00">setresuid(1000,0,1000)</text>
</g>
<!-- R=1000,E=0,S=0&#45;&gt;R=1000,E=0,S=0 -->
<g id="edge66" class="edge">
<title>R=1000,E=0,S=0&#45;&gt;R=1000,E=0,S=0</title>
<path fill="none" stroke="black" d="M3015.29,-374.76C3026.54,-374.35 3033.89,-373.59 3033.89,-372.5 3033.89,-371.78 3030.73,-371.21 3025.37,-370.79"/>
<polygon fill="black" stroke="black" points="3025.46,-367.29 3015.29,-370.24 3025.08,-374.28 3025.46,-367.29"/>
<text text-anchor="middle" x="3070.39" y="-368.8" font-family="Times,serif" font-size="14.00">seteuid(0)</text>
</g>
<!-- R=1000,E=0,S=0&#45;&gt;R=1000,E=0,S=0 -->
<g id="edge75" class="edge">
<title>R=1000,E=0,S=0&#45;&gt;R=1000,E=0,S=0</title>
<path fill="none" stroke="black" d="M3012.27,-377.64C3060.3,-378.22 3106.89,-376.51 3106.89,-372.5 3106.89,-368.78 3066.62,-367.03 3022.37,-367.27"/>
<polygon fill="black" stroke="black" points="3022.24,-363.77 3012.27,-367.36 3022.3,-370.77 3022.24,-363.77"/>
<text text-anchor="middle" x="3166.89" y="-368.8" font-family="Times,serif" font-size="14.00">setreuid(1000,0)</text>
</g>
<!-- R=1000,E=0,S=0&#45;&gt;R=1000,E=0,S=0 -->
<g id="edge76" class="edge">
<title>R=1000,E=0,S=0&#45;&gt;R=1000,E=0,S=0</title>
<path fill="none" stroke="black" d="M3009.27,-379.12C3101.6,-382.05 3226.89,-379.84 3226.89,-372.5 3226.89,-365.42 3110.49,-363.12 3019.4,-365.58"/>
<polygon fill="black" stroke="black" points="3019.16,-362.08 3009.27,-365.87 3019.37,-369.08 3019.16,-362.08"/>
<text text-anchor="middle" x="3297.39" y="-368.8" font-family="Times,serif" font-size="14.00">setresuid(1000,0,0)</text>
</g>
<!-- R=1000,E=0,S=0&#45;&gt;R=1000,E=1000,S=0 -->
<g id="edge74" class="edge">
<title>R=1000,E=0,S=0&#45;&gt;R=1000,E=1000,S=0</title>
<path fill="none" stroke="black" d="M3012.83,-377.13C3062.68,-381.24 3117.28,-389.97 3133,-408.5 3143.59,-420.98 3133.58,-431.38 3117.56,-439.41"/>
<polygon fill="black" stroke="black" points="3115.83,-436.35 3108.13,-443.63 3118.69,-442.74 3115.83,-436.35"/>
<text text-anchor="middle" x="3187" y="-412.3" font-family="Times,serif" font-size="14.00">seteuid(1000)</text>
</g>
<!-- R=1000,E=0,S=0&#45;&gt;R=1000,E=1000,S=0 -->
<g id="edge79" class="edge">
<title>R=1000,E=0,S=0&#45;&gt;R=1000,E=1000,S=0</title>
<path fill="none" stroke="black" d="M3012.64,-377.37C3101.76,-382.11 3225.89,-391.65 3241,-408.5 3245.45,-413.46 3245.26,-418.37 3241,-423.5 3230.27,-436.42 3198.55,-444.6 3164.21,-449.77"/>
<polygon fill="black" stroke="black" points="3163.39,-446.35 3153.98,-451.21 3164.37,-453.28 3163.39,-446.35"/>
<text text-anchor="middle" x="3328" y="-412.3" font-family="Times,serif" font-size="14.00">setresuid(1000,1000,0)</text>
</g>
<!-- R=1000,E=1000,S=0&#45;&gt;R=0,E=0,S=0 -->
<g id="edge99" class="edge">
<title>R=1000,E=1000,S=0&#45;&gt;R=0,E=0,S=0</title>
<path fill="none" stroke="black" d="M3032.79,-477.23C2994.93,-506.25 2912.23,-565.84 2833,-597.5 2804.17,-609.02 2770.97,-616.96 2741.74,-622.33"/>
<polygon fill="black" stroke="black" points="2740.82,-618.94 2731.58,-624.12 2742.03,-625.83 2740.82,-618.94"/>
<text text-anchor="middle" x="3006.5" y="-542.8" font-family="Times,serif" font-size="14.00">setreuid(0,0)</text>
</g>
<!-- R=1000,E=1000,S=0&#45;&gt;R=0,E=0,S=0 -->
<g id="edge100" class="edge">
<title>R=1000,E=1000,S=0&#45;&gt;R=0,E=0,S=0</title>
<path fill="none" stroke="black" d="M3060.69,-477.49C3068.37,-500.14 3077.47,-540.17 3057,-564.5 3018.75,-609.96 2854.9,-625.03 2751.53,-630.02"/>
<polygon fill="black" stroke="black" points="2751.23,-626.53 2741.41,-630.49 2751.56,-633.53 2751.23,-626.53"/>
<text text-anchor="middle" x="3126" y="-542.8" font-family="Times,serif" font-size="14.00">setresuid(0,0,0)</text>
</g>
<!-- R=1000,E=1000,S=0&#45;&gt;R=0,E=0,S=1000 -->
<g id="edge101" class="edge">
<title>R=1000,E=1000,S=0&#45;&gt;R=0,E=0,S=1000</title>
<path fill="none" stroke="black" d="M2950.67,-466.62C2887.76,-470.19 2805.77,-474.55 2733,-477.5 2449.12,-489.01 2377.57,-478.02 2094,-495.5 1940.34,-504.97 1762.03,-523.57 1657.75,-535.22"/>
<polygon fill="black" stroke="black" points="1657.13,-531.77 1647.59,-536.36 1657.91,-538.73 1657.13,-531.77"/>
<text text-anchor="middle" x="2164.5" y="-499.3" font-family="Times,serif" font-size="14.00">setresuid(0,0,1000)</text>
</g>
<!-- R=1000,E=1000,S=0&#45;&gt;R=0,E=1000,S=0 -->
<g id="edge102" class="edge">
<title>R=1000,E=1000,S=0&#45;&gt;R=0,E=1000,S=0</title>
<path fill="none" stroke="black" d="M3163.26,-455.24C3263.57,-451.08 3399.13,-442.08 3416,-423.5 3424.78,-413.83 3440.3,-399.74 3413,-354.5 3390.24,-316.78 3349.71,-341.84 3328,-303.5 3320.12,-289.58 3317.11,-279.23 3328,-267.5 3364.69,-227.98 3533.31,-289.02 3570,-249.5 3601.85,-215.19 3556.62,-164.84 3523.8,-135.7"/>
<polygon fill="black" stroke="black" points="3526.04,-133.01 3516.19,-129.11 3521.46,-138.3 3526.04,-133.01"/>
<text text-anchor="middle" x="3388" y="-281.8" font-family="Times,serif" font-size="14.00">setreuid(0,1000)</text>
</g>
<!-- R=1000,E=1000,S=0&#45;&gt;R=0,E=1000,S=0 -->
<g id="edge103" class="edge">
<title>R=1000,E=1000,S=0&#45;&gt;R=0,E=1000,S=0</title>
<path fill="none" stroke="black" d="M3163.19,-454.95C3268.49,-450.5 3414.85,-441.2 3435,-423.5 3488.38,-376.6 3418.04,-315.97 3470,-267.5 3508.79,-231.31 3553.43,-289.74 3588,-249.5 3594.59,-241.83 3606.82,-232.78 3586,-180.5 3577.79,-159.87 3559.2,-144.24 3540.95,-133.19"/>
<polygon fill="black" stroke="black" points="3542.49,-130.04 3532.06,-128.14 3539.02,-136.12 3542.49,-130.04"/>
<text text-anchor="middle" x="3540.5" y="-281.8" font-family="Times,serif" font-size="14.00">setresuid(0,1000,0)</text>
</g>
<!-- R=1000,E=1000,S=0&#45;&gt;R=0,E=1000,S=1000 -->
<g id="edge104" class="edge">
<title>R=1000,E=1000,S=0&#45;&gt;R=0,E=1000,S=1000</title>
<path fill="none" stroke="black" d="M2948.99,-452.9C2771.02,-443.39 2428.06,-424.97 2415,-423.5 2100.46,-388.12 2019.7,-381.75 1713,-303.5 1665.2,-291.3 1655.67,-280.22 1608,-267.5 1567.32,-256.65 1553.32,-266.94 1515,-249.5 1500.75,-243.01 1486.82,-232.74 1475.61,-223.2"/>
<polygon fill="black" stroke="black" points="1477.78,-220.44 1467.97,-216.44 1473.14,-225.68 1477.78,-220.44"/>
<text text-anchor="middle" x="1929" y="-325.3" font-family="Times,serif" font-size="14.00">setresuid(0,1000,1000)</text>
</g>
<!-- R=1000,E=1000,S=0&#45;&gt;R=1000,E=1000,S=1000 -->
<g id="edge105" class="edge">
<title>R=1000,E=1000,S=0&#45;&gt;R=1000,E=1000,S=1000</title>
<path fill="none" stroke="black" d="M3166.73,-459.18C3413.31,-459.5 3983.34,-453.34 4042,-390.5 4070.2,-360.29 4007.45,-321.02 3991,-249.5 3975.29,-181.2 4060.63,-145.82 4014,-93.5 3928.87,2.02 3855.67,-69.08 3728,-60.5 3405.1,-38.79 2428.19,-29.32 2063.39,-26.48"/>
<polygon fill="black" stroke="black" points="2063.33,-22.98 2053.3,-26.4 2063.27,-29.98 2063.33,-22.98"/>
<text text-anchor="middle" x="4036.5" y="-238.3" font-family="Times,serif" font-size="14.00">setuid(1000)</text>
</g>
<!-- R=1000,E=1000,S=0&#45;&gt;R=1000,E=1000,S=1000 -->
<g id="edge110" class="edge">
<title>R=1000,E=1000,S=0&#45;&gt;R=1000,E=1000,S=1000</title>
<path fill="none" stroke="black" d="M3165.35,-456.63C3395.73,-452.42 3909.8,-441.17 3988,-423.5 4042.76,-411.13 4104,-429.64 4104,-373.5 4104,-373.5 4104,-373.5 4104,-110.5 4104,-98.63 4004.3,-74.87 3875,-60.5 3696.88,-40.71 2480.24,-29.72 2063.61,-26.51"/>
<polygon fill="black" stroke="black" points="2063.34,-23 2053.32,-26.43 2063.29,-30 2063.34,-23"/>
<text text-anchor="middle" x="4177.5" y="-238.3" font-family="Times,serif" font-size="14.00">setreuid(1000,1000)</text>
</g>
<!-- R=1000,E=1000,S=0&#45;&gt;R=1000,E=1000,S=1000 -->
<g id="edge112" class="edge">
<title>R=1000,E=1000,S=0&#45;&gt;R=1000,E=1000,S=1000</title>
<path fill="none" stroke="black" d="M3165.63,-457.17C3388.59,-454.09 3882.03,-445.01 4050,-423.5 4151.18,-410.54 4274,-475.51 4274,-373.5 4274,-373.5 4274,-373.5 4274,-110.5 4274,38.72 4090.7,-72.93 3942,-60.5 3576.44,-29.94 2458.89,-25.95 2064.01,-25.52"/>
<polygon fill="black" stroke="black" points="2063.97,-22.02 2053.96,-25.51 2063.96,-29.02 2063.97,-22.02"/>
<text text-anchor="middle" x="4371.5" y="-238.3" font-family="Times,serif" font-size="14.00">setresuid(1000,1000,1000)</text>
</g>
<!-- R=1000,E=1000,S=0&#45;&gt;R=1000,E=0,S=1000 -->
<g id="edge109" class="edge">
<title>R=1000,E=1000,S=0&#45;&gt;R=1000,E=0,S=1000</title>
<path fill="none" stroke="black" d="M2949.08,-452.87C2783.16,-443.11 2474.85,-421.09 2435,-390.5 2408.19,-369.92 2430.48,-341.18 2403,-321.5 2370.73,-298.38 2277.04,-290.05 2198.17,-287.27"/>
<polygon fill="black" stroke="black" points="2198.25,-283.77 2188.14,-286.94 2198.02,-290.76 2198.25,-283.77"/>
<text text-anchor="middle" x="2519" y="-368.8" font-family="Times,serif" font-size="14.00">setresuid(1000,0,1000)</text>
</g>
<!-- R=1000,E=1000,S=0&#45;&gt;R=1000,E=0,S=0 -->
<g id="edge97" class="edge">
<title>R=1000,E=1000,S=0&#45;&gt;R=1000,E=0,S=0</title>
<path fill="none" stroke="black" d="M2954.2,-451.14C2840.86,-442.54 2670.85,-428.81 2666,-423.5 2631.45,-385.69 2574.39,-423.46 2811,-390.5 2820.69,-389.15 2830.85,-387.67 2840.91,-386.16"/>
<polygon fill="black" stroke="black" points="2841.56,-389.6 2850.92,-384.65 2840.51,-382.68 2841.56,-389.6"/>
<text text-anchor="middle" x="2698" y="-412.3" font-family="Times,serif" font-size="14.00">setuid(0)</text>
</g>
<!-- R=1000,E=1000,S=0&#45;&gt;R=1000,E=0,S=0 -->
<g id="edge98" class="edge">
<title>R=1000,E=1000,S=0&#45;&gt;R=1000,E=0,S=0</title>
<path fill="none" stroke="black" d="M2948.67,-453.04C2867.2,-447.72 2766.12,-438.23 2753,-423.5 2748.57,-418.52 2748.79,-413.67 2753,-408.5 2758.87,-401.28 2799.01,-392.77 2838.58,-385.95"/>
<polygon fill="black" stroke="black" points="2839.33,-389.38 2848.61,-384.26 2838.16,-382.48 2839.33,-389.38"/>
<text text-anchor="middle" x="2789.5" y="-412.3" font-family="Times,serif" font-size="14.00">seteuid(0)</text>
</g>
<!-- R=1000,E=1000,S=0&#45;&gt;R=1000,E=0,S=0 -->
<g id="edge107" class="edge">
<title>R=1000,E=1000,S=0&#45;&gt;R=1000,E=0,S=0</title>
<path fill="none" stroke="black" d="M2949.24,-452.91C2905.86,-448.19 2862.5,-439.5 2849,-423.5 2838.73,-411.33 2848.88,-400.76 2864.48,-392.51"/>
<polygon fill="black" stroke="black" points="2866.08,-395.62 2873.61,-388.17 2863.07,-389.3 2866.08,-395.62"/>
<text text-anchor="middle" x="2909" y="-412.3" font-family="Times,serif" font-size="14.00">setreuid(1000,0)</text>
</g>
<!-- R=1000,E=1000,S=0&#45;&gt;R=1000,E=0,S=0 -->
<g id="edge108" class="edge">
<title>R=1000,E=1000,S=0&#45;&gt;R=1000,E=0,S=0</title>
<path fill="none" stroke="black" d="M3020.43,-442.19C3009.82,-436.65 2998.21,-430.16 2988,-423.5 2978.99,-417.62 2977.57,-415 2969,-408.5 2963.72,-404.49 2958.06,-400.29 2952.55,-396.24"/>
<polygon fill="black" stroke="black" points="2954.22,-393.13 2944.08,-390.06 2950.09,-398.78 2954.22,-393.13"/>
<text text-anchor="middle" x="3058.5" y="-412.3" font-family="Times,serif" font-size="14.00">setresuid(1000,0,0)</text>
</g>
<!-- R=1000,E=1000,S=0&#45;&gt;R=1000,E=1000,S=0 -->
<g id="edge106" class="edge">
<title>R=1000,E=1000,S=0&#45;&gt;R=1000,E=1000,S=0</title>
<path fill="none" stroke="black" d="M3164.86,-462.79C3176.78,-462.15 3184.44,-461.06 3184.44,-459.5 3184.44,-458.45 3180.98,-457.61 3175.1,-456.98"/>
<polygon fill="black" stroke="black" points="3175.1,-453.47 3164.86,-456.21 3174.57,-460.45 3175.1,-453.47"/>
<text text-anchor="middle" x="3234.44" y="-455.8" font-family="Times,serif" font-size="14.00">seteuid(1000)</text>
</g>
<!-- R=1000,E=1000,S=0&#45;&gt;R=1000,E=1000,S=0 -->
<g id="edge111" class="edge">
<title>R=1000,E=1000,S=0&#45;&gt;R=1000,E=1000,S=0</title>
<path fill="none" stroke="black" d="M3156.31,-467.06C3219.17,-468.32 3284.44,-465.81 3284.44,-459.5 3284.44,-453.54 3226.11,-450.96 3166.63,-451.77"/>
<polygon fill="black" stroke="black" points="3166.25,-448.27 3156.31,-451.94 3166.36,-455.27 3166.25,-448.27"/>
<text text-anchor="middle" x="3368.44" y="-455.8" font-family="Times,serif" font-size="14.00">setresuid(1000,1000,0)</text>
</g>
</g>
</svg>
