<?xml version="1.0" encoding="UTF-8" standalone="no"?>
<!DOCTYPE svg PUBLIC "-//W3C//DTD SVG 1.1//EN"
 "http://www.w3.org/Graphics/SVG/1.1/DTD/svg11.dtd">
<!-- Generated by graphviz version 2.42.3 (20191010.1750)
 -->
<!-- Title: G Pages: 1 -->
<svg width="1823pt" height="131pt"
 viewBox="0.00 0.00 1823.33 131.00" xmlns="http://www.w3.org/2000/svg" xmlns:xlink="http://www.w3.org/1999/xlink">
<g id="graph0" class="graph" transform="scale(1 1) rotate(0) translate(4 127)">
<title>G</title>
<polygon fill="white" stroke="transparent" points="-4,4 -4,-127 1819.33,-127 1819.33,4 -4,4"/>
<!-- R=0,E=*,S=0 -->
<g id="node1" class="node">
<title>R=0,E=*,S=0</title>
<ellipse fill="none" stroke="black" cx="172.34" cy="-105" rx="76.09" ry="18"/>
<text text-anchor="middle" x="172.34" y="-101.3" font-family="Times,serif" font-size="14.00">R=0,E=*,S=0</text>
</g>
<!-- R=0,E=0,S=0 -->
<g id="node2" class="node">
<title>R=0,E=0,S=0</title>
<ellipse fill="none" stroke="black" cx="77.34" cy="-18" rx="77.19" ry="18"/>
<text text-anchor="middle" x="77.34" y="-14.3" font-family="Times,serif" font-size="14.00">R=0,E=0,S=0</text>
</g>
<!-- R=0,E=*,S=0&#45;&gt;R=0,E=0,S=0 -->
<g id="edge1" class="edge">
<title>R=0,E=*,S=0&#45;&gt;R=0,E=0,S=0</title>
<path fill="none" stroke="black" d="M153.57,-87.21C139.39,-74.52 119.74,-56.93 103.93,-42.79"/>
<polygon fill="black" stroke="black" points="105.86,-39.82 96.07,-35.76 101.19,-45.03 105.86,-39.82"/>
<text text-anchor="middle" x="167.84" y="-57.8" font-family="Times,serif" font-size="14.00">seteuid(0)</text>
</g>
<!-- R=0,E=1000,S=0 -->
<g id="node9" class="node">
<title>R=0,E=1000,S=0</title>
<ellipse fill="none" stroke="black" cx="267.34" cy="-18" rx="94.78" ry="18"/>
<text text-anchor="middle" x="267.34" y="-14.3" font-family="Times,serif" font-size="14.00">R=0,E=1000,S=0</text>
</g>
<!-- R=0,E=*,S=0&#45;&gt;R=0,E=1000,S=0 -->
<g id="edge6" class="edge">
<title>R=0,E=*,S=0&#45;&gt;R=0,E=1000,S=0</title>
<path fill="none" stroke="black" d="M191.11,-87.21C205.29,-74.52 224.95,-56.93 240.75,-42.79"/>
<polygon fill="black" stroke="black" points="243.49,-45.03 248.61,-35.76 238.83,-39.82 243.49,-45.03"/>
<text text-anchor="middle" x="276.34" y="-57.8" font-family="Times,serif" font-size="14.00">seteuid(1000)</text>
</g>
<!-- R=1000,E=*,S=0 -->
<g id="node3" class="node">
<title>R=1000,E=*,S=0</title>
<ellipse fill="none" stroke="black" cx="587.34" cy="-105" rx="93.68" ry="18"/>
<text text-anchor="middle" x="587.34" y="-101.3" font-family="Times,serif" font-size="14.00">R=1000,E=*,S=0</text>
</g>
<!-- R=1000,E=0,S=0 -->
<g id="node4" class="node">
<title>R=1000,E=0,S=0</title>
<ellipse fill="none" stroke="black" cx="475.34" cy="-18" rx="94.78" ry="18"/>
<text text-anchor="middle" x="475.34" y="-14.3" font-family="Times,serif" font-size="14.00">R=1000,E=0,S=0</text>
</g>
<!-- R=1000,E=*,S=0&#45;&gt;R=1000,E=0,S=0 -->
<g id="edge2" class="edge">
<title>R=1000,E=*,S=0&#45;&gt;R=1000,E=0,S=0</title>
<path fill="none" stroke="black" d="M565.48,-87.41C548.29,-74.36 524.16,-56.05 505.19,-41.65"/>
<polygon fill="black" stroke="black" points="507.23,-38.81 497.15,-35.55 503,-44.38 507.23,-38.81"/>
<text text-anchor="middle" x="574.84" y="-57.8" font-family="Times,serif" font-size="14.00">seteuid(0)</text>
</g>
<!-- R=1000,E=1000,S=0 -->
<g id="node11" class="node">
<title>R=1000,E=1000,S=0</title>
<ellipse fill="none" stroke="black" cx="700.34" cy="-18" rx="112.38" ry="18"/>
<text text-anchor="middle" x="700.34" y="-14.3" font-family="Times,serif" font-size="14.00">R=1000,E=1000,S=0</text>
</g>
<!-- R=1000,E=*,S=0&#45;&gt;R=1000,E=1000,S=0 -->
<g id="edge8" class="edge">
<title>R=1000,E=*,S=0&#45;&gt;R=1000,E=1000,S=0</title>
<path fill="none" stroke="black" d="M609.4,-87.41C626.63,-74.45 650.78,-56.28 669.86,-41.93"/>
<polygon fill="black" stroke="black" points="672.07,-44.65 677.96,-35.84 667.86,-39.05 672.07,-44.65"/>
<text text-anchor="middle" x="701.34" y="-57.8" font-family="Times,serif" font-size="14.00">seteuid(1000)</text>
</g>
<!-- R=0,E=*,S=1000 -->
<g id="node5" class="node">
<title>R=0,E=*,S=1000</title>
<ellipse fill="none" stroke="black" cx="1037.34" cy="-105" rx="93.68" ry="18"/>
<text text-anchor="middle" x="1037.34" y="-101.3" font-family="Times,serif" font-size="14.00">R=0,E=*,S=1000</text>
</g>
<!-- R=0,E=0,S=1000 -->
<g id="node6" class="node">
<title>R=0,E=0,S=1000</title>
<ellipse fill="none" stroke="black" cx="925.34" cy="-18" rx="94.78" ry="18"/>
<text text-anchor="middle" x="925.34" y="-14.3" font-family="Times,serif" font-size="14.00">R=0,E=0,S=1000</text>
</g>
<!-- R=0,E=*,S=1000&#45;&gt;R=0,E=0,S=1000 -->
<g id="edge3" class="edge">
<title>R=0,E=*,S=1000&#45;&gt;R=0,E=0,S=1000</title>
<path fill="none" stroke="black" d="M1015.48,-87.41C998.29,-74.36 974.16,-56.05 955.19,-41.65"/>
<polygon fill="black" stroke="black" points="957.23,-38.81 947.15,-35.55 953,-44.38 957.23,-38.81"/>
<text text-anchor="middle" x="1024.84" y="-57.8" font-family="Times,serif" font-size="14.00">seteuid(0)</text>
</g>
<!-- R=0,E=1000,S=1000 -->
<g id="node10" class="node">
<title>R=0,E=1000,S=1000</title>
<ellipse fill="none" stroke="black" cx="1150.34" cy="-18" rx="112.38" ry="18"/>
<text text-anchor="middle" x="1150.34" y="-14.3" font-family="Times,serif" font-size="14.00">R=0,E=1000,S=1000</text>
</g>
<!-- R=0,E=*,S=1000&#45;&gt;R=0,E=1000,S=1000 -->
<g id="edge7" class="edge">
<title>R=0,E=*,S=1000&#45;&gt;R=0,E=1000,S=1000</title>
<path fill="none" stroke="black" d="M1059.4,-87.41C1076.63,-74.45 1100.78,-56.28 1119.86,-41.93"/>
<polygon fill="black" stroke="black" points="1122.07,-44.65 1127.96,-35.84 1117.86,-39.05 1122.07,-44.65"/>
<text text-anchor="middle" x="1151.34" y="-57.8" font-family="Times,serif" font-size="14.00">seteuid(1000)</text>
</g>
<!-- R=1000,E=0,S=1000 -->
<g id="node7" class="node">
<title>R=1000,E=0,S=1000</title>
<ellipse fill="none" stroke="black" cx="1261.34" cy="-105" rx="112.38" ry="18"/>
<text text-anchor="middle" x="1261.34" y="-101.3" font-family="Times,serif" font-size="14.00">R=1000,E=0,S=1000</text>
</g>
<!-- R=1000,E=0,S=1000&#45;&gt;R=1000,E=0,S=1000 -->
<g id="edge4" class="edge">
<title>R=1000,E=0,S=1000&#45;&gt;R=1000,E=0,S=1000</title>
<path fill="none" stroke="black" d="M1364.41,-112.23C1380.67,-111.16 1391.78,-108.75 1391.78,-105 1391.78,-102.1 1385.14,-100 1374.6,-98.7"/>
<polygon fill="black" stroke="black" points="1374.69,-95.19 1364.41,-97.77 1374.05,-102.16 1374.69,-95.19"/>
<text text-anchor="middle" x="1428.28" y="-101.3" font-family="Times,serif" font-size="14.00">seteuid(0)</text>
</g>
<!-- R=1000,E=1000,S=1000 -->
<g id="node8" class="node">
<title>R=1000,E=1000,S=1000</title>
<ellipse fill="none" stroke="black" cx="1594.34" cy="-18" rx="129.98" ry="18"/>
<text text-anchor="middle" x="1594.34" y="-14.3" font-family="Times,serif" font-size="14.00">R=1000,E=1000,S=1000</text>
</g>
<!-- R=1000,E=1000,S=1000&#45;&gt;R=1000,E=1000,S=1000 -->
<g id="edge5" class="edge">
<title>R=1000,E=1000,S=1000&#45;&gt;R=1000,E=1000,S=1000</title>
<path fill="none" stroke="black" d="M1713.96,-25.07C1730.94,-23.92 1742.33,-21.57 1742.33,-18 1742.33,-15.21 1735.38,-13.16 1724.24,-11.86"/>
<polygon fill="black" stroke="black" points="1724.23,-8.34 1713.96,-10.93 1723.6,-15.31 1724.23,-8.34"/>
<text text-anchor="middle" x="1778.83" y="-14.3" font-family="Times,serif" font-size="14.00">seteuid(0)</text>
</g>
<!-- R=1000,E=*,S=1000 -->
<g id="node12" class="node">
<title>R=1000,E=*,S=1000</title>
<ellipse fill="none" stroke="black" cx="1594.34" cy="-105" rx="111.28" ry="18"/>
<text text-anchor="middle" x="1594.34" y="-101.3" font-family="Times,serif" font-size="14.00">R=1000,E=*,S=1000</text>
</g>
<!-- R=1000,E=*,S=1000&#45;&gt;R=1000,E=1000,S=1000 -->
<g id="edge9" class="edge">
<title>R=1000,E=*,S=1000&#45;&gt;R=1000,E=1000,S=1000</title>
<path fill="none" stroke="black" d="M1594.34,-86.8C1594.34,-75.16 1594.34,-59.55 1594.34,-46.24"/>
<polygon fill="black" stroke="black" points="1597.84,-46.18 1594.34,-36.18 1590.84,-46.18 1597.84,-46.18"/>
<text text-anchor="middle" x="1644.34" y="-57.8" font-family="Times,serif" font-size="14.00">seteuid(1000)</text>
</g>
</g>
</svg>
