<?xml version="1.0" encoding="UTF-8" standalone="no"?>
<!DOCTYPE svg PUBLIC "-//W3C//DTD SVG 1.1//EN"
 "http://www.w3.org/Graphics/SVG/1.1/DTD/svg11.dtd">
<!-- Generated by graphviz version 2.42.3 (20191010.1750)
 -->
<!-- Title: G Pages: 1 -->
<svg width="1604pt" height="131pt"
 viewBox="0.00 0.00 1603.88 131.00" xmlns="http://www.w3.org/2000/svg" xmlns:xlink="http://www.w3.org/1999/xlink">
<g id="graph0" class="graph" transform="scale(1 1) rotate(0) translate(4 127)">
<title>G</title>
<polygon fill="white" stroke="transparent" points="-4,4 -4,-127 1599.88,-127 1599.88,4 -4,4"/>
<!-- R=0,E=0,S=0 -->
<g id="node1" class="node">
<title>R=0,E=0,S=0</title>
<ellipse fill="none" stroke="black" cx="149.89" cy="-105" rx="77.19" ry="18"/>
<text text-anchor="middle" x="149.89" y="-101.3" font-family="Times,serif" font-size="14.00">R=0,E=0,S=0</text>
</g>
<!-- R=0,E=0,S=0&#45;&gt;R=0,E=0,S=0 -->
<g id="edge1" class="edge">
<title>R=0,E=0,S=0&#45;&gt;R=0,E=0,S=0</title>
<path fill="none" stroke="black" d="M220.16,-112.6C234.74,-111.8 245.23,-109.27 245.23,-105 245.23,-101.8 239.33,-99.58 230.23,-98.33"/>
<polygon fill="black" stroke="black" points="230.43,-94.83 220.16,-97.4 229.79,-101.8 230.43,-94.83"/>
<text text-anchor="middle" x="281.73" y="-101.3" font-family="Times,serif" font-size="14.00">seteuid(0)</text>
</g>
<!-- R=0,E=1000,S=0 -->
<g id="node2" class="node">
<title>R=0,E=1000,S=0</title>
<ellipse fill="none" stroke="black" cx="94.89" cy="-18" rx="94.78" ry="18"/>
<text text-anchor="middle" x="94.89" y="-14.3" font-family="Times,serif" font-size="14.00">R=0,E=1000,S=0</text>
</g>
<!-- R=0,E=0,S=0&#45;&gt;R=0,E=1000,S=0 -->
<g id="edge2" class="edge">
<title>R=0,E=0,S=0&#45;&gt;R=0,E=1000,S=0</title>
<path fill="none" stroke="black" d="M79.54,-97.36C62.25,-92.2 45.64,-83.5 34.89,-69 26.68,-57.92 34.47,-47.75 46.84,-39.52"/>
<polygon fill="black" stroke="black" points="48.67,-42.5 55.5,-34.4 45.11,-36.47 48.67,-42.5"/>
<text text-anchor="middle" x="84.89" y="-57.8" font-family="Times,serif" font-size="14.00">seteuid(1000)</text>
</g>
<!-- R=0,E=1000,S=0&#45;&gt;R=0,E=0,S=0 -->
<g id="edge5" class="edge">
<title>R=0,E=1000,S=0&#45;&gt;R=0,E=0,S=0</title>
<path fill="none" stroke="black" d="M118.28,-35.61C124.4,-40.9 130.5,-47.17 134.89,-54 139.32,-60.89 142.5,-69.15 144.75,-76.95"/>
<polygon fill="black" stroke="black" points="141.38,-77.93 147.2,-86.79 148.18,-76.24 141.38,-77.93"/>
<text text-anchor="middle" x="178.39" y="-57.8" font-family="Times,serif" font-size="14.00">seteuid(0)</text>
</g>
<!-- R=0,E=1000,S=0&#45;&gt;R=0,E=1000,S=0 -->
<g id="edge6" class="edge">
<title>R=0,E=1000,S=0&#45;&gt;R=0,E=1000,S=0</title>
<path fill="none" stroke="black" d="M181.51,-25.41C196.98,-24.45 207.78,-21.98 207.78,-18 207.78,-14.95 201.45,-12.79 191.54,-11.51"/>
<polygon fill="black" stroke="black" points="191.79,-8.02 181.51,-10.59 191.14,-14.99 191.79,-8.02"/>
<text text-anchor="middle" x="257.78" y="-14.3" font-family="Times,serif" font-size="14.00">seteuid(1000)</text>
</g>
<!-- R=0,E=0,S=1000 -->
<g id="node3" class="node">
<title>R=0,E=0,S=1000</title>
<ellipse fill="none" stroke="black" cx="461.89" cy="-105" rx="94.78" ry="18"/>
<text text-anchor="middle" x="461.89" y="-101.3" font-family="Times,serif" font-size="14.00">R=0,E=0,S=1000</text>
</g>
<!-- R=0,E=0,S=1000&#45;&gt;R=0,E=0,S=1000 -->
<g id="edge3" class="edge">
<title>R=0,E=0,S=1000&#45;&gt;R=0,E=0,S=1000</title>
<path fill="none" stroke="black" d="M548.51,-112.41C563.98,-111.45 574.78,-108.98 574.78,-105 574.78,-101.95 568.45,-99.79 558.54,-98.51"/>
<polygon fill="black" stroke="black" points="558.79,-95.02 548.51,-97.59 558.14,-101.99 558.79,-95.02"/>
<text text-anchor="middle" x="611.28" y="-101.3" font-family="Times,serif" font-size="14.00">seteuid(0)</text>
</g>
<!-- R=0,E=1000,S=1000 -->
<g id="node4" class="node">
<title>R=0,E=1000,S=1000</title>
<ellipse fill="none" stroke="black" cx="490.89" cy="-18" rx="112.38" ry="18"/>
<text text-anchor="middle" x="490.89" y="-14.3" font-family="Times,serif" font-size="14.00">R=0,E=1000,S=1000</text>
</g>
<!-- R=0,E=0,S=1000&#45;&gt;R=0,E=1000,S=1000 -->
<g id="edge4" class="edge">
<title>R=0,E=0,S=1000&#45;&gt;R=0,E=1000,S=1000</title>
<path fill="none" stroke="black" d="M425.03,-88.32C409.55,-79.38 396.97,-67.32 405.89,-54 410.04,-47.8 415.51,-42.7 421.68,-38.5"/>
<polygon fill="black" stroke="black" points="423.63,-41.41 430.47,-33.31 420.08,-35.38 423.63,-41.41"/>
<text text-anchor="middle" x="455.89" y="-57.8" font-family="Times,serif" font-size="14.00">seteuid(1000)</text>
</g>
<!-- R=0,E=1000,S=1000&#45;&gt;R=0,E=0,S=1000 -->
<g id="edge7" class="edge">
<title>R=0,E=1000,S=1000&#45;&gt;R=0,E=0,S=1000</title>
<path fill="none" stroke="black" d="M502.17,-36.16C507.18,-46.05 510.93,-58.55 505.89,-69 503.88,-73.17 501.11,-76.99 497.92,-80.46"/>
<polygon fill="black" stroke="black" points="495.34,-78.08 490.42,-87.46 500.12,-83.19 495.34,-78.08"/>
<text text-anchor="middle" x="545.39" y="-57.8" font-family="Times,serif" font-size="14.00">seteuid(0)</text>
</g>
<!-- R=0,E=1000,S=1000&#45;&gt;R=0,E=1000,S=1000 -->
<g id="edge8" class="edge">
<title>R=0,E=1000,S=1000&#45;&gt;R=0,E=1000,S=1000</title>
<path fill="none" stroke="black" d="M593.96,-25.23C610.22,-24.16 621.33,-21.75 621.33,-18 621.33,-15.1 614.69,-13 604.15,-11.7"/>
<polygon fill="black" stroke="black" points="604.24,-8.19 593.96,-10.77 603.6,-15.16 604.24,-8.19"/>
<text text-anchor="middle" x="671.33" y="-14.3" font-family="Times,serif" font-size="14.00">seteuid(1000)</text>
</g>
<!-- R=1000,E=0,S=0 -->
<g id="node5" class="node">
<title>R=1000,E=0,S=0</title>
<ellipse fill="none" stroke="black" cx="775.89" cy="-105" rx="94.78" ry="18"/>
<text text-anchor="middle" x="775.89" y="-101.3" font-family="Times,serif" font-size="14.00">R=1000,E=0,S=0</text>
</g>
<!-- R=1000,E=0,S=0&#45;&gt;R=1000,E=0,S=0 -->
<g id="edge9" class="edge">
<title>R=1000,E=0,S=0&#45;&gt;R=1000,E=0,S=0</title>
<path fill="none" stroke="black" d="M862.51,-112.41C877.98,-111.45 888.78,-108.98 888.78,-105 888.78,-101.95 882.45,-99.79 872.54,-98.51"/>
<polygon fill="black" stroke="black" points="872.79,-95.02 862.51,-97.59 872.14,-101.99 872.79,-95.02"/>
<text text-anchor="middle" x="925.28" y="-101.3" font-family="Times,serif" font-size="14.00">seteuid(0)</text>
</g>
<!-- R=1000,E=1000,S=0 -->
<g id="node6" class="node">
<title>R=1000,E=1000,S=0</title>
<ellipse fill="none" stroke="black" cx="878.89" cy="-18" rx="112.38" ry="18"/>
<text text-anchor="middle" x="878.89" y="-14.3" font-family="Times,serif" font-size="14.00">R=1000,E=1000,S=0</text>
</g>
<!-- R=1000,E=0,S=0&#45;&gt;R=1000,E=1000,S=0 -->
<g id="edge10" class="edge">
<title>R=1000,E=0,S=0&#45;&gt;R=1000,E=1000,S=0</title>
<path fill="none" stroke="black" d="M765.24,-86.84C760.29,-76.47 756.88,-63.47 763.89,-54 769.95,-45.83 777.87,-39.5 786.72,-34.6"/>
<polygon fill="black" stroke="black" points="788.38,-37.69 795.85,-30.18 785.33,-31.39 788.38,-37.69"/>
<text text-anchor="middle" x="813.89" y="-57.8" font-family="Times,serif" font-size="14.00">seteuid(1000)</text>
</g>
<!-- R=1000,E=1000,S=0&#45;&gt;R=1000,E=0,S=0 -->
<g id="edge13" class="edge">
<title>R=1000,E=1000,S=0&#45;&gt;R=1000,E=0,S=0</title>
<path fill="none" stroke="black" d="M877.51,-36.14C875.82,-46.77 872.1,-60.05 863.89,-69 857.61,-75.85 849.81,-81.39 841.47,-85.85"/>
<polygon fill="black" stroke="black" points="839.75,-82.8 832.25,-90.28 842.78,-89.1 839.75,-82.8"/>
<text text-anchor="middle" x="909.39" y="-57.8" font-family="Times,serif" font-size="14.00">seteuid(0)</text>
</g>
<!-- R=1000,E=1000,S=0&#45;&gt;R=1000,E=1000,S=0 -->
<g id="edge14" class="edge">
<title>R=1000,E=1000,S=0&#45;&gt;R=1000,E=1000,S=0</title>
<path fill="none" stroke="black" d="M981.96,-25.23C998.22,-24.16 1009.33,-21.75 1009.33,-18 1009.33,-15.1 1002.69,-13 992.15,-11.7"/>
<polygon fill="black" stroke="black" points="992.24,-8.19 981.96,-10.77 991.6,-15.16 992.24,-8.19"/>
<text text-anchor="middle" x="1059.33" y="-14.3" font-family="Times,serif" font-size="14.00">seteuid(1000)</text>
</g>
<!-- R=1000,E=0,S=1000 -->
<g id="node7" class="node">
<title>R=1000,E=0,S=1000</title>
<ellipse fill="none" stroke="black" cx="1256.89" cy="-105" rx="112.38" ry="18"/>
<text text-anchor="middle" x="1256.89" y="-101.3" font-family="Times,serif" font-size="14.00">R=1000,E=0,S=1000</text>
</g>
<!-- R=1000,E=0,S=1000&#45;&gt;R=1000,E=0,S=1000 -->
<g id="edge11" class="edge">
<title>R=1000,E=0,S=1000&#45;&gt;R=1000,E=0,S=1000</title>
<path fill="none" stroke="black" d="M1359.96,-112.23C1376.22,-111.16 1387.33,-108.75 1387.33,-105 1387.33,-102.1 1380.69,-100 1370.15,-98.7"/>
<polygon fill="black" stroke="black" points="1370.24,-95.19 1359.96,-97.77 1369.6,-102.16 1370.24,-95.19"/>
<text text-anchor="middle" x="1423.83" y="-101.3" font-family="Times,serif" font-size="14.00">seteuid(0)</text>
</g>
<!-- R=1000,E=1000,S=1000 -->
<g id="node8" class="node">
<title>R=1000,E=1000,S=1000</title>
<ellipse fill="none" stroke="black" cx="1256.89" cy="-18" rx="129.98" ry="18"/>
<text text-anchor="middle" x="1256.89" y="-14.3" font-family="Times,serif" font-size="14.00">R=1000,E=1000,S=1000</text>
</g>
<!-- R=1000,E=0,S=1000&#45;&gt;R=1000,E=1000,S=1000 -->
<g id="edge12" class="edge">
<title>R=1000,E=0,S=1000&#45;&gt;R=1000,E=1000,S=1000</title>
<path fill="none" stroke="black" d="M1256.89,-86.8C1256.89,-75.16 1256.89,-59.55 1256.89,-46.24"/>
<polygon fill="black" stroke="black" points="1260.39,-46.18 1256.89,-36.18 1253.39,-46.18 1260.39,-46.18"/>
<text text-anchor="middle" x="1306.89" y="-57.8" font-family="Times,serif" font-size="14.00">seteuid(1000)</text>
</g>
<!-- R=1000,E=1000,S=1000&#45;&gt;R=1000,E=1000,S=1000 -->
<g id="edge15" class="edge">
<title>R=1000,E=1000,S=1000&#45;&gt;R=1000,E=1000,S=1000</title>
<path fill="none" stroke="black" d="M1385.02,-21.17C1397.18,-20.52 1404.88,-19.47 1404.88,-18 1404.88,-16.99 1401.24,-16.18 1395.01,-15.56"/>
<polygon fill="black" stroke="black" points="1395.24,-12.06 1385.02,-14.83 1394.74,-19.05 1395.24,-12.06"/>
<text text-anchor="middle" x="1441.38" y="-14.3" font-family="Times,serif" font-size="14.00">seteuid(0)</text>
</g>
<!-- R=1000,E=1000,S=1000&#45;&gt;R=1000,E=1000,S=1000 -->
<g id="edge16" class="edge">
<title>R=1000,E=1000,S=1000&#45;&gt;R=1000,E=1000,S=1000</title>
<path fill="none" stroke="black" d="M1374.1,-25.8C1428.16,-26.35 1477.88,-23.75 1477.88,-18 1477.88,-12.61 1434.18,-9.98 1384.17,-10.13"/>
<polygon fill="black" stroke="black" points="1384.08,-6.63 1374.1,-10.2 1384.12,-13.63 1384.08,-6.63"/>
<text text-anchor="middle" x="1527.88" y="-14.3" font-family="Times,serif" font-size="14.00">seteuid(1000)</text>
</g>
</g>
</svg>
