<?xml version="1.0" encoding="UTF-8" standalone="no"?>
<!DOCTYPE svg PUBLIC "-//W3C//DTD SVG 1.1//EN"
 "http://www.w3.org/Graphics/SVG/1.1/DTD/svg11.dtd">
<!-- Generated by graphviz version 2.42.3 (20191010.1750)
 -->
<!-- Title: G Pages: 1 -->
<svg width="468pt" height="131pt"
 viewBox="0.00 0.00 467.97 131.00" xmlns="http://www.w3.org/2000/svg" xmlns:xlink="http://www.w3.org/1999/xlink">
<g id="graph0" class="graph" transform="scale(1 1) rotate(0) translate(4 127)">
<title>G</title>
<polygon fill="white" stroke="transparent" points="-4,4 -4,-127 463.97,-127 463.97,4 -4,4"/>
<!-- *\\{R=1000,E=1000,S=1000} -->
<g id="node1" class="node">
<title>*\\{R=1000,E=1000,S=1000}</title>
<ellipse fill="none" stroke="black" cx="149.49" cy="-105" rx="149.47" ry="18"/>
<text text-anchor="middle" x="149.49" y="-101.3" font-family="Times,serif" font-size="14.00">*\{R=1000,E=1000,S=1000}</text>
</g>
<!-- *\\{R=1000,E=1000,S=1000}&#45;&gt;*\\{R=1000,E=1000,S=1000} -->
<g id="edge1" class="edge">
<title>*\\{R=1000,E=1000,S=1000}&#45;&gt;*\\{R=1000,E=1000,S=1000}</title>
<path fill="none" stroke="black" d="M287.79,-111.88C305.38,-110.68 316.97,-108.38 316.97,-105 316.97,-102.33 309.75,-100.34 298.07,-99.03"/>
<polygon fill="black" stroke="black" points="298.06,-95.51 287.79,-98.12 297.44,-102.49 298.06,-95.51"/>
<text text-anchor="middle" x="388.47" y="-101.3" font-family="Times,serif" font-size="14.00">*\{setresuid(0,0,0)}</text>
</g>
<!-- R=1000,E=1000,S=1000 -->
<g id="node2" class="node">
<title>R=1000,E=1000,S=1000</title>
<ellipse fill="none" stroke="black" cx="149.49" cy="-18" rx="129.98" ry="18"/>
<text text-anchor="middle" x="149.49" y="-14.3" font-family="Times,serif" font-size="14.00">R=1000,E=1000,S=1000</text>
</g>
<!-- *\\{R=1000,E=1000,S=1000}&#45;&gt;R=1000,E=1000,S=1000 -->
<g id="edge2" class="edge">
<title>*\\{R=1000,E=1000,S=1000}&#45;&gt;R=1000,E=1000,S=1000</title>
<path fill="none" stroke="black" d="M149.49,-86.8C149.49,-75.16 149.49,-59.55 149.49,-46.24"/>
<polygon fill="black" stroke="black" points="152.99,-46.18 149.49,-36.18 145.99,-46.18 152.99,-46.18"/>
<text text-anchor="middle" x="246.99" y="-57.8" font-family="Times,serif" font-size="14.00">setresuid(1000,1000,1000)</text>
</g>
<!-- R=1000,E=1000,S=1000&#45;&gt;R=1000,E=1000,S=1000 -->
<g id="edge3" class="edge">
<title>R=1000,E=1000,S=1000&#45;&gt;R=1000,E=1000,S=1000</title>
<path fill="none" stroke="black" d="M269.1,-25.07C286.08,-23.92 297.48,-21.57 297.48,-18 297.48,-15.21 290.52,-13.16 279.38,-11.86"/>
<polygon fill="black" stroke="black" points="279.37,-8.34 269.1,-10.93 278.75,-15.31 279.37,-8.34"/>
<text text-anchor="middle" x="300.98" y="-14.3" font-family="Times,serif" font-size="14.00">*</text>
</g>
</g>
</svg>
