<?xml version="1.0" encoding="UTF-8" standalone="no"?>
<!DOCTYPE svg PUBLIC "-//W3C//DTD SVG 1.1//EN"
 "http://www.w3.org/Graphics/SVG/1.1/DTD/svg11.dtd">
<!-- Generated by graphviz version 2.42.3 (20191010.1750)
 -->
<!-- Title: G Pages: 1 -->
<svg width="1457pt" height="131pt"
 viewBox="0.00 0.00 1456.93 131.00" xmlns="http://www.w3.org/2000/svg" xmlns:xlink="http://www.w3.org/1999/xlink">
<g id="graph0" class="graph" transform="scale(1 1) rotate(0) translate(4 127)">
<title>G</title>
<polygon fill="white" stroke="transparent" points="-4,4 -4,-127 1452.93,-127 1452.93,4 -4,4"/>
<!-- *\\{R=0,E=*,S=1000} -->
<g id="node1" class="node">
<title>*\\{R=0,E=*,S=1000}</title>
<ellipse fill="none" stroke="black" cx="112.44" cy="-105" rx="112.38" ry="18"/>
<text text-anchor="middle" x="112.44" y="-101.3" font-family="Times,serif" font-size="14.00">*\{R=0,E=*,S=1000}</text>
</g>
<!-- R=0,E=1000,S=0 -->
<g id="node2" class="node">
<title>R=0,E=1000,S=0</title>
<ellipse fill="none" stroke="black" cx="112.44" cy="-18" rx="94.78" ry="18"/>
<text text-anchor="middle" x="112.44" y="-14.3" font-family="Times,serif" font-size="14.00">R=0,E=1000,S=0</text>
</g>
<!-- *\\{R=0,E=*,S=1000}&#45;&gt;R=0,E=1000,S=0 -->
<g id="edge1" class="edge">
<title>*\\{R=0,E=*,S=1000}&#45;&gt;R=0,E=1000,S=0</title>
<path fill="none" stroke="black" d="M112.44,-86.8C112.44,-75.16 112.44,-59.55 112.44,-46.24"/>
<polygon fill="black" stroke="black" points="115.94,-46.18 112.44,-36.18 108.94,-46.18 115.94,-46.18"/>
<text text-anchor="middle" x="172.44" y="-57.8" font-family="Times,serif" font-size="14.00">setreuid(0,1000)</text>
</g>
<!-- R=0,E=*,S=1000 -->
<g id="node3" class="node">
<title>R=0,E=*,S=1000</title>
<ellipse fill="none" stroke="black" cx="337.44" cy="-105" rx="93.68" ry="18"/>
<text text-anchor="middle" x="337.44" y="-101.3" font-family="Times,serif" font-size="14.00">R=0,E=*,S=1000</text>
</g>
<!-- R=0,E=1000,S=1000 -->
<g id="node4" class="node">
<title>R=0,E=1000,S=1000</title>
<ellipse fill="none" stroke="black" cx="337.44" cy="-18" rx="112.38" ry="18"/>
<text text-anchor="middle" x="337.44" y="-14.3" font-family="Times,serif" font-size="14.00">R=0,E=1000,S=1000</text>
</g>
<!-- R=0,E=*,S=1000&#45;&gt;R=0,E=1000,S=1000 -->
<g id="edge2" class="edge">
<title>R=0,E=*,S=1000&#45;&gt;R=0,E=1000,S=1000</title>
<path fill="none" stroke="black" d="M337.44,-86.8C337.44,-75.16 337.44,-59.55 337.44,-46.24"/>
<polygon fill="black" stroke="black" points="340.94,-46.18 337.44,-36.18 333.94,-46.18 340.94,-46.18"/>
<text text-anchor="middle" x="397.44" y="-57.8" font-family="Times,serif" font-size="14.00">setreuid(0,1000)</text>
</g>
<!-- *\\{R=1000,E=0,S=0} -->
<g id="node5" class="node">
<title>*\\{R=1000,E=0,S=0}</title>
<ellipse fill="none" stroke="black" cx="580.44" cy="-105" rx="114.28" ry="18"/>
<text text-anchor="middle" x="580.44" y="-101.3" font-family="Times,serif" font-size="14.00">*\{R=1000,E=0,S=0}</text>
</g>
<!-- R=1000,E=0,S=1000 -->
<g id="node6" class="node">
<title>R=1000,E=0,S=1000</title>
<ellipse fill="none" stroke="black" cx="580.44" cy="-18" rx="112.38" ry="18"/>
<text text-anchor="middle" x="580.44" y="-14.3" font-family="Times,serif" font-size="14.00">R=1000,E=0,S=1000</text>
</g>
<!-- *\\{R=1000,E=0,S=0}&#45;&gt;R=1000,E=0,S=1000 -->
<g id="edge3" class="edge">
<title>*\\{R=1000,E=0,S=0}&#45;&gt;R=1000,E=0,S=1000</title>
<path fill="none" stroke="black" d="M580.44,-86.8C580.44,-75.16 580.44,-59.55 580.44,-46.24"/>
<polygon fill="black" stroke="black" points="583.94,-46.18 580.44,-36.18 576.94,-46.18 583.94,-46.18"/>
<text text-anchor="middle" x="640.44" y="-57.8" font-family="Times,serif" font-size="14.00">setreuid(1000,0)</text>
</g>
<!-- R=1000,E=*,S=0 -->
<g id="node7" class="node">
<title>R=1000,E=*,S=0</title>
<ellipse fill="none" stroke="black" cx="806.44" cy="-105" rx="93.68" ry="18"/>
<text text-anchor="middle" x="806.44" y="-101.3" font-family="Times,serif" font-size="14.00">R=1000,E=*,S=0</text>
</g>
<!-- R=1000,E=0,S=0 -->
<g id="node8" class="node">
<title>R=1000,E=0,S=0</title>
<ellipse fill="none" stroke="black" cx="806.44" cy="-18" rx="94.78" ry="18"/>
<text text-anchor="middle" x="806.44" y="-14.3" font-family="Times,serif" font-size="14.00">R=1000,E=0,S=0</text>
</g>
<!-- R=1000,E=*,S=0&#45;&gt;R=1000,E=0,S=0 -->
<g id="edge4" class="edge">
<title>R=1000,E=*,S=0&#45;&gt;R=1000,E=0,S=0</title>
<path fill="none" stroke="black" d="M806.44,-86.8C806.44,-75.16 806.44,-59.55 806.44,-46.24"/>
<polygon fill="black" stroke="black" points="809.94,-46.18 806.44,-36.18 802.94,-46.18 809.94,-46.18"/>
<text text-anchor="middle" x="866.44" y="-57.8" font-family="Times,serif" font-size="14.00">setreuid(1000,0)</text>
</g>
<!-- * -->
<g id="node9" class="node">
<title>*</title>
<ellipse fill="none" stroke="black" cx="1049.44" cy="-105" rx="27" ry="18"/>
<text text-anchor="middle" x="1049.44" y="-101.3" font-family="Times,serif" font-size="14.00">*</text>
</g>
<!-- R=1000,E=1000,S=1000 -->
<g id="node10" class="node">
<title>R=1000,E=1000,S=1000</title>
<ellipse fill="none" stroke="black" cx="1049.44" cy="-18" rx="129.98" ry="18"/>
<text text-anchor="middle" x="1049.44" y="-14.3" font-family="Times,serif" font-size="14.00">R=1000,E=1000,S=1000</text>
</g>
<!-- *&#45;&gt;R=1000,E=1000,S=1000 -->
<g id="edge5" class="edge">
<title>*&#45;&gt;R=1000,E=1000,S=1000</title>
<path fill="none" stroke="black" d="M1049.44,-86.8C1049.44,-75.16 1049.44,-59.55 1049.44,-46.24"/>
<polygon fill="black" stroke="black" points="1052.94,-46.18 1049.44,-36.18 1045.94,-46.18 1052.94,-46.18"/>
<text text-anchor="middle" x="1122.94" y="-57.8" font-family="Times,serif" font-size="14.00">setreuid(1000,1000)</text>
</g>
<!-- R=1000,E=1000,S=1000&#45;&gt;R=1000,E=1000,S=1000 -->
<g id="edge7" class="edge">
<title>R=1000,E=1000,S=1000&#45;&gt;R=1000,E=1000,S=1000</title>
<path fill="none" stroke="black" d="M1169.05,-25.07C1186.03,-23.92 1197.43,-21.57 1197.43,-18 1197.43,-15.21 1190.47,-13.16 1179.33,-11.86"/>
<polygon fill="black" stroke="black" points="1179.33,-8.34 1169.05,-10.93 1178.7,-15.31 1179.33,-8.34"/>
<text text-anchor="middle" x="1200.93" y="-14.3" font-family="Times,serif" font-size="14.00">*</text>
</g>
<!-- *\\{R=1000,E=1000,S=1000} -->
<g id="node11" class="node">
<title>*\\{R=1000,E=1000,S=1000}</title>
<ellipse fill="none" stroke="black" cx="1299.44" cy="-105" rx="149.47" ry="18"/>
<text text-anchor="middle" x="1299.44" y="-101.3" font-family="Times,serif" font-size="14.00">*\{R=1000,E=1000,S=1000}</text>
</g>
<!-- R=0,E=0,S=0 -->
<g id="node12" class="node">
<title>R=0,E=0,S=0</title>
<ellipse fill="none" stroke="black" cx="1299.44" cy="-18" rx="77.19" ry="18"/>
<text text-anchor="middle" x="1299.44" y="-14.3" font-family="Times,serif" font-size="14.00">R=0,E=0,S=0</text>
</g>
<!-- *\\{R=1000,E=1000,S=1000}&#45;&gt;R=0,E=0,S=0 -->
<g id="edge6" class="edge">
<title>*\\{R=1000,E=1000,S=1000}&#45;&gt;R=0,E=0,S=0</title>
<path fill="none" stroke="black" d="M1299.44,-86.8C1299.44,-75.16 1299.44,-59.55 1299.44,-46.24"/>
<polygon fill="black" stroke="black" points="1302.94,-46.18 1299.44,-36.18 1295.94,-46.18 1302.94,-46.18"/>
<text text-anchor="middle" x="1345.94" y="-57.8" font-family="Times,serif" font-size="14.00">setreuid(0,0)</text>
</g>
</g>
</svg>
