<?xml version="1.0" encoding="UTF-8" standalone="no"?>
<!DOCTYPE svg PUBLIC "-//W3C//DTD SVG 1.1//EN"
 "http://www.w3.org/Graphics/SVG/1.1/DTD/svg11.dtd">
<!-- Generated by graphviz version 2.42.3 (20191010.1750)
 -->
<!-- Title: G Pages: 1 -->
<svg width="2751pt" height="653pt"
 viewBox="0.00 0.00 2751.00 653.00" xmlns="http://www.w3.org/2000/svg" xmlns:xlink="http://www.w3.org/1999/xlink">
<g id="graph0" class="graph" transform="scale(1 1) rotate(0) translate(4 649)">
<title>G</title>
<polygon fill="white" stroke="transparent" points="-4,4 -4,-649 2747,-649 2747,4 -4,4"/>
<!-- R=0,E=0,S=0 -->
<g id="node1" class="node">
<title>R=0,E=0,S=0</title>
<ellipse fill="none" stroke="black" cx="971" cy="-627" rx="77.19" ry="18"/>
<text text-anchor="middle" x="971" y="-623.3" font-family="Times,serif" font-size="14.00">R=0,E=0,S=0</text>
</g>
<!-- R=0,E=0,S=0&#45;&gt;R=0,E=0,S=0 -->
<g id="edge1" class="edge">
<title>R=0,E=0,S=0&#45;&gt;R=0,E=0,S=0</title>
<path fill="none" stroke="black" d="M1041.26,-634.6C1055.85,-633.8 1066.34,-631.27 1066.34,-627 1066.34,-623.8 1060.44,-621.58 1051.34,-620.33"/>
<polygon fill="black" stroke="black" points="1051.54,-616.83 1041.26,-619.4 1050.9,-623.8 1051.54,-616.83"/>
<text text-anchor="middle" x="1123.34" y="-623.3" font-family="Times,serif" font-size="14.00">setresuid(0,0,0)</text>
</g>
<!-- R=0,E=0,S=1000 -->
<g id="node2" class="node">
<title>R=0,E=0,S=1000</title>
<ellipse fill="none" stroke="black" cx="1198" cy="-540" rx="94.78" ry="18"/>
<text text-anchor="middle" x="1198" y="-536.3" font-family="Times,serif" font-size="14.00">R=0,E=0,S=1000</text>
</g>
<!-- R=0,E=0,S=0&#45;&gt;R=0,E=0,S=1000 -->
<g id="edge2" class="edge">
<title>R=0,E=0,S=0&#45;&gt;R=0,E=0,S=1000</title>
<path fill="none" stroke="black" d="M1045,-621.72C1078.67,-617.27 1118.03,-608.44 1150,-591 1161.27,-584.85 1171.49,-575.14 1179.57,-565.9"/>
<polygon fill="black" stroke="black" points="1182.42,-567.94 1186.1,-558.01 1177.03,-563.48 1182.42,-567.94"/>
<text text-anchor="middle" x="1240.5" y="-579.8" font-family="Times,serif" font-size="14.00">setresuid(0,0,1000)</text>
</g>
<!-- R=0,E=1000,S=0 -->
<g id="node3" class="node">
<title>R=0,E=1000,S=0</title>
<ellipse fill="none" stroke="black" cx="995" cy="-453" rx="94.78" ry="18"/>
<text text-anchor="middle" x="995" y="-449.3" font-family="Times,serif" font-size="14.00">R=0,E=1000,S=0</text>
</g>
<!-- R=0,E=0,S=0&#45;&gt;R=0,E=1000,S=0 -->
<g id="edge3" class="edge">
<title>R=0,E=0,S=0&#45;&gt;R=0,E=1000,S=0</title>
<path fill="none" stroke="black" d="M916.04,-614.23C856.92,-598.91 775.45,-568.47 808,-522 822.25,-501.66 879.47,-482.72 926.91,-470.02"/>
<polygon fill="black" stroke="black" points="928.08,-473.33 936.86,-467.41 926.3,-466.56 928.08,-473.33"/>
<text text-anchor="middle" x="878.5" y="-536.3" font-family="Times,serif" font-size="14.00">setresuid(0,1000,0)</text>
</g>
<!-- R=0,E=1000,S=1000 -->
<g id="node4" class="node">
<title>R=0,E=1000,S=1000</title>
<ellipse fill="none" stroke="black" cx="1494" cy="-105" rx="112.38" ry="18"/>
<text text-anchor="middle" x="1494" y="-101.3" font-family="Times,serif" font-size="14.00">R=0,E=1000,S=1000</text>
</g>
<!-- R=0,E=0,S=0&#45;&gt;R=0,E=1000,S=1000 -->
<g id="edge4" class="edge">
<title>R=0,E=0,S=0&#45;&gt;R=0,E=1000,S=1000</title>
<path fill="none" stroke="black" d="M1048.15,-625.56C1348.74,-623.36 2425,-610.62 2425,-541 2425,-541 2425,-541 2425,-191 2425,-91.16 2304.91,-154.61 2206,-141 2000.51,-112.71 1758.91,-106.46 1616.55,-105.52"/>
<polygon fill="black" stroke="black" points="1616.5,-102.02 1606.48,-105.46 1616.45,-109.02 1616.5,-102.02"/>
<text text-anchor="middle" x="2509" y="-362.3" font-family="Times,serif" font-size="14.00">setresuid(0,1000,1000)</text>
</g>
<!-- R=1000,E=0,S=0 -->
<g id="node5" class="node">
<title>R=1000,E=0,S=0</title>
<ellipse fill="none" stroke="black" cx="860" cy="-192" rx="94.78" ry="18"/>
<text text-anchor="middle" x="860" y="-188.3" font-family="Times,serif" font-size="14.00">R=1000,E=0,S=0</text>
</g>
<!-- R=0,E=0,S=0&#45;&gt;R=1000,E=0,S=0 -->
<g id="edge5" class="edge">
<title>R=0,E=0,S=0&#45;&gt;R=1000,E=0,S=0</title>
<path fill="none" stroke="black" d="M893.7,-625.42C727.44,-623.68 346.61,-616.88 294,-591 202.64,-546.06 180.3,-512.5 145,-417 142.69,-410.75 142.32,-408.11 145,-402 156.47,-375.86 307.77,-239.25 334,-228 343.67,-223.85 610.88,-207.6 760.63,-198.78"/>
<polygon fill="black" stroke="black" points="760.99,-202.26 770.76,-198.18 760.58,-195.28 760.99,-202.26"/>
<text text-anchor="middle" x="215.5" y="-405.8" font-family="Times,serif" font-size="14.00">setresuid(1000,0,0)</text>
</g>
<!-- R=1000,E=0,S=1000 -->
<g id="node6" class="node">
<title>R=1000,E=0,S=1000</title>
<ellipse fill="none" stroke="black" cx="1678" cy="-279" rx="112.38" ry="18"/>
<text text-anchor="middle" x="1678" y="-275.3" font-family="Times,serif" font-size="14.00">R=1000,E=0,S=1000</text>
</g>
<!-- R=0,E=0,S=0&#45;&gt;R=1000,E=0,S=1000 -->
<g id="edge6" class="edge">
<title>R=0,E=0,S=0&#45;&gt;R=1000,E=0,S=1000</title>
<path fill="none" stroke="black" d="M1048.32,-625.29C1294.39,-622.79 2045.95,-613.38 2093,-591 2156.73,-560.69 2172.33,-537.12 2197,-471 2214.12,-425.1 2191.35,-332.64 2171,-315 2143.56,-291.22 1936.88,-283.58 1799.98,-281.14"/>
<polygon fill="black" stroke="black" points="1799.9,-277.64 1789.84,-280.97 1799.78,-284.64 1799.9,-277.64"/>
<text text-anchor="middle" x="2286" y="-449.3" font-family="Times,serif" font-size="14.00">setresuid(1000,0,1000)</text>
</g>
<!-- R=1000,E=1000,S=0 -->
<g id="node7" class="node">
<title>R=1000,E=1000,S=0</title>
<ellipse fill="none" stroke="black" cx="537" cy="-366" rx="112.38" ry="18"/>
<text text-anchor="middle" x="537" y="-362.3" font-family="Times,serif" font-size="14.00">R=1000,E=1000,S=0</text>
</g>
<!-- R=0,E=0,S=0&#45;&gt;R=1000,E=1000,S=0 -->
<g id="edge7" class="edge">
<title>R=0,E=0,S=0&#45;&gt;R=1000,E=1000,S=0</title>
<path fill="none" stroke="black" d="M894.36,-624.52C791.44,-617.88 612.02,-588.92 530,-471 514.41,-448.58 519.63,-416.46 526.54,-393.86"/>
<polygon fill="black" stroke="black" points="529.92,-394.81 529.77,-384.22 523.28,-392.59 529.92,-394.81"/>
<text text-anchor="middle" x="642" y="-492.8" font-family="Times,serif" font-size="14.00">setresuid(1000,1000,0)</text>
</g>
<!-- R=1000,E=1000,S=1000 -->
<g id="node8" class="node">
<title>R=1000,E=1000,S=1000</title>
<ellipse fill="none" stroke="black" cx="345" cy="-18" rx="129.98" ry="18"/>
<text text-anchor="middle" x="345" y="-14.3" font-family="Times,serif" font-size="14.00">R=1000,E=1000,S=1000</text>
</g>
<!-- R=0,E=0,S=0&#45;&gt;R=1000,E=1000,S=1000 -->
<g id="edge8" class="edge">
<title>R=0,E=0,S=0&#45;&gt;R=1000,E=1000,S=1000</title>
<path fill="none" stroke="black" d="M893.7,-625.67C763.23,-624.34 491.21,-618.2 263,-591 144.85,-576.92 0,-659.98 0,-541 0,-541 0,-541 0,-104 0,-57.56 119.36,-36.34 217.67,-26.74"/>
<polygon fill="black" stroke="black" points="218.09,-30.22 227.72,-25.8 217.43,-23.25 218.09,-30.22"/>
<text text-anchor="middle" x="97.5" y="-318.8" font-family="Times,serif" font-size="14.00">setresuid(1000,1000,1000)</text>
</g>
<!-- R=0,E=0,S=1000&#45;&gt;R=0,E=0,S=0 -->
<g id="edge9" class="edge">
<title>R=0,E=0,S=1000&#45;&gt;R=0,E=0,S=0</title>
<path fill="none" stroke="black" d="M1128.18,-552.31C1090.82,-559.03 1049.06,-567.82 1032,-576 1018.42,-582.51 1005.25,-592.66 994.65,-602.11"/>
<polygon fill="black" stroke="black" points="992.03,-599.77 987.07,-609.13 996.79,-604.9 992.03,-599.77"/>
<text text-anchor="middle" x="1089" y="-579.8" font-family="Times,serif" font-size="14.00">setresuid(0,0,0)</text>
</g>
<!-- R=0,E=0,S=1000&#45;&gt;R=0,E=0,S=1000 -->
<g id="edge10" class="edge">
<title>R=0,E=0,S=1000&#45;&gt;R=0,E=0,S=1000</title>
<path fill="none" stroke="black" d="M1284.62,-547.41C1300.09,-546.45 1310.89,-543.98 1310.89,-540 1310.89,-536.95 1304.56,-534.79 1294.65,-533.51"/>
<polygon fill="black" stroke="black" points="1294.9,-530.02 1284.62,-532.59 1294.25,-536.99 1294.9,-530.02"/>
<text text-anchor="middle" x="1381.39" y="-536.3" font-family="Times,serif" font-size="14.00">setresuid(0,0,1000)</text>
</g>
<!-- R=0,E=0,S=1000&#45;&gt;R=0,E=1000,S=0 -->
<g id="edge11" class="edge">
<title>R=0,E=0,S=1000&#45;&gt;R=0,E=1000,S=0</title>
<path fill="none" stroke="black" d="M1129.36,-527.43C1086.04,-519.69 1036.67,-509.87 1028,-504 1019.31,-498.11 1012.34,-489.1 1007.09,-480.33"/>
<polygon fill="black" stroke="black" points="1010.09,-478.54 1002.23,-471.43 1003.95,-481.89 1010.09,-478.54"/>
<text text-anchor="middle" x="1098.5" y="-492.8" font-family="Times,serif" font-size="14.00">setresuid(0,1000,0)</text>
</g>
<!-- R=0,E=0,S=1000&#45;&gt;R=0,E=1000,S=1000 -->
<g id="edge12" class="edge">
<title>R=0,E=0,S=1000&#45;&gt;R=0,E=1000,S=1000</title>
<path fill="none" stroke="black" d="M1292.95,-539.34C1493.46,-539.41 1946.8,-535.98 2009,-504 2043.63,-486.19 2038.66,-465.4 2063,-435 2100.7,-387.91 2122.14,-384.01 2149,-330 2184.43,-258.77 2181.6,-235 2191,-156 2191.79,-149.38 2195.59,-145.83 2191,-141 2171.53,-120.53 1810.36,-111.31 1615.8,-107.81"/>
<polygon fill="black" stroke="black" points="1615.58,-104.31 1605.52,-107.63 1615.46,-111.31 1615.58,-104.31"/>
<text text-anchor="middle" x="2240" y="-318.8" font-family="Times,serif" font-size="14.00">setresuid(0,1000,1000)</text>
</g>
<!-- R=0,E=0,S=1000&#45;&gt;R=1000,E=0,S=0 -->
<g id="edge13" class="edge">
<title>R=0,E=0,S=1000&#45;&gt;R=1000,E=0,S=0</title>
<path fill="none" stroke="black" d="M1268.51,-527.87C1288.71,-522.65 1310.1,-515.05 1328,-504 1407.84,-454.74 1494.09,-375.03 1422,-315 1389.98,-288.34 1370.14,-308.15 1330,-297 1284.89,-284.47 1276.45,-272.25 1231,-261 1173.95,-246.88 1157.91,-253 1100,-243 1041.85,-232.96 976.3,-219.13 928.41,-208.56"/>
<polygon fill="black" stroke="black" points="928.99,-205.1 918.47,-206.36 927.48,-211.94 928.99,-205.1"/>
<text text-anchor="middle" x="1520.5" y="-362.3" font-family="Times,serif" font-size="14.00">setresuid(1000,0,0)</text>
</g>
<!-- R=0,E=0,S=1000&#45;&gt;R=1000,E=0,S=1000 -->
<g id="edge14" class="edge">
<title>R=0,E=0,S=1000&#45;&gt;R=1000,E=0,S=1000</title>
<path fill="none" stroke="black" d="M1292.56,-538.03C1413.53,-535.79 1615.79,-528.38 1686,-504 1750.98,-481.43 1779.09,-476.27 1814,-417 1824.73,-398.78 1825.23,-325.56 1817,-315 1810.1,-306.15 1790.82,-299.2 1768.74,-293.89"/>
<polygon fill="black" stroke="black" points="1769.31,-290.43 1758.78,-291.65 1767.77,-297.26 1769.31,-290.43"/>
<text text-anchor="middle" x="1902" y="-405.8" font-family="Times,serif" font-size="14.00">setresuid(1000,0,1000)</text>
</g>
<!-- R=0,E=0,S=1000&#45;&gt;R=1000,E=1000,S=0 -->
<g id="edge15" class="edge">
<title>R=0,E=0,S=1000&#45;&gt;R=1000,E=1000,S=0</title>
<path fill="none" stroke="black" d="M1133.07,-526.8C1121.43,-524.95 1109.38,-523.24 1098,-522 935.21,-504.25 891.39,-531.73 730,-504 707.13,-500.07 702.67,-493.95 680,-489 651.72,-482.82 571.42,-491.52 551,-471 531.27,-451.18 530.17,-417.74 532.45,-394.14"/>
<polygon fill="black" stroke="black" points="535.94,-394.42 533.68,-384.07 528.99,-393.57 535.94,-394.42"/>
<text text-anchor="middle" x="635" y="-449.3" font-family="Times,serif" font-size="14.00">setresuid(1000,1000,0)</text>
</g>
<!-- R=0,E=0,S=1000&#45;&gt;R=1000,E=1000,S=1000 -->
<g id="edge16" class="edge">
<title>R=0,E=0,S=1000&#45;&gt;R=1000,E=1000,S=1000</title>
<path fill="none" stroke="black" d="M1133.62,-526.73C1121.81,-524.86 1109.56,-523.16 1098,-522 1036.39,-515.8 598.67,-526.54 541,-504 476.43,-478.77 484.24,-434.48 423,-402 395.76,-387.55 385.09,-394.23 356,-384 284.1,-358.71 272.55,-335.01 199,-315 165.97,-306.01 68.75,-322.58 46,-297 28.13,-276.91 46,-263.39 46,-236.5 46,-236.5 46,-236.5 46,-104 46,-63.96 146.44,-41.78 230.89,-30.21"/>
<polygon fill="black" stroke="black" points="231.39,-33.67 240.84,-28.88 230.47,-26.74 231.39,-33.67"/>
<text text-anchor="middle" x="143.5" y="-275.3" font-family="Times,serif" font-size="14.00">setresuid(1000,1000,1000)</text>
</g>
<!-- R=0,E=1000,S=0&#45;&gt;R=0,E=0,S=0 -->
<g id="edge17" class="edge">
<title>R=0,E=1000,S=0&#45;&gt;R=0,E=0,S=0</title>
<path fill="none" stroke="black" d="M990.55,-471.21C987.17,-484.89 982.67,-504.55 980,-522 976.03,-547.93 973.68,-577.79 972.38,-598.85"/>
<polygon fill="black" stroke="black" points="968.87,-598.8 971.79,-608.99 975.86,-599.21 968.87,-598.8"/>
<text text-anchor="middle" x="1037" y="-536.3" font-family="Times,serif" font-size="14.00">setresuid(0,0,0)</text>
</g>
<!-- R=0,E=1000,S=0&#45;&gt;R=0,E=0,S=1000 -->
<g id="edge18" class="edge">
<title>R=0,E=1000,S=0&#45;&gt;R=0,E=0,S=1000</title>
<path fill="none" stroke="black" d="M1073.23,-463.37C1111.83,-469.24 1153.41,-477.83 1169,-489 1177.15,-494.84 1183.35,-503.73 1187.89,-512.41"/>
<polygon fill="black" stroke="black" points="1184.77,-514 1192.17,-521.58 1191.11,-511.04 1184.77,-514"/>
<text text-anchor="middle" x="1253.5" y="-492.8" font-family="Times,serif" font-size="14.00">setresuid(0,0,1000)</text>
</g>
<!-- R=0,E=1000,S=0&#45;&gt;R=0,E=1000,S=0 -->
<g id="edge19" class="edge">
<title>R=0,E=1000,S=0&#45;&gt;R=0,E=1000,S=0</title>
<path fill="none" stroke="black" d="M1081.62,-460.41C1097.09,-459.45 1107.89,-456.98 1107.89,-453 1107.89,-449.95 1101.56,-447.79 1091.65,-446.51"/>
<polygon fill="black" stroke="black" points="1091.9,-443.02 1081.62,-445.59 1091.25,-449.99 1091.9,-443.02"/>
<text text-anchor="middle" x="1178.39" y="-449.3" font-family="Times,serif" font-size="14.00">setresuid(0,1000,0)</text>
</g>
<!-- R=0,E=1000,S=0&#45;&gt;R=0,E=1000,S=1000 -->
<g id="edge20" class="edge">
<title>R=0,E=1000,S=0&#45;&gt;R=0,E=1000,S=1000</title>
<path fill="none" stroke="black" d="M993.52,-434.72C991.99,-407.43 992.32,-353.5 1014,-315 1044.08,-261.6 1067.19,-257.35 1121,-228 1217.6,-175.31 1340.76,-140.54 1418.53,-122.06"/>
<polygon fill="black" stroke="black" points="1419.79,-125.36 1428.72,-119.67 1418.19,-118.54 1419.79,-125.36"/>
<text text-anchor="middle" x="1145" y="-275.3" font-family="Times,serif" font-size="14.00">setresuid(0,1000,1000)</text>
</g>
<!-- R=0,E=1000,S=0&#45;&gt;R=1000,E=0,S=0 -->
<g id="edge21" class="edge">
<title>R=0,E=1000,S=0&#45;&gt;R=1000,E=0,S=0</title>
<path fill="none" stroke="black" d="M973.84,-435.36C939.33,-408.58 871.98,-357.92 844,-348 809.65,-335.82 705.31,-357.15 681,-330 676.55,-325.03 676.5,-319.92 681,-315 711.26,-281.91 851.74,-330.09 882,-297 901.27,-275.93 889.22,-242.35 876.66,-219.07"/>
<polygon fill="black" stroke="black" points="879.53,-217.04 871.52,-210.1 873.45,-220.52 879.53,-217.04"/>
<text text-anchor="middle" x="751.5" y="-318.8" font-family="Times,serif" font-size="14.00">setresuid(1000,0,0)</text>
</g>
<!-- R=0,E=1000,S=0&#45;&gt;R=1000,E=0,S=1000 -->
<g id="edge22" class="edge">
<title>R=0,E=1000,S=0&#45;&gt;R=1000,E=0,S=1000</title>
<path fill="none" stroke="black" d="M1021.58,-435.64C1029.28,-430.23 1037.38,-423.83 1044,-417 1069.64,-390.52 1057.99,-366.28 1090,-348 1121.7,-329.9 1381.79,-334.59 1418,-330 1451.72,-325.72 1459.63,-321.49 1493,-315 1527.31,-308.32 1565.24,-301.12 1597.77,-294.99"/>
<polygon fill="black" stroke="black" points="1598.51,-298.41 1607.69,-293.12 1597.21,-291.53 1598.51,-298.41"/>
<text text-anchor="middle" x="1174" y="-362.3" font-family="Times,serif" font-size="14.00">setresuid(1000,0,1000)</text>
</g>
<!-- R=0,E=1000,S=0&#45;&gt;R=1000,E=1000,S=0 -->
<g id="edge23" class="edge">
<title>R=0,E=1000,S=0&#45;&gt;R=1000,E=1000,S=0</title>
<path fill="none" stroke="black" d="M924.66,-440.89C911.8,-438.9 898.5,-436.87 886,-435 830.05,-426.64 812.94,-436.92 760,-417 748.58,-412.7 748.35,-406.48 737,-402 707.19,-390.25 673.33,-382.43 642.05,-377.23"/>
<polygon fill="black" stroke="black" points="642.42,-373.74 632,-375.63 641.33,-380.66 642.42,-373.74"/>
<text text-anchor="middle" x="844" y="-405.8" font-family="Times,serif" font-size="14.00">setresuid(1000,1000,0)</text>
</g>
<!-- R=0,E=1000,S=0&#45;&gt;R=1000,E=1000,S=1000 -->
<g id="edge24" class="edge">
<title>R=0,E=1000,S=0&#45;&gt;R=1000,E=1000,S=1000</title>
<path fill="none" stroke="black" d="M930.06,-439.87C918.42,-438 906.38,-436.28 895,-435 682.25,-411.1 611.72,-470.78 416,-384 330.42,-346.05 331.96,-295.69 245,-261 217.5,-250.03 132.47,-265.3 113,-243 42.49,-162.22 207.33,-76.93 294.84,-39.1"/>
<polygon fill="black" stroke="black" points="296.26,-42.3 304.08,-35.15 293.51,-35.86 296.26,-42.3"/>
<text text-anchor="middle" x="210.5" y="-231.8" font-family="Times,serif" font-size="14.00">setresuid(1000,1000,1000)</text>
</g>
<!-- R=0,E=1000,S=1000&#45;&gt;R=0,E=0,S=0 -->
<g id="edge25" class="edge">
<title>R=0,E=1000,S=1000&#45;&gt;R=0,E=0,S=0</title>
<path fill="none" stroke="black" d="M1604.38,-108.57C1889.6,-115.94 2629,-139.96 2629,-191 2629,-541 2629,-541 2629,-541 2629,-620.38 1400.8,-626.08 1058.58,-626.13"/>
<polygon fill="black" stroke="black" points="1058.47,-622.63 1048.47,-626.13 1058.47,-629.63 1058.47,-622.63"/>
<text text-anchor="middle" x="2686" y="-362.3" font-family="Times,serif" font-size="14.00">setresuid(0,0,0)</text>
</g>
<!-- R=0,E=1000,S=1000&#45;&gt;R=0,E=0,S=1000 -->
<g id="edge26" class="edge">
<title>R=0,E=1000,S=1000&#45;&gt;R=0,E=0,S=1000</title>
<path fill="none" stroke="black" d="M1588.18,-114.84C1690.99,-125.7 1848.06,-146.15 1901,-174 1948.57,-199.02 1963.99,-211.53 1985,-261 2023.47,-351.57 1994.27,-411.13 1990,-417 1916.07,-518.61 1844.4,-480.29 1721,-504 1577.94,-531.49 1409.28,-538.28 1302.99,-539.52"/>
<polygon fill="black" stroke="black" points="1302.86,-536.02 1292.9,-539.62 1302.93,-543.02 1302.86,-536.02"/>
<text text-anchor="middle" x="2073.5" y="-318.8" font-family="Times,serif" font-size="14.00">setresuid(0,0,1000)</text>
</g>
<!-- R=0,E=1000,S=1000&#45;&gt;R=0,E=1000,S=0 -->
<g id="edge27" class="edge">
<title>R=0,E=1000,S=1000&#45;&gt;R=0,E=1000,S=0</title>
<path fill="none" stroke="black" d="M1497.77,-123.04C1502.98,-151.45 1508.78,-208.78 1480,-243 1460.98,-265.61 1437.38,-240.61 1416,-261 1392.61,-283.31 1418.7,-310.4 1393,-330 1334.07,-374.94 1123.82,-310.34 1060,-348 1044.83,-356.95 1022.11,-397.79 1007.94,-425.55"/>
<polygon fill="black" stroke="black" points="1004.68,-424.24 1003.31,-434.75 1010.93,-427.39 1004.68,-424.24"/>
<text text-anchor="middle" x="1486.5" y="-275.3" font-family="Times,serif" font-size="14.00">setresuid(0,1000,0)</text>
</g>
<!-- R=0,E=1000,S=1000&#45;&gt;R=0,E=1000,S=1000 -->
<g id="edge28" class="edge">
<title>R=0,E=1000,S=1000&#45;&gt;R=0,E=1000,S=1000</title>
<path fill="none" stroke="black" d="M1597.07,-112.23C1613.33,-111.16 1624.44,-108.75 1624.44,-105 1624.44,-102.1 1617.79,-100 1607.26,-98.7"/>
<polygon fill="black" stroke="black" points="1607.35,-95.19 1597.07,-97.77 1606.71,-102.16 1607.35,-95.19"/>
<text text-anchor="middle" x="1708.44" y="-101.3" font-family="Times,serif" font-size="14.00">setresuid(0,1000,1000)</text>
</g>
<!-- R=0,E=1000,S=1000&#45;&gt;R=1000,E=0,S=0 -->
<g id="edge29" class="edge">
<title>R=0,E=1000,S=1000&#45;&gt;R=1000,E=0,S=0</title>
<path fill="none" stroke="black" d="M1382.7,-107.62C1190.73,-110.95 815.86,-120.12 796,-141 785.68,-151.85 794.93,-162.3 809.29,-170.81"/>
<polygon fill="black" stroke="black" points="807.76,-173.96 818.22,-175.59 811.06,-167.79 807.76,-173.96"/>
<text text-anchor="middle" x="866.5" y="-144.8" font-family="Times,serif" font-size="14.00">setresuid(1000,0,0)</text>
</g>
<!-- R=0,E=1000,S=1000&#45;&gt;R=1000,E=0,S=1000 -->
<g id="edge30" class="edge">
<title>R=0,E=1000,S=1000&#45;&gt;R=1000,E=0,S=1000</title>
<path fill="none" stroke="black" d="M1500.39,-122.98C1509.46,-145.26 1527.93,-184.49 1554,-210 1574.84,-230.39 1603.02,-246.49 1627.25,-257.9"/>
<polygon fill="black" stroke="black" points="1626.12,-261.23 1636.67,-262.2 1629.02,-254.86 1626.12,-261.23"/>
<text text-anchor="middle" x="1638" y="-188.3" font-family="Times,serif" font-size="14.00">setresuid(1000,0,1000)</text>
</g>
<!-- R=0,E=1000,S=1000&#45;&gt;R=1000,E=1000,S=0 -->
<g id="edge31" class="edge">
<title>R=0,E=1000,S=1000&#45;&gt;R=1000,E=1000,S=0</title>
<path fill="none" stroke="black" d="M1384.09,-108.99C1147.35,-115.6 609.14,-131.62 592,-141 559.23,-158.94 575.82,-190.43 544,-210 495.06,-240.09 453.69,-184.64 416,-228 383.25,-265.67 426.77,-295.66 463,-330 468.87,-335.57 475.8,-340.39 483.01,-344.52"/>
<polygon fill="black" stroke="black" points="481.77,-347.83 492.25,-349.4 485.04,-341.64 481.77,-347.83"/>
<text text-anchor="middle" x="500" y="-231.8" font-family="Times,serif" font-size="14.00">setresuid(1000,1000,0)</text>
</g>
<!-- R=0,E=1000,S=1000&#45;&gt;R=1000,E=1000,S=1000 -->
<g id="edge32" class="edge">
<title>R=0,E=1000,S=1000&#45;&gt;R=1000,E=1000,S=1000</title>
<path fill="none" stroke="black" d="M1394.04,-96.61C1183.56,-81.03 695.28,-44.91 466.89,-28.02"/>
<polygon fill="black" stroke="black" points="467.11,-24.52 456.88,-27.28 466.59,-31.5 467.11,-24.52"/>
<text text-anchor="middle" x="1086.5" y="-57.8" font-family="Times,serif" font-size="14.00">setresuid(1000,1000,1000)</text>
</g>
<!-- R=1000,E=0,S=0&#45;&gt;R=0,E=0,S=0 -->
<g id="edge33" class="edge">
<title>R=1000,E=0,S=0&#45;&gt;R=0,E=0,S=0</title>
<path fill="none" stroke="black" d="M769.25,-197.41C640.12,-204.06 417.29,-217.03 403,-228 206.75,-378.75 319.24,-346.7 342,-417 365.83,-490.58 379.86,-514.78 444,-558 514.02,-605.18 753.33,-619.66 884.05,-624.08"/>
<polygon fill="black" stroke="black" points="884.32,-627.59 894.43,-624.41 884.54,-620.59 884.32,-627.59"/>
<text text-anchor="middle" x="399" y="-405.8" font-family="Times,serif" font-size="14.00">setresuid(0,0,0)</text>
</g>
<!-- R=1000,E=0,S=0&#45;&gt;R=0,E=0,S=1000 -->
<g id="edge34" class="edge">
<title>R=1000,E=0,S=0&#45;&gt;R=0,E=0,S=1000</title>
<path fill="none" stroke="black" d="M935.4,-202.95C977.08,-209.01 1029.67,-217.6 1076,-228 1099.47,-233.27 1104.4,-238.36 1128,-243 1201.25,-257.4 1222.56,-242.97 1295,-261 1336.81,-271.41 1343.96,-283.88 1385,-297 1476.49,-326.24 1535.64,-272.5 1595,-348 1683.23,-460.23 1431.78,-510.34 1289.05,-529.25"/>
<polygon fill="black" stroke="black" points="1288.44,-525.8 1278.97,-530.56 1289.34,-532.74 1288.44,-525.8"/>
<text text-anchor="middle" x="1682.5" y="-362.3" font-family="Times,serif" font-size="14.00">setresuid(0,0,1000)</text>
</g>
<!-- R=1000,E=0,S=0&#45;&gt;R=0,E=1000,S=0 -->
<g id="edge35" class="edge">
<title>R=1000,E=0,S=0&#45;&gt;R=0,E=1000,S=0</title>
<path fill="none" stroke="black" d="M884.11,-209.55C889.94,-214.76 895.49,-221.01 899,-228 912.77,-255.44 920.15,-272.24 902,-297 889.08,-314.63 821.09,-294.39 845,-330 856.78,-347.54 870.93,-337.05 889,-348 920.83,-367.28 926.71,-375.65 953,-402 960.81,-409.82 968.76,-418.94 975.61,-427.23"/>
<polygon fill="black" stroke="black" points="973.04,-429.61 982.06,-435.17 978.47,-425.2 973.04,-429.61"/>
<text text-anchor="middle" x="915.5" y="-318.8" font-family="Times,serif" font-size="14.00">setresuid(0,1000,0)</text>
</g>
<!-- R=1000,E=0,S=0&#45;&gt;R=0,E=1000,S=1000 -->
<g id="edge36" class="edge">
<title>R=1000,E=0,S=0&#45;&gt;R=0,E=1000,S=1000</title>
<path fill="none" stroke="black" d="M897.37,-175.38C910.15,-169.68 924.39,-162.93 937,-156 947.7,-150.12 948.42,-144.86 960,-141 1033.56,-116.49 1238.18,-109.06 1371.7,-106.86"/>
<polygon fill="black" stroke="black" points="1372.05,-110.36 1381.99,-106.7 1371.94,-103.36 1372.05,-110.36"/>
<text text-anchor="middle" x="1044" y="-144.8" font-family="Times,serif" font-size="14.00">setresuid(0,1000,1000)</text>
</g>
<!-- R=1000,E=0,S=0&#45;&gt;R=1000,E=0,S=0 -->
<g id="edge37" class="edge">
<title>R=1000,E=0,S=0&#45;&gt;R=1000,E=0,S=0</title>
<path fill="none" stroke="black" d="M946.62,-199.41C962.09,-198.45 972.89,-195.98 972.89,-192 972.89,-188.95 966.56,-186.79 956.65,-185.51"/>
<polygon fill="black" stroke="black" points="956.9,-182.02 946.62,-184.59 956.25,-188.99 956.9,-182.02"/>
<text text-anchor="middle" x="1043.39" y="-188.3" font-family="Times,serif" font-size="14.00">setresuid(1000,0,0)</text>
</g>
<!-- R=1000,E=0,S=0&#45;&gt;R=1000,E=0,S=1000 -->
<g id="edge38" class="edge">
<title>R=1000,E=0,S=0&#45;&gt;R=1000,E=0,S=1000</title>
<path fill="none" stroke="black" d="M951.62,-196.95C1038.76,-201.54 1173.33,-210.79 1289,-228 1320.04,-232.62 1326.99,-238.21 1358,-243 1443.58,-256.22 1465.96,-251.21 1552,-261 1563.2,-262.27 1574.94,-263.72 1586.56,-265.21"/>
<polygon fill="black" stroke="black" points="1586.36,-268.71 1596.73,-266.53 1587.26,-261.77 1586.36,-268.71"/>
<text text-anchor="middle" x="1442" y="-231.8" font-family="Times,serif" font-size="14.00">setresuid(1000,0,1000)</text>
</g>
<!-- R=1000,E=0,S=0&#45;&gt;R=1000,E=1000,S=0 -->
<g id="edge39" class="edge">
<title>R=1000,E=0,S=0&#45;&gt;R=1000,E=1000,S=0</title>
<path fill="none" stroke="black" d="M844.25,-209.88C832.96,-220.96 816.84,-234.85 800,-243 764.85,-260 749.41,-244.54 714,-261 690.46,-271.94 689.84,-282.96 668,-297 640.36,-314.77 607.53,-331.81 581.66,-344.38"/>
<polygon fill="black" stroke="black" points="579.96,-341.31 572.46,-348.8 582.99,-347.62 579.96,-341.31"/>
<text text-anchor="middle" x="798" y="-275.3" font-family="Times,serif" font-size="14.00">setresuid(1000,1000,0)</text>
</g>
<!-- R=1000,E=0,S=0&#45;&gt;R=1000,E=1000,S=1000 -->
<g id="edge40" class="edge">
<title>R=1000,E=0,S=0&#45;&gt;R=1000,E=1000,S=1000</title>
<path fill="none" stroke="black" d="M815.2,-176.04C721.55,-144.76 505.25,-72.52 401.93,-38.01"/>
<polygon fill="black" stroke="black" points="402.89,-34.64 392.3,-34.8 400.67,-41.28 402.89,-34.64"/>
<text text-anchor="middle" x="751.5" y="-101.3" font-family="Times,serif" font-size="14.00">setresuid(1000,1000,1000)</text>
</g>
<!-- R=1000,E=0,S=1000&#45;&gt;R=0,E=0,S=0 -->
<g id="edge41" class="edge">
<title>R=1000,E=0,S=1000&#45;&gt;R=0,E=0,S=0</title>
<path fill="none" stroke="black" d="M1790.11,-280.56C1920.87,-282.41 2122.27,-289.43 2146,-315 2187.55,-359.77 2108.34,-381.43 2079,-435 2062.76,-464.65 2074.37,-484.15 2047,-504 1889.89,-617.93 1286.39,-627.45 1058.66,-626.86"/>
<polygon fill="black" stroke="black" points="1058.44,-623.36 1048.43,-626.83 1058.42,-630.36 1058.44,-623.36"/>
<text text-anchor="middle" x="2136" y="-449.3" font-family="Times,serif" font-size="14.00">setresuid(0,0,0)</text>
</g>
<!-- R=1000,E=0,S=1000&#45;&gt;R=0,E=0,S=1000 -->
<g id="edge42" class="edge">
<title>R=1000,E=0,S=1000&#45;&gt;R=0,E=0,S=1000</title>
<path fill="none" stroke="black" d="M1713.57,-296.11C1752.76,-316.02 1806.79,-351.3 1779,-384 1746.92,-421.75 1704.74,-367.69 1669,-402 1635.61,-434.05 1682.71,-473.39 1648,-504 1622.67,-526.34 1427.36,-534.46 1302.51,-537.39"/>
<polygon fill="black" stroke="black" points="1302.07,-533.9 1292.16,-537.62 1302.23,-540.89 1302.07,-533.9"/>
<text text-anchor="middle" x="1739.5" y="-405.8" font-family="Times,serif" font-size="14.00">setresuid(0,0,1000)</text>
</g>
<!-- R=1000,E=0,S=1000&#45;&gt;R=0,E=1000,S=0 -->
<g id="edge43" class="edge">
<title>R=1000,E=0,S=1000&#45;&gt;R=0,E=1000,S=0</title>
<path fill="none" stroke="black" d="M1624.54,-294.94C1582.77,-306.11 1523.09,-320.95 1470,-330 1392.49,-343.22 1365.02,-314.25 1294,-348 1273.56,-357.71 1277.65,-372.77 1258,-384 1204.43,-414.61 1136.94,-431.7 1083.73,-441.08"/>
<polygon fill="black" stroke="black" points="1082.9,-437.67 1073.63,-442.8 1084.08,-444.57 1082.9,-437.67"/>
<text text-anchor="middle" x="1364.5" y="-362.3" font-family="Times,serif" font-size="14.00">setresuid(0,1000,0)</text>
</g>
<!-- R=1000,E=0,S=1000&#45;&gt;R=0,E=1000,S=1000 -->
<g id="edge44" class="edge">
<title>R=1000,E=0,S=1000&#45;&gt;R=0,E=1000,S=1000</title>
<path fill="none" stroke="black" d="M1695.27,-260.87C1715.05,-239.13 1742.27,-201.19 1722,-174 1704.47,-150.48 1636.21,-132.13 1578.91,-120.45"/>
<polygon fill="black" stroke="black" points="1579.57,-117.01 1569.08,-118.49 1578.2,-123.88 1579.57,-117.01"/>
<text text-anchor="middle" x="1813" y="-188.3" font-family="Times,serif" font-size="14.00">setresuid(0,1000,1000)</text>
</g>
<!-- R=1000,E=0,S=1000&#45;&gt;R=1000,E=0,S=0 -->
<g id="edge45" class="edge">
<title>R=1000,E=0,S=1000&#45;&gt;R=1000,E=0,S=0</title>
<path fill="none" stroke="black" d="M1598.81,-266.21C1583.32,-264.21 1567.17,-262.36 1552,-261 1461.61,-252.92 1229.06,-274.65 1144,-243 1133.92,-239.25 1134.91,-232.19 1125,-228 1095.23,-215.42 1019.39,-206.17 956.44,-200.35"/>
<polygon fill="black" stroke="black" points="956.73,-196.86 946.46,-199.44 956.1,-203.83 956.73,-196.86"/>
<text text-anchor="middle" x="1214.5" y="-231.8" font-family="Times,serif" font-size="14.00">setresuid(1000,0,0)</text>
</g>
<!-- R=1000,E=0,S=1000&#45;&gt;R=1000,E=0,S=1000 -->
<g id="edge46" class="edge">
<title>R=1000,E=0,S=1000&#45;&gt;R=1000,E=0,S=1000</title>
<path fill="none" stroke="black" d="M1781.07,-286.23C1797.33,-285.16 1808.44,-282.75 1808.44,-279 1808.44,-276.1 1801.79,-274 1791.26,-272.7"/>
<polygon fill="black" stroke="black" points="1791.35,-269.19 1781.07,-271.77 1790.71,-276.16 1791.35,-269.19"/>
<text text-anchor="middle" x="1892.44" y="-275.3" font-family="Times,serif" font-size="14.00">setresuid(1000,0,1000)</text>
</g>
<!-- R=1000,E=0,S=1000&#45;&gt;R=1000,E=1000,S=0 -->
<g id="edge47" class="edge">
<title>R=1000,E=0,S=1000&#45;&gt;R=1000,E=1000,S=0</title>
<path fill="none" stroke="black" d="M1599.16,-291.86C1583.56,-293.86 1567.29,-295.71 1552,-297 1437.23,-306.71 1147.36,-294.58 1034,-315 1013.25,-318.74 1009.66,-325.82 989,-330 878.76,-352.29 750.76,-360.6 659.18,-363.59"/>
<polygon fill="black" stroke="black" points="658.92,-360.1 649.03,-363.91 659.14,-367.1 658.92,-360.1"/>
<text text-anchor="middle" x="1118" y="-318.8" font-family="Times,serif" font-size="14.00">setresuid(1000,1000,0)</text>
</g>
<!-- R=1000,E=0,S=1000&#45;&gt;R=1000,E=1000,S=1000 -->
<g id="edge48" class="edge">
<title>R=1000,E=0,S=1000&#45;&gt;R=1000,E=1000,S=1000</title>
<path fill="none" stroke="black" d="M1773.61,-269.45C1884.28,-255.67 2044.12,-221.42 1984,-141 1933.23,-73.08 1884.57,-101.38 1801,-87 1550.43,-43.9 796.15,-26.56 483.3,-21.1"/>
<polygon fill="black" stroke="black" points="483.32,-17.6 473.27,-20.93 483.2,-24.6 483.32,-17.6"/>
<text text-anchor="middle" x="2089.5" y="-144.8" font-family="Times,serif" font-size="14.00">setresuid(1000,1000,1000)</text>
</g>
<!-- R=1000,E=1000,S=0&#45;&gt;R=0,E=0,S=0 -->
<g id="edge49" class="edge">
<title>R=1000,E=1000,S=0&#45;&gt;R=0,E=0,S=0</title>
<path fill="none" stroke="black" d="M506.41,-383.53C463.83,-408.73 395.28,-458.63 427,-504 479.15,-578.58 748.21,-609.42 887.38,-620.54"/>
<polygon fill="black" stroke="black" points="887.33,-624.05 897.57,-621.34 887.88,-617.07 887.33,-624.05"/>
<text text-anchor="middle" x="484" y="-492.8" font-family="Times,serif" font-size="14.00">setresuid(0,0,0)</text>
</g>
<!-- R=1000,E=1000,S=0&#45;&gt;R=0,E=0,S=1000 -->
<g id="edge50" class="edge">
<title>R=1000,E=1000,S=0&#45;&gt;R=0,E=0,S=1000</title>
<path fill="none" stroke="black" d="M545.8,-384.29C552.49,-395.55 562.79,-409.49 576,-417 631.69,-448.65 662.56,-404.71 719,-435 737.6,-444.98 731.5,-460.83 750,-471 886.98,-546.31 943.6,-497.57 1098,-522 1105.32,-523.16 1112.93,-524.39 1120.54,-525.65"/>
<polygon fill="black" stroke="black" points="1120.09,-529.12 1130.53,-527.31 1121.24,-522.22 1120.09,-529.12"/>
<text text-anchor="middle" x="820.5" y="-449.3" font-family="Times,serif" font-size="14.00">setresuid(0,0,1000)</text>
</g>
<!-- R=1000,E=1000,S=0&#45;&gt;R=0,E=1000,S=0 -->
<g id="edge51" class="edge">
<title>R=1000,E=1000,S=0&#45;&gt;R=0,E=1000,S=0</title>
<path fill="none" stroke="black" d="M554.34,-383.84C568.7,-397.6 587.45,-415.08 592,-417 652.3,-442.46 820.93,-427.95 886,-435 896.1,-436.09 906.7,-437.47 917.15,-438.95"/>
<polygon fill="black" stroke="black" points="916.7,-442.42 927.1,-440.41 917.71,-435.5 916.7,-442.42"/>
<text text-anchor="middle" x="662.5" y="-405.8" font-family="Times,serif" font-size="14.00">setresuid(0,1000,0)</text>
</g>
<!-- R=1000,E=1000,S=0&#45;&gt;R=0,E=1000,S=1000 -->
<g id="edge52" class="edge">
<title>R=1000,E=1000,S=0&#45;&gt;R=0,E=1000,S=1000</title>
<path fill="none" stroke="black" d="M521.45,-347.96C517.37,-342.58 513.43,-336.36 511,-330 500.05,-301.32 488.96,-285.08 508,-261 529.53,-233.77 552.75,-258.11 584,-243 593.69,-238.32 593.85,-233.66 603,-228 680.27,-180.2 699.84,-163 788,-141 894.97,-114.31 1199.55,-107.84 1371.67,-106.36"/>
<polygon fill="black" stroke="black" points="1371.82,-109.86 1381.79,-106.28 1371.76,-102.86 1371.82,-109.86"/>
<text text-anchor="middle" x="687" y="-231.8" font-family="Times,serif" font-size="14.00">setresuid(0,1000,1000)</text>
</g>
<!-- R=1000,E=1000,S=0&#45;&gt;R=1000,E=0,S=0 -->
<g id="edge53" class="edge">
<title>R=1000,E=1000,S=0&#45;&gt;R=1000,E=0,S=0</title>
<path fill="none" stroke="black" d="M527.35,-347.75C515.96,-324.82 501.15,-284.47 523,-261 542.13,-240.46 748.2,-251.34 775,-243 780.51,-241.29 803.77,-227.52 824.57,-214.87"/>
<polygon fill="black" stroke="black" points="826.56,-217.75 833.27,-209.56 822.91,-211.78 826.56,-217.75"/>
<text text-anchor="middle" x="593.5" y="-275.3" font-family="Times,serif" font-size="14.00">setresuid(1000,0,0)</text>
</g>
<!-- R=1000,E=1000,S=0&#45;&gt;R=1000,E=0,S=1000 -->
<g id="edge54" class="edge">
<title>R=1000,E=1000,S=0&#45;&gt;R=1000,E=0,S=1000</title>
<path fill="none" stroke="black" d="M647.61,-362.53C808.43,-358.36 1098.88,-348.52 1202,-330 1224,-326.05 1228.02,-319.03 1250,-315 1382.26,-290.77 1418.17,-310 1552,-297 1563.67,-295.87 1575.92,-294.47 1588.02,-292.97"/>
<polygon fill="black" stroke="black" points="1588.64,-296.42 1598.12,-291.69 1587.76,-289.48 1588.64,-296.42"/>
<text text-anchor="middle" x="1334" y="-318.8" font-family="Times,serif" font-size="14.00">setresuid(1000,0,1000)</text>
</g>
<!-- R=1000,E=1000,S=0&#45;&gt;R=1000,E=1000,S=0 -->
<g id="edge55" class="edge">
<title>R=1000,E=1000,S=0&#45;&gt;R=1000,E=1000,S=0</title>
<path fill="none" stroke="black" d="M640.07,-373.23C656.33,-372.16 667.44,-369.75 667.44,-366 667.44,-363.1 660.79,-361 650.26,-359.7"/>
<polygon fill="black" stroke="black" points="650.35,-356.19 640.07,-358.77 649.71,-363.16 650.35,-356.19"/>
<text text-anchor="middle" x="751.44" y="-362.3" font-family="Times,serif" font-size="14.00">setresuid(1000,1000,0)</text>
</g>
<!-- R=1000,E=1000,S=0&#45;&gt;R=1000,E=1000,S=1000 -->
<g id="edge56" class="edge">
<title>R=1000,E=1000,S=0&#45;&gt;R=1000,E=1000,S=1000</title>
<path fill="none" stroke="black" d="M486.87,-349.71C472.29,-344.37 456.62,-337.75 443,-330 383.14,-295.96 364.69,-275.98 345,-210 328.21,-153.75 334.64,-83.96 340.21,-46.26"/>
<polygon fill="black" stroke="black" points="343.71,-46.49 341.81,-36.07 336.8,-45.41 343.71,-46.49"/>
<text text-anchor="middle" x="442.5" y="-188.3" font-family="Times,serif" font-size="14.00">setresuid(1000,1000,1000)</text>
</g>
<!-- R=1000,E=1000,S=1000&#45;&gt;R=1000,E=1000,S=1000 -->
<g id="edge57" class="edge">
<title>R=1000,E=1000,S=1000&#45;&gt;R=1000,E=1000,S=1000</title>
<path fill="none" stroke="black" d="M474.88,-19.17C486.03,-18.92 492.99,-18.53 492.99,-18 492.99,-17.66 490.13,-17.38 485.15,-17.15"/>
<polygon fill="black" stroke="black" points="484.98,-13.65 474.88,-16.83 484.76,-20.64 484.98,-13.65"/>
<text text-anchor="middle" x="549.99" y="-14.3" font-family="Times,serif" font-size="14.00">setresuid(0,0,0)</text>
</g>
<!-- R=1000,E=1000,S=1000&#45;&gt;R=1000,E=1000,S=1000 -->
<g id="edge58" class="edge">
<title>R=1000,E=1000,S=1000&#45;&gt;R=1000,E=1000,S=1000</title>
<path fill="none" stroke="black" d="M473.49,-20.95C540.92,-21.24 606.99,-20.26 606.99,-18 606.99,-15.85 547.46,-14.86 483.74,-15.02"/>
<polygon fill="black" stroke="black" points="483.48,-11.52 473.49,-15.05 483.5,-18.52 483.48,-11.52"/>
<text text-anchor="middle" x="677.49" y="-14.3" font-family="Times,serif" font-size="14.00">setresuid(0,0,1000)</text>
</g>
<!-- R=1000,E=1000,S=1000&#45;&gt;R=1000,E=1000,S=1000 -->
<g id="edge59" class="edge">
<title>R=1000,E=1000,S=1000&#45;&gt;R=1000,E=1000,S=1000</title>
<path fill="none" stroke="black" d="M471.86,-21.94C591.96,-23.37 747.99,-22.05 747.99,-18 747.99,-14.06 600.67,-12.71 482.14,-13.94"/>
<polygon fill="black" stroke="black" points="481.82,-10.44 471.86,-14.06 481.9,-17.44 481.82,-10.44"/>
<text text-anchor="middle" x="818.49" y="-14.3" font-family="Times,serif" font-size="14.00">setresuid(0,1000,0)</text>
</g>
<!-- R=1000,E=1000,S=1000&#45;&gt;R=1000,E=1000,S=1000 -->
<g id="edge60" class="edge">
<title>R=1000,E=1000,S=1000&#45;&gt;R=1000,E=1000,S=1000</title>
<path fill="none" stroke="black" d="M470.65,-22.71C633.97,-25.42 888.99,-23.85 888.99,-18 888.99,-12.27 644.32,-10.64 480.81,-13.12"/>
<polygon fill="black" stroke="black" points="480.59,-9.63 470.65,-13.29 480.7,-16.63 480.59,-9.63"/>
<text text-anchor="middle" x="972.99" y="-14.3" font-family="Times,serif" font-size="14.00">setresuid(0,1000,1000)</text>
</g>
<!-- R=1000,E=1000,S=1000&#45;&gt;R=1000,E=1000,S=1000 -->
<g id="edge61" class="edge">
<title>R=1000,E=1000,S=1000&#45;&gt;R=1000,E=1000,S=1000</title>
<path fill="none" stroke="black" d="M469.47,-23.29C676.87,-27.48 1056.99,-25.71 1056.99,-18 1056.99,-10.41 689.02,-8.58 479.63,-12.51"/>
<polygon fill="black" stroke="black" points="479.4,-9.02 469.47,-12.71 479.53,-16.02 479.4,-9.02"/>
<text text-anchor="middle" x="1127.49" y="-14.3" font-family="Times,serif" font-size="14.00">setresuid(1000,0,0)</text>
</g>
<!-- R=1000,E=1000,S=1000&#45;&gt;R=1000,E=1000,S=1000 -->
<g id="edge62" class="edge">
<title>R=1000,E=1000,S=1000&#45;&gt;R=1000,E=1000,S=1000</title>
<path fill="none" stroke="black" d="M468.31,-23.86C708.51,-29.5 1197.99,-27.54 1197.99,-18 1197.99,-8.59 722.28,-6.56 478.66,-11.91"/>
<polygon fill="black" stroke="black" points="478.22,-8.42 468.31,-12.14 478.38,-15.41 478.22,-8.42"/>
<text text-anchor="middle" x="1281.99" y="-14.3" font-family="Times,serif" font-size="14.00">setresuid(1000,0,1000)</text>
</g>
<!-- R=1000,E=1000,S=1000&#45;&gt;R=1000,E=1000,S=1000 -->
<g id="edge63" class="edge">
<title>R=1000,E=1000,S=1000&#45;&gt;R=1000,E=1000,S=1000</title>
<path fill="none" stroke="black" d="M466.93,-24.3C742.35,-31.53 1365.99,-29.43 1365.99,-18 1365.99,-6.71 757.49,-4.52 477.17,-11.44"/>
<polygon fill="black" stroke="black" points="476.84,-7.95 466.93,-11.7 477.02,-14.95 476.84,-7.95"/>
<text text-anchor="middle" x="1449.99" y="-14.3" font-family="Times,serif" font-size="14.00">setresuid(1000,1000,0)</text>
</g>
<!-- R=1000,E=1000,S=1000&#45;&gt;R=1000,E=1000,S=1000 -->
<g id="edge64" class="edge">
<title>R=1000,E=1000,S=1000&#45;&gt;R=1000,E=1000,S=1000</title>
<path fill="none" stroke="black" d="M465.69,-24.69C773.21,-33.55 1533.99,-31.32 1533.99,-18 1533.99,-4.82 789.47,-2.5 475.75,-11.03"/>
<polygon fill="black" stroke="black" points="475.58,-7.53 465.69,-11.31 475.78,-14.53 475.58,-7.53"/>
<text text-anchor="middle" x="1631.49" y="-14.3" font-family="Times,serif" font-size="14.00">setresuid(1000,1000,1000)</text>
</g>
</g>
</svg>
