<?xml version="1.0" encoding="UTF-8" standalone="no"?>
<!DOCTYPE svg PUBLIC "-//W3C//DTD SVG 1.1//EN"
 "http://www.w3.org/Graphics/SVG/1.1/DTD/svg11.dtd">
<!-- Generated by graphviz version 2.42.3 (20191010.1750)
 -->
<!-- Title: G Pages: 1 -->
<svg width="1538pt" height="479pt"
 viewBox="0.00 0.00 1538.00 479.00" xmlns="http://www.w3.org/2000/svg" xmlns:xlink="http://www.w3.org/1999/xlink">
<g id="graph0" class="graph" transform="scale(1 1) rotate(0) translate(4 475)">
<title>G</title>
<polygon fill="white" stroke="transparent" points="-4,4 -4,-475 1534,-475 1534,4 -4,4"/>
<!-- R=0,E=0,S=0 -->
<g id="node1" class="node">
<title>R=0,E=0,S=0</title>
<ellipse fill="none" stroke="black" cx="706" cy="-279" rx="77.19" ry="18"/>
<text text-anchor="middle" x="706" y="-275.3" font-family="Times,serif" font-size="14.00">R=0,E=0,S=0</text>
</g>
<!-- R=0,E=0,S=0&#45;&gt;R=0,E=0,S=0 -->
<g id="edge1" class="edge">
<title>R=0,E=0,S=0&#45;&gt;R=0,E=0,S=0</title>
<path fill="none" stroke="black" d="M776.26,-286.6C790.85,-285.8 801.34,-283.27 801.34,-279 801.34,-275.8 795.44,-273.58 786.34,-272.33"/>
<polygon fill="black" stroke="black" points="786.54,-268.83 776.26,-271.4 785.9,-275.8 786.54,-268.83"/>
<text text-anchor="middle" x="847.84" y="-275.3" font-family="Times,serif" font-size="14.00">setreuid(0,0)</text>
</g>
<!-- R=0,E=1000,S=0 -->
<g id="node2" class="node">
<title>R=0,E=1000,S=0</title>
<ellipse fill="none" stroke="black" cx="939" cy="-192" rx="94.78" ry="18"/>
<text text-anchor="middle" x="939" y="-188.3" font-family="Times,serif" font-size="14.00">R=0,E=1000,S=0</text>
</g>
<!-- R=0,E=0,S=0&#45;&gt;R=0,E=1000,S=0 -->
<g id="edge2" class="edge">
<title>R=0,E=0,S=0&#45;&gt;R=0,E=1000,S=0</title>
<path fill="none" stroke="black" d="M762,-266.53C784.6,-260.89 810.59,-253.1 833,-243 844.13,-237.99 845.22,-233.73 856,-228 866.57,-222.38 878.25,-216.99 889.41,-212.2"/>
<polygon fill="black" stroke="black" points="890.78,-215.42 898.64,-208.32 888.07,-208.97 890.78,-215.42"/>
<text text-anchor="middle" x="916" y="-231.8" font-family="Times,serif" font-size="14.00">setreuid(0,1000)</text>
</g>
<!-- R=1000,E=0,S=1000 -->
<g id="node3" class="node">
<title>R=1000,E=0,S=1000</title>
<ellipse fill="none" stroke="black" cx="405" cy="-105" rx="112.38" ry="18"/>
<text text-anchor="middle" x="405" y="-101.3" font-family="Times,serif" font-size="14.00">R=1000,E=0,S=1000</text>
</g>
<!-- R=0,E=0,S=0&#45;&gt;R=1000,E=0,S=1000 -->
<g id="edge3" class="edge">
<title>R=0,E=0,S=0&#45;&gt;R=1000,E=0,S=1000</title>
<path fill="none" stroke="black" d="M650.12,-266.44C577.59,-251.01 458.41,-223.98 443,-210 421.15,-190.18 411.84,-156.74 407.89,-133.14"/>
<polygon fill="black" stroke="black" points="411.33,-132.46 406.42,-123.07 404.4,-133.47 411.33,-132.46"/>
<text text-anchor="middle" x="503" y="-188.3" font-family="Times,serif" font-size="14.00">setreuid(1000,0)</text>
</g>
<!-- R=1000,E=1000,S=1000 -->
<g id="node4" class="node">
<title>R=1000,E=1000,S=1000</title>
<ellipse fill="none" stroke="black" cx="683" cy="-18" rx="129.98" ry="18"/>
<text text-anchor="middle" x="683" y="-14.3" font-family="Times,serif" font-size="14.00">R=1000,E=1000,S=1000</text>
</g>
<!-- R=0,E=0,S=0&#45;&gt;R=1000,E=1000,S=1000 -->
<g id="edge4" class="edge">
<title>R=0,E=0,S=0&#45;&gt;R=1000,E=1000,S=1000</title>
<path fill="none" stroke="black" d="M706.03,-260.86C705.55,-239.76 703,-203.15 692,-174 688.6,-165 682.79,-165.2 680,-156 668.87,-119.25 672.97,-74.39 677.51,-46.25"/>
<polygon fill="black" stroke="black" points="680.97,-46.79 679.25,-36.34 674.08,-45.58 680.97,-46.79"/>
<text text-anchor="middle" x="753.5" y="-144.8" font-family="Times,serif" font-size="14.00">setreuid(1000,1000)</text>
</g>
<!-- R=0,E=1000,S=0&#45;&gt;R=0,E=0,S=0 -->
<g id="edge9" class="edge">
<title>R=0,E=1000,S=0&#45;&gt;R=0,E=0,S=0</title>
<path fill="none" stroke="black" d="M854.89,-200.42C808.03,-205.91 755.33,-214.76 736,-228 727.54,-233.8 721.07,-242.84 716.35,-251.65"/>
<polygon fill="black" stroke="black" points="713.06,-250.42 711.9,-260.96 719.37,-253.45 713.06,-250.42"/>
<text text-anchor="middle" x="782.5" y="-231.8" font-family="Times,serif" font-size="14.00">setreuid(0,0)</text>
</g>
<!-- R=0,E=1000,S=0&#45;&gt;R=0,E=1000,S=0 -->
<g id="edge10" class="edge">
<title>R=0,E=1000,S=0&#45;&gt;R=0,E=1000,S=0</title>
<path fill="none" stroke="black" d="M1025.62,-199.41C1041.09,-198.45 1051.89,-195.98 1051.89,-192 1051.89,-188.95 1045.56,-186.79 1035.65,-185.51"/>
<polygon fill="black" stroke="black" points="1035.9,-182.02 1025.62,-184.59 1035.25,-188.99 1035.9,-182.02"/>
<text text-anchor="middle" x="1111.89" y="-188.3" font-family="Times,serif" font-size="14.00">setreuid(0,1000)</text>
</g>
<!-- R=0,E=1000,S=0&#45;&gt;R=1000,E=0,S=1000 -->
<g id="edge11" class="edge">
<title>R=0,E=1000,S=0&#45;&gt;R=1000,E=0,S=1000</title>
<path fill="none" stroke="black" d="M897.65,-175.78C883.54,-170.12 867.84,-163.28 854,-156 843.2,-150.32 842.55,-144.95 831,-141 776.42,-122.31 630.99,-113.41 525.21,-109.31"/>
<polygon fill="black" stroke="black" points="525.22,-105.8 515.1,-108.92 524.96,-112.8 525.22,-105.8"/>
<text text-anchor="middle" x="914" y="-144.8" font-family="Times,serif" font-size="14.00">setreuid(1000,0)</text>
</g>
<!-- R=0,E=1000,S=0&#45;&gt;R=1000,E=1000,S=1000 -->
<g id="edge12" class="edge">
<title>R=0,E=1000,S=0&#45;&gt;R=1000,E=1000,S=1000</title>
<path fill="none" stroke="black" d="M1032.61,-189.05C1080.51,-184.41 1124.31,-172.08 1101,-141 1098.27,-137.36 863.56,-70.29 747.09,-37.18"/>
<polygon fill="black" stroke="black" points="747.79,-33.74 737.21,-34.37 745.88,-40.47 747.79,-33.74"/>
<text text-anchor="middle" x="1114.5" y="-101.3" font-family="Times,serif" font-size="14.00">setreuid(1000,1000)</text>
</g>
<!-- R=1000,E=0,S=1000&#45;&gt;R=0,E=0,S=0 -->
<g id="edge21" class="edge">
<title>R=1000,E=0,S=1000&#45;&gt;R=0,E=0,S=0</title>
<path fill="none" stroke="black" d="M453.02,-121.28C485.64,-132.92 528.89,-150.87 563,-174 581.73,-186.7 581.35,-195.85 599,-210 620.79,-227.47 647.26,-244.32 668.42,-256.88"/>
<polygon fill="black" stroke="black" points="666.74,-259.95 677.14,-261.99 670.28,-253.92 666.74,-259.95"/>
<text text-anchor="middle" x="645.5" y="-188.3" font-family="Times,serif" font-size="14.00">setreuid(0,0)</text>
</g>
<!-- R=1000,E=0,S=1000&#45;&gt;R=0,E=1000,S=0 -->
<g id="edge22" class="edge">
<title>R=1000,E=0,S=1000&#45;&gt;R=0,E=1000,S=0</title>
<path fill="none" stroke="black" d="M514.95,-108.93C675.95,-113.77 958.53,-124.55 974,-141 981.49,-148.96 977.26,-158.62 969.55,-167.32"/>
<polygon fill="black" stroke="black" points="967.09,-164.83 962.42,-174.34 972,-169.81 967.09,-164.83"/>
<text text-anchor="middle" x="1037" y="-144.8" font-family="Times,serif" font-size="14.00">setreuid(0,1000)</text>
</g>
<!-- R=1000,E=0,S=1000&#45;&gt;R=1000,E=0,S=1000 -->
<g id="edge23" class="edge">
<title>R=1000,E=0,S=1000&#45;&gt;R=1000,E=0,S=1000</title>
<path fill="none" stroke="black" d="M508.07,-112.23C524.33,-111.16 535.44,-108.75 535.44,-105 535.44,-102.1 528.79,-100 518.26,-98.7"/>
<polygon fill="black" stroke="black" points="518.35,-95.19 508.07,-97.77 517.71,-102.16 518.35,-95.19"/>
<text text-anchor="middle" x="595.44" y="-101.3" font-family="Times,serif" font-size="14.00">setreuid(1000,0)</text>
</g>
<!-- R=1000,E=0,S=1000&#45;&gt;R=1000,E=1000,S=1000 -->
<g id="edge24" class="edge">
<title>R=1000,E=0,S=1000&#45;&gt;R=1000,E=1000,S=1000</title>
<path fill="none" stroke="black" d="M438.4,-87.71C461.46,-76.97 493.06,-63.24 522,-54 545.71,-46.43 571.9,-39.97 596.15,-34.73"/>
<polygon fill="black" stroke="black" points="596.99,-38.12 606.05,-32.63 595.54,-31.28 596.99,-38.12"/>
<text text-anchor="middle" x="595.5" y="-57.8" font-family="Times,serif" font-size="14.00">setreuid(1000,1000)</text>
</g>
<!-- R=1000,E=1000,S=1000&#45;&gt;R=1000,E=1000,S=1000 -->
<g id="edge29" class="edge">
<title>R=1000,E=1000,S=1000&#45;&gt;R=1000,E=1000,S=1000</title>
<path fill="none" stroke="black" d="M812.88,-19.54C824.03,-19.21 830.99,-18.7 830.99,-18 830.99,-17.55 828.13,-17.18 823.15,-16.89"/>
<polygon fill="black" stroke="black" points="823.01,-13.38 812.88,-16.46 822.73,-20.37 823.01,-13.38"/>
<text text-anchor="middle" x="877.49" y="-14.3" font-family="Times,serif" font-size="14.00">setreuid(0,0)</text>
</g>
<!-- R=1000,E=1000,S=1000&#45;&gt;R=1000,E=1000,S=1000 -->
<g id="edge30" class="edge">
<title>R=1000,E=1000,S=1000&#45;&gt;R=1000,E=1000,S=1000</title>
<path fill="none" stroke="black" d="M810.05,-21.91C869.06,-22.16 923.99,-20.86 923.99,-18 923.99,-15.31 875.31,-14 820.37,-14.06"/>
<polygon fill="black" stroke="black" points="820.04,-10.57 810.05,-14.09 820.06,-17.57 820.04,-10.57"/>
<text text-anchor="middle" x="983.99" y="-14.3" font-family="Times,serif" font-size="14.00">setreuid(0,1000)</text>
</g>
<!-- R=1000,E=1000,S=1000&#45;&gt;R=1000,E=1000,S=1000 -->
<g id="edge31" class="edge">
<title>R=1000,E=1000,S=1000&#45;&gt;R=1000,E=1000,S=1000</title>
<path fill="none" stroke="black" d="M807.46,-23.31C913.78,-24.96 1043.99,-23.19 1043.99,-18 1043.99,-12.97 921.79,-11.15 817.49,-12.55"/>
<polygon fill="black" stroke="black" points="817.41,-9.05 807.46,-12.69 817.51,-16.05 817.41,-9.05"/>
<text text-anchor="middle" x="1103.99" y="-14.3" font-family="Times,serif" font-size="14.00">setreuid(1000,0)</text>
</g>
<!-- R=1000,E=1000,S=1000&#45;&gt;R=1000,E=1000,S=1000 -->
<g id="edge32" class="edge">
<title>R=1000,E=1000,S=1000&#45;&gt;R=1000,E=1000,S=1000</title>
<path fill="none" stroke="black" d="M804.79,-24.36C950,-27.67 1163.99,-25.55 1163.99,-18 1163.99,-10.62 959.91,-8.43 815.11,-11.42"/>
<polygon fill="black" stroke="black" points="814.71,-7.92 804.79,-11.64 814.86,-14.92 814.71,-7.92"/>
<text text-anchor="middle" x="1237.49" y="-14.3" font-family="Times,serif" font-size="14.00">setreuid(1000,1000)</text>
</g>
<!-- R=0,E=0,S=1000 -->
<g id="node5" class="node">
<title>R=0,E=0,S=1000</title>
<ellipse fill="none" stroke="black" cx="236" cy="-453" rx="94.78" ry="18"/>
<text text-anchor="middle" x="236" y="-449.3" font-family="Times,serif" font-size="14.00">R=0,E=0,S=1000</text>
</g>
<!-- R=0,E=0,S=1000&#45;&gt;R=0,E=0,S=0 -->
<g id="edge5" class="edge">
<title>R=0,E=0,S=1000&#45;&gt;R=0,E=0,S=0</title>
<path fill="none" stroke="black" d="M322.84,-445.59C393,-437.83 492.89,-420.87 573,-384 615.95,-364.23 657.58,-328.08 682.5,-304.04"/>
<polygon fill="black" stroke="black" points="684.99,-306.51 689.68,-297.01 680.09,-301.51 684.99,-306.51"/>
<text text-anchor="middle" x="675.5" y="-362.3" font-family="Times,serif" font-size="14.00">setreuid(0,0)</text>
</g>
<!-- R=0,E=0,S=1000&#45;&gt;R=1000,E=0,S=1000 -->
<g id="edge7" class="edge">
<title>R=0,E=0,S=1000&#45;&gt;R=1000,E=0,S=1000</title>
<path fill="none" stroke="black" d="M208.87,-435.74C187.75,-420.81 162,-396.54 162,-367 162,-367 162,-367 162,-191 162,-157.08 247.42,-133.5 316.98,-119.93"/>
<polygon fill="black" stroke="black" points="317.94,-123.31 327.11,-118 316.63,-116.43 317.94,-123.31"/>
<text text-anchor="middle" x="222" y="-275.3" font-family="Times,serif" font-size="14.00">setreuid(1000,0)</text>
</g>
<!-- R=0,E=0,S=1000&#45;&gt;R=1000,E=1000,S=1000 -->
<g id="edge8" class="edge">
<title>R=0,E=0,S=1000&#45;&gt;R=1000,E=1000,S=1000</title>
<path fill="none" stroke="black" d="M166.15,-440.73C96.56,-427.47 0,-402.66 0,-367 0,-367 0,-367 0,-104 0,-49.5 346.93,-29.51 546.27,-22.52"/>
<polygon fill="black" stroke="black" points="546.66,-26.01 556.53,-22.17 546.42,-19.01 546.66,-26.01"/>
<text text-anchor="middle" x="73.5" y="-231.8" font-family="Times,serif" font-size="14.00">setreuid(1000,1000)</text>
</g>
<!-- R=0,E=1000,S=1000 -->
<g id="node6" class="node">
<title>R=0,E=1000,S=1000</title>
<ellipse fill="none" stroke="black" cx="314" cy="-366" rx="112.38" ry="18"/>
<text text-anchor="middle" x="314" y="-362.3" font-family="Times,serif" font-size="14.00">R=0,E=1000,S=1000</text>
</g>
<!-- R=0,E=0,S=1000&#45;&gt;R=0,E=1000,S=1000 -->
<g id="edge6" class="edge">
<title>R=0,E=0,S=1000&#45;&gt;R=0,E=1000,S=1000</title>
<path fill="none" stroke="black" d="M251.41,-435.21C262.87,-422.72 278.69,-405.48 291.56,-391.46"/>
<polygon fill="black" stroke="black" points="294.17,-393.78 298.35,-384.05 289.01,-389.05 294.17,-393.78"/>
<text text-anchor="middle" x="340" y="-405.8" font-family="Times,serif" font-size="14.00">setreuid(0,1000)</text>
</g>
<!-- R=0,E=1000,S=1000&#45;&gt;R=0,E=0,S=0 -->
<g id="edge13" class="edge">
<title>R=0,E=1000,S=1000&#45;&gt;R=0,E=0,S=0</title>
<path fill="none" stroke="black" d="M371.22,-350.46C412.91,-340.06 470.8,-326.02 522,-315 559.76,-306.88 602.09,-298.76 636.62,-292.39"/>
<polygon fill="black" stroke="black" points="637.4,-295.8 646.61,-290.55 636.14,-288.92 637.4,-295.8"/>
<text text-anchor="middle" x="568.5" y="-318.8" font-family="Times,serif" font-size="14.00">setreuid(0,0)</text>
</g>
<!-- R=0,E=1000,S=1000&#45;&gt;R=1000,E=0,S=1000 -->
<g id="edge15" class="edge">
<title>R=0,E=1000,S=1000&#45;&gt;R=1000,E=0,S=1000</title>
<path fill="none" stroke="black" d="M319.97,-348.01C335.43,-304.01 376.85,-186.11 395.58,-132.81"/>
<polygon fill="black" stroke="black" points="398.99,-133.65 399.01,-123.06 392.39,-131.33 398.99,-133.65"/>
<text text-anchor="middle" x="422" y="-231.8" font-family="Times,serif" font-size="14.00">setreuid(1000,0)</text>
</g>
<!-- R=0,E=1000,S=1000&#45;&gt;R=1000,E=1000,S=1000 -->
<g id="edge16" class="edge">
<title>R=0,E=1000,S=1000&#45;&gt;R=1000,E=1000,S=1000</title>
<path fill="none" stroke="black" d="M312.8,-347.74C310.55,-325.86 304.14,-287.79 286,-261 264.82,-229.72 234.89,-243.79 218,-210 190.26,-154.51 230.96,-119.18 284,-87 330.32,-58.9 465.61,-39.98 565.88,-29.38"/>
<polygon fill="black" stroke="black" points="566.5,-32.83 576.08,-28.31 565.77,-25.87 566.5,-32.83"/>
<text text-anchor="middle" x="291.5" y="-188.3" font-family="Times,serif" font-size="14.00">setreuid(1000,1000)</text>
</g>
<!-- R=0,E=1000,S=1000&#45;&gt;R=0,E=1000,S=1000 -->
<g id="edge14" class="edge">
<title>R=0,E=1000,S=1000&#45;&gt;R=0,E=1000,S=1000</title>
<path fill="none" stroke="black" d="M417.07,-373.23C433.33,-372.16 444.44,-369.75 444.44,-366 444.44,-363.1 437.79,-361 427.26,-359.7"/>
<polygon fill="black" stroke="black" points="427.35,-356.19 417.07,-358.77 426.71,-363.16 427.35,-356.19"/>
<text text-anchor="middle" x="504.44" y="-362.3" font-family="Times,serif" font-size="14.00">setreuid(0,1000)</text>
</g>
<!-- R=1000,E=0,S=0 -->
<g id="node7" class="node">
<title>R=1000,E=0,S=0</title>
<ellipse fill="none" stroke="black" cx="986" cy="-366" rx="94.78" ry="18"/>
<text text-anchor="middle" x="986" y="-362.3" font-family="Times,serif" font-size="14.00">R=1000,E=0,S=0</text>
</g>
<!-- R=1000,E=0,S=0&#45;&gt;R=0,E=0,S=0 -->
<g id="edge17" class="edge">
<title>R=1000,E=0,S=0&#45;&gt;R=0,E=0,S=0</title>
<path fill="none" stroke="black" d="M937.87,-350.39C888.66,-335.45 812.34,-312.28 760.83,-296.64"/>
<polygon fill="black" stroke="black" points="761.78,-293.27 751.19,-293.72 759.74,-299.97 761.78,-293.27"/>
<text text-anchor="middle" x="908.5" y="-318.8" font-family="Times,serif" font-size="14.00">setreuid(0,0)</text>
</g>
<!-- R=1000,E=0,S=0&#45;&gt;R=0,E=1000,S=0 -->
<g id="edge18" class="edge">
<title>R=1000,E=0,S=0&#45;&gt;R=0,E=1000,S=0</title>
<path fill="none" stroke="black" d="M988.54,-347.99C991.75,-321.07 994.81,-267.64 976,-228 974.17,-224.14 971.7,-220.48 968.92,-217.1"/>
<polygon fill="black" stroke="black" points="971.37,-214.6 961.97,-209.72 966.27,-219.39 971.37,-214.6"/>
<text text-anchor="middle" x="1050" y="-275.3" font-family="Times,serif" font-size="14.00">setreuid(0,1000)</text>
</g>
<!-- R=1000,E=0,S=0&#45;&gt;R=1000,E=1000,S=1000 -->
<g id="edge20" class="edge">
<title>R=1000,E=0,S=0&#45;&gt;R=1000,E=1000,S=1000</title>
<path fill="none" stroke="black" d="M1051.71,-353.01C1117.17,-339.13 1208,-313.79 1208,-280 1208,-280 1208,-280 1208,-104 1208,-63.71 963.95,-38.85 808.64,-27.1"/>
<polygon fill="black" stroke="black" points="808.77,-23.6 798.54,-26.35 808.25,-30.58 808.77,-23.6"/>
<text text-anchor="middle" x="1281.5" y="-188.3" font-family="Times,serif" font-size="14.00">setreuid(1000,1000)</text>
</g>
<!-- R=1000,E=0,S=0&#45;&gt;R=1000,E=0,S=0 -->
<g id="edge19" class="edge">
<title>R=1000,E=0,S=0&#45;&gt;R=1000,E=0,S=0</title>
<path fill="none" stroke="black" d="M1072.62,-373.41C1088.09,-372.45 1098.89,-369.98 1098.89,-366 1098.89,-362.95 1092.56,-360.79 1082.65,-359.51"/>
<polygon fill="black" stroke="black" points="1082.9,-356.02 1072.62,-358.59 1082.25,-362.99 1082.9,-356.02"/>
<text text-anchor="middle" x="1158.89" y="-362.3" font-family="Times,serif" font-size="14.00">setreuid(1000,0)</text>
</g>
<!-- R=1000,E=1000,S=0 -->
<g id="node8" class="node">
<title>R=1000,E=1000,S=0</title>
<ellipse fill="none" stroke="black" cx="1148" cy="-453" rx="112.38" ry="18"/>
<text text-anchor="middle" x="1148" y="-449.3" font-family="Times,serif" font-size="14.00">R=1000,E=1000,S=0</text>
</g>
<!-- R=1000,E=1000,S=0&#45;&gt;R=0,E=0,S=0 -->
<g id="edge25" class="edge">
<title>R=1000,E=1000,S=0&#45;&gt;R=0,E=0,S=0</title>
<path fill="none" stroke="black" d="M1057.82,-442.16C966.72,-430.95 833.28,-410.68 789,-384 757.91,-365.27 733.71,-330.35 719.66,-306.17"/>
<polygon fill="black" stroke="black" points="722.56,-304.18 714.61,-297.17 716.45,-307.6 722.56,-304.18"/>
<text text-anchor="middle" x="835.5" y="-362.3" font-family="Times,serif" font-size="14.00">setreuid(0,0)</text>
</g>
<!-- R=1000,E=1000,S=0&#45;&gt;R=0,E=1000,S=0 -->
<g id="edge26" class="edge">
<title>R=1000,E=1000,S=0&#45;&gt;R=0,E=1000,S=0</title>
<path fill="none" stroke="black" d="M1180.29,-435.49C1198.7,-423.96 1219.71,-406.59 1228,-384 1238.61,-355.1 1240.47,-339.63 1222,-315 1174.29,-251.39 1086.59,-220.52 1021.42,-205.81"/>
<polygon fill="black" stroke="black" points="1022.09,-202.37 1011.57,-203.67 1020.6,-209.21 1022.09,-202.37"/>
<text text-anchor="middle" x="1291" y="-318.8" font-family="Times,serif" font-size="14.00">setreuid(0,1000)</text>
</g>
<!-- R=1000,E=1000,S=0&#45;&gt;R=1000,E=1000,S=1000 -->
<g id="edge28" class="edge">
<title>R=1000,E=1000,S=0&#45;&gt;R=1000,E=1000,S=1000</title>
<path fill="none" stroke="black" d="M1223.33,-439.56C1292.06,-426 1383,-401.55 1383,-367 1383,-367 1383,-367 1383,-104 1383,-47.91 1024.2,-28.56 820.36,-22.1"/>
<polygon fill="black" stroke="black" points="820.27,-18.6 810.17,-21.78 820.06,-25.59 820.27,-18.6"/>
<text text-anchor="middle" x="1456.5" y="-231.8" font-family="Times,serif" font-size="14.00">setreuid(1000,1000)</text>
</g>
<!-- R=1000,E=1000,S=0&#45;&gt;R=1000,E=0,S=0 -->
<g id="edge27" class="edge">
<title>R=1000,E=1000,S=0&#45;&gt;R=1000,E=0,S=0</title>
<path fill="none" stroke="black" d="M1116.76,-435.61C1090.83,-422 1053.77,-402.56 1025.73,-387.84"/>
<polygon fill="black" stroke="black" points="1027.07,-384.6 1016.59,-383.05 1023.82,-390.8 1027.07,-384.6"/>
<text text-anchor="middle" x="1136" y="-405.8" font-family="Times,serif" font-size="14.00">setreuid(1000,0)</text>
</g>
</g>
</svg>
