<?xml version="1.0" encoding="UTF-8" standalone="no"?>
<!DOCTYPE svg PUBLIC "-//W3C//DTD SVG 1.1//EN"
 "http://www.w3.org/Graphics/SVG/1.1/DTD/svg11.dtd">
<!-- Generated by graphviz version 2.42.3 (20191010.1750)
 -->
<!-- Title: G Pages: 1 -->
<svg width="1554pt" height="131pt"
 viewBox="0.00 0.00 1553.76 131.00" xmlns="http://www.w3.org/2000/svg" xmlns:xlink="http://www.w3.org/1999/xlink">
<g id="graph0" class="graph" transform="scale(1 1) rotate(0) translate(4 127)">
<title>G</title>
<polygon fill="white" stroke="transparent" points="-4,4 -4,-127 1549.76,-127 1549.76,4 -4,4"/>
<!-- *\\{R=0,E=1000,S=1000,R=1000,E=1000,S=0,R=1000,E=1000,S=1000} -->
<g id="node1" class="node">
<title>*\\{R=0,E=1000,S=1000,R=1000,E=1000,S=0,R=1000,E=1000,S=1000}</title>
<ellipse fill="none" stroke="black" cx="358.77" cy="-105" rx="358.54" ry="18"/>
<text text-anchor="middle" x="358.77" y="-101.3" font-family="Times,serif" font-size="14.00">*\{R=0,E=1000,S=1000,R=1000,E=1000,S=0,R=1000,E=1000,S=1000}</text>
</g>
<!-- R=0,E=0,S=0 -->
<g id="node2" class="node">
<title>R=0,E=0,S=0</title>
<ellipse fill="none" stroke="black" cx="358.77" cy="-18" rx="77.19" ry="18"/>
<text text-anchor="middle" x="358.77" y="-14.3" font-family="Times,serif" font-size="14.00">R=0,E=0,S=0</text>
</g>
<!-- *\\{R=0,E=1000,S=1000,R=1000,E=1000,S=0,R=1000,E=1000,S=1000}&#45;&gt;R=0,E=0,S=0 -->
<g id="edge1" class="edge">
<title>*\\{R=0,E=1000,S=1000,R=1000,E=1000,S=0,R=1000,E=1000,S=1000}&#45;&gt;R=0,E=0,S=0</title>
<path fill="none" stroke="black" d="M358.77,-86.8C358.77,-75.16 358.77,-59.55 358.77,-46.24"/>
<polygon fill="black" stroke="black" points="362.27,-46.18 358.77,-36.18 355.27,-46.18 362.27,-46.18"/>
<text text-anchor="middle" x="390.77" y="-57.8" font-family="Times,serif" font-size="14.00">setuid(0)</text>
</g>
<!-- R=0,E=1000,S=1000 -->
<g id="node3" class="node">
<title>R=0,E=1000,S=1000</title>
<ellipse fill="none" stroke="black" cx="847.77" cy="-105" rx="112.38" ry="18"/>
<text text-anchor="middle" x="847.77" y="-101.3" font-family="Times,serif" font-size="14.00">R=0,E=1000,S=1000</text>
</g>
<!-- R=0,E=0,S=1000 -->
<g id="node4" class="node">
<title>R=0,E=0,S=1000</title>
<ellipse fill="none" stroke="black" cx="847.77" cy="-18" rx="94.78" ry="18"/>
<text text-anchor="middle" x="847.77" y="-14.3" font-family="Times,serif" font-size="14.00">R=0,E=0,S=1000</text>
</g>
<!-- R=0,E=1000,S=1000&#45;&gt;R=0,E=0,S=1000 -->
<g id="edge2" class="edge">
<title>R=0,E=1000,S=1000&#45;&gt;R=0,E=0,S=1000</title>
<path fill="none" stroke="black" d="M847.77,-86.8C847.77,-75.16 847.77,-59.55 847.77,-46.24"/>
<polygon fill="black" stroke="black" points="851.27,-46.18 847.77,-36.18 844.27,-46.18 851.27,-46.18"/>
<text text-anchor="middle" x="879.77" y="-57.8" font-family="Times,serif" font-size="14.00">setuid(0)</text>
</g>
<!-- R=1000,E=1000,S=0 -->
<g id="node5" class="node">
<title>R=1000,E=1000,S=0</title>
<ellipse fill="none" stroke="black" cx="1090.77" cy="-105" rx="112.38" ry="18"/>
<text text-anchor="middle" x="1090.77" y="-101.3" font-family="Times,serif" font-size="14.00">R=1000,E=1000,S=0</text>
</g>
<!-- R=1000,E=0,S=0 -->
<g id="node6" class="node">
<title>R=1000,E=0,S=0</title>
<ellipse fill="none" stroke="black" cx="1090.77" cy="-18" rx="94.78" ry="18"/>
<text text-anchor="middle" x="1090.77" y="-14.3" font-family="Times,serif" font-size="14.00">R=1000,E=0,S=0</text>
</g>
<!-- R=1000,E=1000,S=0&#45;&gt;R=1000,E=0,S=0 -->
<g id="edge3" class="edge">
<title>R=1000,E=1000,S=0&#45;&gt;R=1000,E=0,S=0</title>
<path fill="none" stroke="black" d="M1090.77,-86.8C1090.77,-75.16 1090.77,-59.55 1090.77,-46.24"/>
<polygon fill="black" stroke="black" points="1094.27,-46.18 1090.77,-36.18 1087.27,-46.18 1094.27,-46.18"/>
<text text-anchor="middle" x="1122.77" y="-57.8" font-family="Times,serif" font-size="14.00">setuid(0)</text>
</g>
<!-- * -->
<g id="node7" class="node">
<title>*</title>
<ellipse fill="none" stroke="black" cx="1333.77" cy="-105" rx="27" ry="18"/>
<text text-anchor="middle" x="1333.77" y="-101.3" font-family="Times,serif" font-size="14.00">*</text>
</g>
<!-- R=1000,E=1000,S=1000 -->
<g id="node8" class="node">
<title>R=1000,E=1000,S=1000</title>
<ellipse fill="none" stroke="black" cx="1333.77" cy="-18" rx="129.98" ry="18"/>
<text text-anchor="middle" x="1333.77" y="-14.3" font-family="Times,serif" font-size="14.00">R=1000,E=1000,S=1000</text>
</g>
<!-- *&#45;&gt;R=1000,E=1000,S=1000 -->
<g id="edge4" class="edge">
<title>*&#45;&gt;R=1000,E=1000,S=1000</title>
<path fill="none" stroke="black" d="M1333.77,-86.8C1333.77,-75.16 1333.77,-59.55 1333.77,-46.24"/>
<polygon fill="black" stroke="black" points="1337.27,-46.18 1333.77,-36.18 1330.27,-46.18 1337.27,-46.18"/>
<text text-anchor="middle" x="1379.27" y="-57.8" font-family="Times,serif" font-size="14.00">setuid(1000)</text>
</g>
<!-- R=1000,E=1000,S=1000&#45;&gt;R=1000,E=1000,S=1000 -->
<g id="edge5" class="edge">
<title>R=1000,E=1000,S=1000&#45;&gt;R=1000,E=1000,S=1000</title>
<path fill="none" stroke="black" d="M1453.38,-25.07C1470.36,-23.92 1481.76,-21.57 1481.76,-18 1481.76,-15.21 1474.8,-13.16 1463.66,-11.86"/>
<polygon fill="black" stroke="black" points="1463.65,-8.34 1453.38,-10.93 1463.03,-15.31 1463.65,-8.34"/>
<text text-anchor="middle" x="1513.76" y="-14.3" font-family="Times,serif" font-size="14.00">setuid(0)</text>
</g>
</g>
</svg>
