<?xml version="1.0" encoding="UTF-8" standalone="no"?>
<!DOCTYPE svg PUBLIC "-//W3C//DTD SVG 1.1//EN"
 "http://www.w3.org/Graphics/SVG/1.1/DTD/svg11.dtd">
<!-- Generated by graphviz version 2.42.3 (20191010.1750)
 -->
<!-- Title: G Pages: 1 -->
<svg width="1016pt" height="305pt"
 viewBox="0.00 0.00 1016.44 305.00" xmlns="http://www.w3.org/2000/svg" xmlns:xlink="http://www.w3.org/1999/xlink">
<g id="graph0" class="graph" transform="scale(1 1) rotate(0) translate(4 301)">
<title>G</title>
<polygon fill="white" stroke="transparent" points="-4,4 -4,-301 1012.44,-301 1012.44,4 -4,4"/>
<!-- R=0,E=0,S=0 -->
<g id="node1" class="node">
<title>R=0,E=0,S=0</title>
<ellipse fill="none" stroke="black" cx="468.44" cy="-105" rx="77.19" ry="18"/>
<text text-anchor="middle" x="468.44" y="-101.3" font-family="Times,serif" font-size="14.00">R=0,E=0,S=0</text>
</g>
<!-- R=0,E=0,S=0&#45;&gt;R=0,E=0,S=0 -->
<g id="edge1" class="edge">
<title>R=0,E=0,S=0&#45;&gt;R=0,E=0,S=0</title>
<path fill="none" stroke="black" d="M538.7,-112.6C553.29,-111.8 563.78,-109.27 563.78,-105 563.78,-101.8 557.88,-99.58 548.78,-98.33"/>
<polygon fill="black" stroke="black" points="548.98,-94.83 538.7,-97.4 548.34,-101.8 548.98,-94.83"/>
<text text-anchor="middle" x="595.78" y="-101.3" font-family="Times,serif" font-size="14.00">setuid(0)</text>
</g>
<!-- R=1000,E=1000,S=1000 -->
<g id="node2" class="node">
<title>R=1000,E=1000,S=1000</title>
<ellipse fill="none" stroke="black" cx="468.44" cy="-18" rx="129.98" ry="18"/>
<text text-anchor="middle" x="468.44" y="-14.3" font-family="Times,serif" font-size="14.00">R=1000,E=1000,S=1000</text>
</g>
<!-- R=0,E=0,S=0&#45;&gt;R=1000,E=1000,S=1000 -->
<g id="edge2" class="edge">
<title>R=0,E=0,S=0&#45;&gt;R=1000,E=1000,S=1000</title>
<path fill="none" stroke="black" d="M468.44,-86.8C468.44,-75.16 468.44,-59.55 468.44,-46.24"/>
<polygon fill="black" stroke="black" points="471.94,-46.18 468.44,-36.18 464.94,-46.18 471.94,-46.18"/>
<text text-anchor="middle" x="513.94" y="-57.8" font-family="Times,serif" font-size="14.00">setuid(1000)</text>
</g>
<!-- R=1000,E=1000,S=1000&#45;&gt;R=1000,E=1000,S=1000 -->
<g id="edge15" class="edge">
<title>R=1000,E=1000,S=1000&#45;&gt;R=1000,E=1000,S=1000</title>
<path fill="none" stroke="black" d="M596.56,-21.17C608.73,-20.52 616.43,-19.47 616.43,-18 616.43,-16.99 612.79,-16.18 606.56,-15.56"/>
<polygon fill="black" stroke="black" points="606.79,-12.06 596.56,-14.83 606.28,-19.05 606.79,-12.06"/>
<text text-anchor="middle" x="648.43" y="-14.3" font-family="Times,serif" font-size="14.00">setuid(0)</text>
</g>
<!-- R=1000,E=1000,S=1000&#45;&gt;R=1000,E=1000,S=1000 -->
<g id="edge16" class="edge">
<title>R=1000,E=1000,S=1000&#45;&gt;R=1000,E=1000,S=1000</title>
<path fill="none" stroke="black" d="M585.65,-25.84C635.73,-26.22 680.43,-23.61 680.43,-18 680.43,-12.77 641.63,-10.15 595.83,-10.13"/>
<polygon fill="black" stroke="black" points="595.63,-6.63 585.65,-10.16 595.66,-13.63 595.63,-6.63"/>
<text text-anchor="middle" x="725.93" y="-14.3" font-family="Times,serif" font-size="14.00">setuid(1000)</text>
</g>
<!-- R=0,E=0,S=1000 -->
<g id="node3" class="node">
<title>R=0,E=0,S=1000</title>
<ellipse fill="none" stroke="black" cx="352.44" cy="-192" rx="94.78" ry="18"/>
<text text-anchor="middle" x="352.44" y="-188.3" font-family="Times,serif" font-size="14.00">R=0,E=0,S=1000</text>
</g>
<!-- R=0,E=0,S=1000&#45;&gt;R=0,E=0,S=0 -->
<g id="edge3" class="edge">
<title>R=0,E=0,S=1000&#45;&gt;R=0,E=0,S=0</title>
<path fill="none" stroke="black" d="M375.08,-174.41C393.08,-161.22 418.43,-142.65 438.17,-128.18"/>
<polygon fill="black" stroke="black" points="440.25,-130.99 446.25,-122.26 436.11,-125.35 440.25,-130.99"/>
<text text-anchor="middle" x="449.44" y="-144.8" font-family="Times,serif" font-size="14.00">setuid(0)</text>
</g>
<!-- R=0,E=0,S=1000&#45;&gt;R=1000,E=1000,S=1000 -->
<g id="edge4" class="edge">
<title>R=0,E=0,S=1000&#45;&gt;R=1000,E=1000,S=1000</title>
<path fill="none" stroke="black" d="M330.46,-174.34C305.6,-153.42 271.05,-116.67 291.44,-87 309.78,-60.31 340.15,-44.1 370.6,-34.24"/>
<polygon fill="black" stroke="black" points="371.92,-37.5 380.48,-31.26 369.89,-30.8 371.92,-37.5"/>
<text text-anchor="middle" x="336.94" y="-101.3" font-family="Times,serif" font-size="14.00">setuid(1000)</text>
</g>
<!-- R=0,E=1000,S=0 -->
<g id="node4" class="node">
<title>R=0,E=1000,S=0</title>
<ellipse fill="none" stroke="black" cx="144.44" cy="-192" rx="94.78" ry="18"/>
<text text-anchor="middle" x="144.44" y="-188.3" font-family="Times,serif" font-size="14.00">R=0,E=1000,S=0</text>
</g>
<!-- R=0,E=1000,S=0&#45;&gt;R=0,E=0,S=0 -->
<g id="edge5" class="edge">
<title>R=0,E=1000,S=0&#45;&gt;R=0,E=0,S=0</title>
<path fill="none" stroke="black" d="M197.58,-177.06C255.82,-161.78 349.01,-137.33 409.47,-121.47"/>
<polygon fill="black" stroke="black" points="410.47,-124.83 419.26,-118.9 408.69,-118.06 410.47,-124.83"/>
<text text-anchor="middle" x="358.44" y="-144.8" font-family="Times,serif" font-size="14.00">setuid(0)</text>
</g>
<!-- R=0,E=1000,S=0&#45;&gt;R=1000,E=1000,S=1000 -->
<g id="edge6" class="edge">
<title>R=0,E=1000,S=0&#45;&gt;R=1000,E=1000,S=1000</title>
<path fill="none" stroke="black" d="M147.36,-173.97C152.21,-150.91 164.12,-109.99 190.44,-87 217.41,-63.44 302.16,-44.85 371.07,-33.1"/>
<polygon fill="black" stroke="black" points="371.82,-36.53 381.11,-31.42 370.67,-29.62 371.82,-36.53"/>
<text text-anchor="middle" x="235.94" y="-101.3" font-family="Times,serif" font-size="14.00">setuid(1000)</text>
</g>
<!-- R=0,E=1000,S=1000 -->
<g id="node5" class="node">
<title>R=0,E=1000,S=1000</title>
<ellipse fill="none" stroke="black" cx="112.44" cy="-279" rx="112.38" ry="18"/>
<text text-anchor="middle" x="112.44" y="-275.3" font-family="Times,serif" font-size="14.00">R=0,E=1000,S=1000</text>
</g>
<!-- R=0,E=1000,S=1000&#45;&gt;R=1000,E=1000,S=1000 -->
<g id="edge8" class="edge">
<title>R=0,E=1000,S=1000&#45;&gt;R=1000,E=1000,S=1000</title>
<path fill="none" stroke="black" d="M85.91,-261.34C69.44,-249.32 49.7,-231.47 40.44,-210 27.94,-181 35.24,-163.47 57.44,-141 130.68,-66.87 246.73,-37.34 336.87,-25.79"/>
<polygon fill="black" stroke="black" points="337.39,-29.25 346.89,-24.56 336.54,-22.3 337.39,-29.25"/>
<text text-anchor="middle" x="102.94" y="-144.8" font-family="Times,serif" font-size="14.00">setuid(1000)</text>
</g>
<!-- R=0,E=1000,S=1000&#45;&gt;R=0,E=0,S=1000 -->
<g id="edge7" class="edge">
<title>R=0,E=1000,S=1000&#45;&gt;R=0,E=0,S=1000</title>
<path fill="none" stroke="black" d="M156.46,-262.41C196.97,-248.06 257.11,-226.76 300.07,-211.55"/>
<polygon fill="black" stroke="black" points="301.25,-214.84 309.51,-208.21 298.91,-208.24 301.25,-214.84"/>
<text text-anchor="middle" x="279.44" y="-231.8" font-family="Times,serif" font-size="14.00">setuid(0)</text>
</g>
<!-- R=1000,E=0,S=0 -->
<g id="node6" class="node">
<title>R=1000,E=0,S=0</title>
<ellipse fill="none" stroke="black" cx="802.44" cy="-192" rx="94.78" ry="18"/>
<text text-anchor="middle" x="802.44" y="-188.3" font-family="Times,serif" font-size="14.00">R=1000,E=0,S=0</text>
</g>
<!-- R=1000,E=0,S=0&#45;&gt;R=0,E=0,S=0 -->
<g id="edge9" class="edge">
<title>R=1000,E=0,S=0&#45;&gt;R=0,E=0,S=0</title>
<path fill="none" stroke="black" d="M748.03,-177.15C687.76,-161.82 590.87,-137.16 528.44,-121.27"/>
<polygon fill="black" stroke="black" points="529.28,-117.87 518.72,-118.8 527.55,-124.65 529.28,-117.87"/>
<text text-anchor="middle" x="686.44" y="-144.8" font-family="Times,serif" font-size="14.00">setuid(0)</text>
</g>
<!-- R=1000,E=0,S=0&#45;&gt;R=1000,E=1000,S=1000 -->
<g id="edge10" class="edge">
<title>R=1000,E=0,S=0&#45;&gt;R=1000,E=1000,S=1000</title>
<path fill="none" stroke="black" d="M796.08,-173.93C786.61,-150.82 766.61,-109.86 736.44,-87 694.47,-55.2 639.26,-38.17 589.87,-29.09"/>
<polygon fill="black" stroke="black" points="590.2,-25.59 579.75,-27.32 589,-32.49 590.2,-25.59"/>
<text text-anchor="middle" x="813.94" y="-101.3" font-family="Times,serif" font-size="14.00">setuid(1000)</text>
</g>
<!-- R=1000,E=0,S=1000 -->
<g id="node7" class="node">
<title>R=1000,E=0,S=1000</title>
<ellipse fill="none" stroke="black" cx="577.44" cy="-192" rx="112.38" ry="18"/>
<text text-anchor="middle" x="577.44" y="-188.3" font-family="Times,serif" font-size="14.00">R=1000,E=0,S=1000</text>
</g>
<!-- R=1000,E=0,S=1000&#45;&gt;R=0,E=0,S=0 -->
<g id="edge11" class="edge">
<title>R=1000,E=0,S=1000&#45;&gt;R=0,E=0,S=0</title>
<path fill="none" stroke="black" d="M555.91,-174.21C539.23,-161.2 515.95,-143.05 497.6,-128.74"/>
<polygon fill="black" stroke="black" points="499.6,-125.86 489.56,-122.47 495.29,-131.38 499.6,-125.86"/>
<text text-anchor="middle" x="562.44" y="-144.8" font-family="Times,serif" font-size="14.00">setuid(0)</text>
</g>
<!-- R=1000,E=0,S=1000&#45;&gt;R=1000,E=1000,S=1000 -->
<g id="edge12" class="edge">
<title>R=1000,E=0,S=1000&#45;&gt;R=1000,E=1000,S=1000</title>
<path fill="none" stroke="black" d="M599,-174.08C622.9,-153.21 655.69,-116.83 636.44,-87 619.65,-60.99 590.96,-44.93 561.99,-35.01"/>
<polygon fill="black" stroke="black" points="562.76,-31.58 552.17,-31.88 560.63,-38.25 562.76,-31.58"/>
<text text-anchor="middle" x="686.94" y="-101.3" font-family="Times,serif" font-size="14.00">setuid(1000)</text>
</g>
<!-- R=1000,E=1000,S=0 -->
<g id="node8" class="node">
<title>R=1000,E=1000,S=0</title>
<ellipse fill="none" stroke="black" cx="875.44" cy="-279" rx="112.38" ry="18"/>
<text text-anchor="middle" x="875.44" y="-275.3" font-family="Times,serif" font-size="14.00">R=1000,E=1000,S=0</text>
</g>
<!-- R=1000,E=1000,S=0&#45;&gt;R=1000,E=1000,S=1000 -->
<g id="edge14" class="edge">
<title>R=1000,E=1000,S=0&#45;&gt;R=1000,E=1000,S=1000</title>
<path fill="none" stroke="black" d="M897.5,-261.23C902.73,-256.02 907.61,-249.83 910.44,-243 938.15,-176.1 920.7,-131.33 863.44,-87 821.88,-54.82 691.83,-36.94 592.19,-27.69"/>
<polygon fill="black" stroke="black" points="592.32,-24.19 582.04,-26.77 591.68,-31.16 592.32,-24.19"/>
<text text-anchor="middle" x="962.94" y="-144.8" font-family="Times,serif" font-size="14.00">setuid(1000)</text>
</g>
<!-- R=1000,E=1000,S=0&#45;&gt;R=1000,E=0,S=0 -->
<g id="edge13" class="edge">
<title>R=1000,E=1000,S=0&#45;&gt;R=1000,E=0,S=0</title>
<path fill="none" stroke="black" d="M860.67,-260.8C850.01,-248.39 835.47,-231.46 823.58,-217.62"/>
<polygon fill="black" stroke="black" points="826.11,-215.19 816.94,-209.89 820.8,-219.75 826.11,-215.19"/>
<text text-anchor="middle" x="874.44" y="-231.8" font-family="Times,serif" font-size="14.00">setuid(0)</text>
</g>
</g>
</svg>
